<?xml version="1.0" standalone="no"?>
<!DOCTYPE svg PUBLIC "-//W3C//DTD SVG 1.1//EN" "http://www.w3.org/Graphics/SVG/1.1/DTD/svg11.dtd" >
<svg>
<metadata>
Created by FontForge 20110222 at Mon Mar  7 03:49:16 2011
 By www-data
Converted by ALLTYPE
</metadata>
<defs>
<font id="Ariston" horiz-adv-x="551" >
  <font-face 
    font-family="Ariston"
    font-weight="5"
    font-stretch="normal"
    units-per-em="1000"
    panose-1="0 0 0 0 0 0 0 0 0 0"
    ascent="800"
    descent="-200"
    x-height="387"
    cap-height="673"
    bbox="-143 -283 1112 889"
    underline-thickness="50"
    underline-position="-55"
    unicode-range="U+0020-25D9"
  />
    <missing-glyph />
    <glyph glyph-name="space" unicode=" " horiz-adv-x="278" 
 />
    <glyph glyph-name="space" unicode="&#xa0;" horiz-adv-x="278" 
 />
    <glyph glyph-name="exclam" unicode="!" horiz-adv-x="296" 
d="M102 156q33 -1 57 -25t24 -57q0 -34 -23.5 -57.5t-57.5 -23.5t-58 23.5t-24 57.5t24 57.5t58 23.5v1zM154 634l199 32l-215 -450l-21 1l37 417v0z" />
    <glyph glyph-name="quotedbl" unicode="&#x22;" horiz-adv-x="400" 
d="M179 399h-62l45 267h157l-140 -267v0zM364 399h-62l45 267h157l-140 -267v0z" />
    <glyph glyph-name="numbersign" unicode="#" 
d="M382 227l-79 -227h-70l79 227h-104l-79 -227h-69l79 227h-111l22 63h111l35 101h-110l22 63h110l74 213h70l-75 -213h105l74 213h70l-74 -213h101l-22 -63h-102l-34 -101h101l-22 -63h-102v0zM335 290l34 101h-104l-35 -101h105v0z" />
    <glyph glyph-name="dollar" unicode="$" 
d="M414 729h37l-17 -50q68 -13 98 -34t30 -59q0 -5 -1.5 -14t-5.5 -19q-4 -14 -12 -25.5t-19 -11.5q-3 0 -5 2.5t-3 6.5q-7 45 -28.5 75t-65.5 46l-83 -230q3 -3 5.5 -4.5t5.5 -3.5q53 -34 97 -77.5t44 -112.5q0 -61 -40 -113.5t-108 -81.5q-4 -2 -8 -3.5t-8 -3.5
q-31 -11 -63 -15t-75 -5l-27 -74l-35 1l27 76q-12 1 -26 4t-28 8q-37 12 -67 34.5t-30 61.5q0 6 2.5 14.5t7.5 17.5q6 13 15 24.5t19 16.5q3 1 5.5 2t5.5 1q4 0 6 -2t2 -7q0 -6 0.5 -12.5t1.5 -12.5q5 -42 28 -78.5t68 -44.5l90 255q-46 27 -76 50t-48 45q-16 21 -23 42
t-7 46q0 103 73.5 152t162.5 60q15 2 30 3t30 1l18 49v0zM198 22l18 -1q65 -1 111 35t46 86q0 34 -22 63t-68 55l-85 -238v0zM388 656q-9 -1 -18.5 -1.5t-18.5 -1.5q-46 -5 -84.5 -29t-38.5 -80q0 -12 2.5 -22t7.5 -20q9 -15 26 -31.5t46 -37.5l78 223v0z" />
    <glyph glyph-name="percent" unicode="%" horiz-adv-x="794" 
d="M641 604h56l-508 -604l-54 1l506 603v0zM762 231q0 -9 -0.5 -17t-1.5 -16q-10 -74 -62.5 -136t-132.5 -62q-58 0 -89.5 33t-31.5 95q0 94 57.5 163t134.5 69q58 0 92 -35.5t34 -94.5v1zM557 19q26 -1 50.5 44.5t42.5 99.5q14 44 22.5 82.5t8.5 54.5q0 20 -8 30.5
t-22 10.5q-12 0 -22.5 -7.5t-20.5 -23.5q-2 -4 -4.5 -8.5t-5.5 -9.5q-10 -20 -19.5 -42t-17.5 -45q-17 -44 -27 -85.5t-10 -65.5q0 -16 9.5 -26t23.5 -10v1zM386 471q0 -8 -0.5 -15t-1.5 -14q-8 -76 -60.5 -139.5t-134.5 -63.5q-58 0 -89.5 33.5t-31.5 94.5q0 94 57.5 163.5
t135.5 69.5q57 0 91 -35.5t34 -94.5v1zM181 258q26 -1 50 44t41 99q15 46 24 86t9 53q0 20 -7.5 30.5t-22.5 10.5q-7 0 -14 -4.5t-15 -12.5q-18 -20 -35.5 -57t-31.5 -78q-13 -41 -21.5 -78t-8.5 -57q0 -16 9 -26.5t23 -10.5v1z" />
    <glyph glyph-name="ampersand" unicode="&#x26;" horiz-adv-x="632" 
d="M521 338h51q-3 -12 -5.5 -22.5t-5.5 -20.5q-9 -29 -18 -52t-21 -44q-4 -8 -9 -15.5t-10 -15.5l62 -125l-132 -54l-45 92q-40 -41 -89 -61t-106 -20q-72 0 -116 34.5t-44 91.5q0 70 58.5 120.5t177.5 82.5q-8 23 -12 39t-6 30q-1 6 -1 11.5v11.5q0 62 48.5 101t124.5 39
q41 0 66.5 -20t25.5 -52q0 -37 -28.5 -70t-80.5 -57l86 -172q15 35 22.5 68t7.5 65l-1 15v0zM276 313q-27 -26 -46 -50.5t-31 -48.5q-10 -20 -14.5 -40t-4.5 -41q0 -43 23 -69.5t61 -26.5q7 0 14 1t14 3q21 5 42.5 19t45.5 37l-104 216v0zM400 377q31 23 46.5 52t15.5 63
q0 23 -11 38.5t-29 15.5q-20 0 -33 -20t-13 -52q0 -16 2 -31.5t7 -30.5q3 -9 6.5 -18t8.5 -18v1z" />
    <glyph glyph-name="quotesingle" unicode="'" horiz-adv-x="214" 
d="M179 399h-62l45 267h157l-140 -267v0z" />
    <glyph glyph-name="parenleft" unicode="(" horiz-adv-x="335" 
d="M399 674l11 -10q-67 -90 -124.5 -216.5t-99.5 -261.5q-30 -98 -50 -192t-26 -174l-13 -3q-24 50 -38.5 92.5t-22.5 83.5q-4 23 -6 47t-2 50q0 192 104 342t267 241v1z" />
    <glyph glyph-name="parenright" unicode=")" horiz-adv-x="369" 
d="M-54 -183l-11 10q65 84 122 209t98 259q32 101 52.5 198t27.5 177l14 4q23 -49 37 -90.5t22 -81.5q5 -25 7 -51t2 -53q0 -193 -103.5 -341.5t-266.5 -239.5h-1z" />
    <glyph glyph-name="asterisk" unicode="*" horiz-adv-x="387" 
d="M264 509q-10 3 -28 7t-37 9q-29 8 -52.5 20.5t-23.5 33.5q0 20 15.5 37t34.5 17q10 0 20.5 -10t21.5 -24q6 -8 11.5 -16.5t10.5 -17.5q9 -13 17 -26t16 -23l1 19q-1 10 -1.5 20.5t-0.5 21.5v7.5v6.5q0 7 -0.5 14.5t-0.5 14.5q0 28 10 41t31 13t37.5 -13.5t16.5 -30.5
q0 -10 -11 -26.5t-26 -34.5q-2 -2 -4 -4.5t-4 -4.5q-12 -14 -22.5 -26t-16.5 -21q8 2 16 4.5t15 5.5q5 2 9.5 4t9.5 4q19 8 38 14.5t39 6.5q17 0 27.5 -13t10.5 -33q0 -21 -10.5 -34.5t-27.5 -13.5q-9 0 -27.5 6.5t-38.5 14.5q-2 0 -4 1l-4 2q-16 6 -30 12t-23 9
q6 -10 15.5 -22t20.5 -26q3 -3 6 -6.5t5 -7.5q13 -16 22 -31.5t9 -27.5q0 -17 -15.5 -29.5t-38.5 -12.5q-19 0 -29 11.5t-10 32.5q0 15 1 29.5t2 28.5q0 14 1 28.5t1 29.5q-6 -7 -15.5 -22.5t-21.5 -32.5q-6 -9 -12.5 -18t-13.5 -16q-9 -11 -18.5 -18t-17.5 -7
q-18 0 -33.5 15.5t-16.5 34.5v1.5v1.5q0 17 11 27t35 15q18 4 35 8.5t33 9.5q8 2 15.5 4.5t14.5 4.5v1z" />
    <glyph glyph-name="plus" unicode="+" 
d="M21 245l23 66h205l72 209h73l-71 -209h205l-23 -66h-205l-72 -209h-74l72 209h-205v0z" />
    <glyph glyph-name="comma" unicode="," horiz-adv-x="297" 
d="M22 48l149 84q15 -13 25 -24.5t15 -22.5q4 -8 5.5 -15.5t1.5 -15.5q0 -15 -7 -31.5t-18 -32.5q-17 -24 -42 -48t-52 -45q-24 -19 -47.5 -34.5t-40.5 -25.5l-9 13q22 18 38 38.5t27 40.5q7 15 10.5 29t3.5 28q0 19 -10 32.5t-27 13.5l-13 -1l-9 17v0z" />
    <glyph glyph-name="hyphen" unicode="-" horiz-adv-x="220" 
d="M190 232l-46 -64h-196l47 64h195v0z" />
    <glyph glyph-name="period" unicode="." horiz-adv-x="297" 
d="M134 156q33 -1 57 -25t24 -57q0 -34 -23.5 -57.5t-57.5 -23.5t-58 23.5t-24 57.5t24 57.5t58 23.5v1z" />
    <glyph glyph-name="slash" unicode="/" horiz-adv-x="395" 
d="M397 666h65l-542 -843h-63l540 843v0z" />
    <glyph glyph-name="zero" unicode="0" 
d="M535 367q0 -18 -1.5 -35t-5.5 -34q-22 -115 -108 -210t-207 -95q-81 0 -133.5 62t-52.5 157q0 13 1 26.5t3 26.5q18 118 104 216.5t211 98.5q86 0 137.5 -58.5t51.5 -155.5v1zM422 495q0 29 -16 48.5t-41 19.5q-15 0 -29 -6.5t-27 -21.5q-15 -16 -30 -42t-32 -64
q-8 -17 -15 -34.5t-14 -34.5q-33 -84 -54 -160.5t-21 -115.5q0 -34 15 -53.5t41 -19.5q15 0 28 6t26 20q16 16 31.5 43.5t33.5 68.5q9 20 20.5 49.5t23.5 63.5q5 14 10 28.5t10 29.5q16 52 28 99.5t12 74.5v1z" />
    <glyph glyph-name="one" unicode="1" 
d="M492 599l-209 -577l-162 -32l167 456l-175 -97l12 45l367 205v0z" />
    <glyph glyph-name="two" unicode="2" 
d="M144 304l-14 -6q-10 16 -16 30.5t-9 28.5q-3 11 -4 21.5t-1 21.5q0 80 60.5 130.5t158.5 50.5q88 0 138 -36t50 -101q0 -9 -1 -19t-4 -19q-7 -31 -25 -61t-45 -54q-41 -37 -90.5 -61t-101.5 -45q-67 -28 -131 -61t-108 -93q49 35 100.5 61t112.5 26q29 0 56 -6t52 -13
q24 -7 44.5 -13t35.5 -6h4.5t4.5 1q11 2 22 9.5t20 19.5l15 -13q-38 -52 -88.5 -78t-109.5 -26q-31 0 -60.5 4.5t-57.5 10.5t-54 11t-49 5q-20 0 -35.5 -6t-29.5 -19q-2 -1 -3.5 -2.5l-3.5 -3.5l-15 10q31 57 81 104t104 89q11 9 21.5 17t20.5 16q70 55 123 114.5t53 140.5
q0 34 -17.5 53.5t-47.5 19.5h-1.5h-1.5q-60 -2 -110 -66.5t-50 -142.5v-7.5t1 -6.5q0 -7 2 -14t4 -17v1z" />
    <glyph glyph-name="three" unicode="3" 
d="M158 473l-26 4l23 85q25 5 48.5 9.5t45.5 6.5q16 2 31 2.5t31 0.5q93 0 142.5 -31.5t49.5 -90.5q0 -66 -47.5 -96.5t-104.5 -40.5q-17 -2 -34 -3.5t-32 -2.5q10 -1 20.5 -2.5t21.5 -3.5q48 -8 88.5 -31.5t40.5 -82.5q0 -41 -22.5 -80t-63.5 -69q-40 -29 -86 -41.5
t-109 -12.5q-53 0 -94 6t-77 21l-9 84l29 16q14 -54 42 -80.5t73 -26.5q54 0 95 45.5t59 99.5q6 18 9 35.5t3 33.5q0 36 -23.5 57t-64.5 21q-19 0 -35 -4.5t-31 -14.5q-7 -4 -14 -9.5t-14 -12.5l-12 7l41 93q14 -22 29.5 -30.5t40.5 -8.5q45 0 77 37t46 81q4 15 6.5 29.5
t2.5 27.5q0 27 -18.5 43t-50.5 16q-40 0 -72 -22t-55 -65v1z" />
    <glyph glyph-name="four" unicode="4" 
d="M555 602l-127 -390l95 -1l-50 -91l-75 3l-33 -103l-158 -30l46 142h-289l591 470v0zM279 212l62 191l-235 -190l173 -1v0z" />
    <glyph glyph-name="five" unicode="5" 
d="M194 575h326l-60 -101h-270l-48 -129q27 11 50 19t46 12q15 3 31.5 4.5t33.5 1.5q79 0 122.5 -34.5t43.5 -96.5q0 -13 -2 -25.5t-5 -25.5q-11 -44 -39 -85t-66 -68t-88.5 -40.5t-109.5 -13.5q-51 0 -91.5 8.5t-68.5 25.5l-4 85l27 13q9 -53 38.5 -81.5t75.5 -28.5
q34 0 62.5 17.5t49.5 50.5q10 16 19 32t17 32q17 38 26.5 73.5t9.5 63.5q0 29 -18 44.5t-53 15.5q-29 0 -62 -10.5t-75 -33.5l-17 10l99 265v0z" />
    <glyph glyph-name="six" unicode="6" 
d="M472 615h46q-18 -13 -36.5 -27.5t-36.5 -30.5q-28 -24 -54.5 -50.5t-50.5 -54.5q-18 -20 -33.5 -39.5t-28.5 -38.5q10 3 18.5 5.5t16.5 3.5q6 1 12.5 1.5t14.5 0.5q71 0 116 -40.5t45 -105.5q0 -100 -81 -173t-192 -73q-91 0 -147 48t-56 126q0 101 82.5 186t181.5 151
q50 33 98 60.5t85 49.5v1zM207 11q16 -1 30.5 6.5t26.5 21.5q8 9 16.5 23t17.5 31q10 19 20 41.5t19 44.5q14 38 23 72.5t9 56.5q0 26 -14.5 41.5t-38.5 15.5q-41 0 -76 -49.5t-57 -109.5q-14 -38 -22 -73t-8 -58q0 -28 15 -46.5t39 -18.5v1z" />
    <glyph glyph-name="seven" unicode="7" 
d="M118 400l-32 20q9 13 20.5 30.5t25.5 36.5q27 35 59.5 65t66.5 30q30 0 59 -5t58 -11q28 -7 57 -12t59 -5q18 0 32.5 2t28.5 5q8 3 17 6t18 7l9 -6q-26 -32 -57 -78t-63 -99q-14 -25 -28.5 -50t-28.5 -51q-37 -68 -69 -132.5t-51 -111.5l-215 -51q82 134 177.5 260
t217.5 228q9 8 18 15.5t19 14.5q9 8 18 15.5t18 15.5q-67 -43 -141 -72t-156 -29q-34 0 -60.5 3.5t-50.5 11.5q-2 -4 -4.5 -8.5t-4.5 -9.5q-5 -9 -9 -17.5t-8 -18.5v1z" />
    <glyph glyph-name="eight" unicode="8" 
d="M378 321q28 -30 45.5 -53.5t25.5 -45.5q5 -13 7 -26.5t2 -27.5q0 -79 -73 -128.5t-186 -49.5q-83 0 -134.5 37t-51.5 97q0 61 43.5 96t96.5 52q10 3 19.5 5.5t18.5 4.5q-19 20 -32 38.5t-21 36.5q-5 14 -8 28t-3 28q0 71 53 111t116 53q16 3 31 4.5t30 1.5q78 0 125 -32
t47 -85q0 -50 -38 -86.5t-113 -59.5v1zM206 268q-60 -14 -95 -52.5t-35 -91.5q0 -52 35 -84t91 -32q53 0 86.5 28.5t33.5 71.5q0 36 -24 67t-52 57q-11 10 -21 18.5t-19 16.5v1zM365 335q53 22 83.5 57.5t30.5 75.5q0 43 -28 68.5t-75 25.5q-49 0 -80.5 -25t-31.5 -63
q0 -33 21 -60.5t47 -50.5q8 -7 16.5 -14.5t16.5 -14.5v1z" />
    <glyph glyph-name="nine" unicode="9" 
d="M89 -41h-46q20 14 43 32t46 39q20 18 40 38.5t39 40.5q21 23 39.5 46t32.5 44q-10 -4 -18.5 -6.5t-16.5 -3.5q-6 -1 -12.5 -1.5t-14.5 -0.5q-72 0 -117 41t-45 106q0 100 81.5 173t192.5 73q91 0 147 -48t56 -127q0 -101 -83 -186.5t-182 -150.5q-50 -33 -97.5 -60
t-84.5 -49v0zM354 563q-16 -1 -30.5 -8.5t-27.5 -21.5q-8 -9 -16.5 -22.5t-16.5 -29.5q-11 -20 -21.5 -43.5t-19.5 -47.5q-13 -35 -21.5 -68.5t-8.5 -56.5q0 -26 14 -42t38 -16q42 0 76.5 49t56.5 108q15 39 23 75.5t8 58.5q0 28 -15.5 46t-38.5 18v1z" />
    <glyph glyph-name="colon" unicode=":" horiz-adv-x="297" 
d="M132 158q35 -1 59 -25t24 -59q0 -34 -24 -57.5t-59 -23.5q-34 0 -58 23.5t-24 57.5q0 35 24 59t58 24v1zM201 381q34 -1 58 -25t24 -58t-24 -58.5t-58 -24.5t-58 24.5t-24 58.5t24 58t58 24v1z" />
    <glyph glyph-name="semicolon" unicode=";" horiz-adv-x="297" 
d="M22 48l149 84q15 -13 25 -24.5t15 -22.5q4 -8 5.5 -15.5t1.5 -15.5q0 -15 -7 -31.5t-18 -32.5q-17 -24 -42 -48t-52 -45q-24 -19 -47.5 -34.5t-40.5 -25.5l-9 13q22 18 38 38.5t27 40.5q7 15 10.5 29t3.5 28q0 19 -10 32.5t-27 13.5l-13 -1l-9 17v0zM203 380
q34 -1 57.5 -24.5t23.5 -57.5t-23.5 -58t-57.5 -24t-58 24t-24 58t24 57.5t58 23.5v1z" />
    <glyph glyph-name="less" unicode="&#x3c;" horiz-adv-x="500" 
d="M586 640l-25 -71l-282 -145l177 -160l-64 -188l-324 292l3 9l515 263v0z" />
    <glyph glyph-name="equal" unicode="=" 
d="M-4 171l23 67h484l-23 -67h-484v0zM47 318l23 66h483l-22 -66h-484v0z" />
    <glyph glyph-name="greater" unicode="&#x3e;" horiz-adv-x="500" 
d="M-32 76l24 71l283 145l-178 160l65 188l324 -292l-3 -9l-515 -263v0z" />
    <glyph glyph-name="question" unicode="?" horiz-adv-x="363" 
d="M142 156q33 -1 57 -25t24 -57q0 -34 -23.5 -57.5t-57.5 -23.5t-58 23.5t-24 57.5t24 57.5t58 23.5v1zM121 472l-21 -2l-3 36q0 72 48.5 117t124.5 45q68 0 110.5 -36t42.5 -92q0 -52 -39 -91.5t-86 -70.5q-48 -31 -87 -55.5t-39 -47.5q0 -10 8.5 -17.5t21.5 -7.5
q20 0 40.5 12t42.5 34l10 -4l-18 -48q-20 -7 -35 -10t-29 -5q-6 0 -13 -0.5t-14 -0.5q-55 0 -87.5 26.5t-32.5 72.5q0 49 40.5 86.5t89.5 68.5q20 14 40 26.5t37 25.5q23 17 37.5 34.5t14.5 36.5q0 16 -12 25.5t-32 9.5q-8 0 -16 -1.5t-17 -4.5q-41 -14 -76.5 -54.5
t-46.5 -86.5q-2 -5 -3 -10.5t-1 -11.5v1z" />
    <glyph glyph-name="at" unicode="@" horiz-adv-x="737" 
d="M573 436l-67 -175q-2 -7 -3 -11t-1 -7v-0.5v-1.5q0 -8 6.5 -13.5t16.5 -5.5q37 0 63.5 42.5t42.5 92.5q10 35 15.5 66.5t5.5 50.5q0 62 -45 103t-113 41q-96 0 -180 -87t-128 -192q-17 -42 -27 -83.5t-10 -76.5q0 -63 51 -99.5t139 -36.5q74 0 142 22.5t134 53.5
q9 5 15.5 7.5t9.5 2.5q6 0 10.5 -5.5t4.5 -13.5q0 -7 -5.5 -11.5t-11.5 -6.5q-2 -1 -4.5 -2t-4.5 -2q-67 -34 -138.5 -56.5t-148.5 -22.5q-121 0 -201.5 61.5t-80.5 153.5q0 13 1 25.5t4 24.5q21 123 126.5 230t227.5 137q18 4 36 6.5t36 2.5q100 0 166 -57t66 -142v-8
t-1 -8q-6 -91 -71 -166.5t-160 -75.5q-30 0 -47.5 6.5t-28.5 22.5q-11 -6 -20.5 -11t-19.5 -8q-11 -4 -23 -5.5t-26 -1.5q-40 0 -61 16t-21 48q0 5 0.5 10t1.5 10q8 59 58 107.5t116 48.5q20 0 33 -4t21 -14l99 18v0zM461 405q-2 1 -4 2.5t-3 2.5q-6 4 -11.5 6t-12.5 2
q-9 0 -15.5 -3.5t-13.5 -12.5q-3 -5 -7 -12t-8 -16q-19 -39 -31 -74.5t-12 -52.5q0 -11 7 -18t18 -7q7 0 15.5 3t24.5 12l-2 12q0 3 1 8l2 10q1 3 1.5 6t1.5 6l49 126v0z" />
    <glyph glyph-name="A" unicode="A" horiz-adv-x="948" 
d="M955 335l-26 -39q-21 -1 -42 -1t-42 1l-83 -219q-2 -7 -3 -13.5t-1 -13.5q0 -17 10.5 -26t31.5 -9t51.5 10.5t62.5 27.5q12 7 23.5 14t22.5 15v-22q-16 -12 -32 -21.5t-32 -17.5q-37 -18 -76 -26t-81 -8q-61 0 -95 23.5t-34 66.5q0 14 4 32t11 37l57 152q-14 0 -24.5 0.5
t-19.5 0.5q-9 1 -19.5 1.5t-24.5 0.5q-83 -160 -185 -235t-235 -75q-90 0 -143 37t-53 99q0 56 38.5 101.5t106.5 70.5q52 20 108.5 28t133.5 8q23 0 46 -1l46 -2q2 -1 4.5 -1h4.5q25 -1 50.5 -2t50.5 -1q13 29 30 67.5t39 78.5q40 75 95 137.5t123 62.5q40 0 66 -20.5
t26 -51.5q0 -18 -6 -44t-17 -55l-65 -174q5 -1 10 -1h9q10 1 17.5 1t15.5 1q10 0 20.5 1t24.5 3v1zM554 304q-20 2 -43.5 4t-47.5 3q-26 2 -50.5 3t-45.5 1q-14 0 -28 -1t-28 -3q-76 -12 -138.5 -56.5t-62.5 -130.5q0 -48 31 -77.5t82 -29.5q17 0 34.5 3t35.5 9
q75 25 145 98t116 176v1zM693 327l114 304q2 3 3 7l2 8q0 2 -1 3t-3 1l-6 -1q-54 -44 -90 -105t-65 -125q-7 -15 -13.5 -29.5t-12.5 -28.5q-4 -9 -8 -17.5t-8 -17.5h53l35 1v0z" />
    <glyph glyph-name="B" unicode="B" horiz-adv-x="874" 
d="M107 209l-20 -20q-26 33 -40 73.5t-14 83.5q0 79 47.5 151t128.5 115q59 32 140.5 47.5t180.5 15.5q148 0 233 -40.5t85 -111.5q0 -68 -51 -102t-113 -50q-25 -6 -49 -10.5t-45 -7.5q19 -3 40.5 -6.5t43.5 -8.5q57 -14 103.5 -44.5t46.5 -92.5q0 -52 -35.5 -96.5
t-101.5 -74.5q-51 -23 -117 -33t-166 -10h-48t-48 1q-48 1 -96 3.5t-96 8.5v16q106 15 151.5 85.5t72.5 161.5q22 76 45 151.5t51 148.5l161 73l8 -3l-90 -320q-36 -128 -116.5 -199t-217.5 -97q24 -3 47.5 -5t47.5 -3t47.5 -1.5t47.5 -0.5q62 0 110.5 10.5t79.5 30.5
q34 21 61 58.5t40 78.5q4 14 6.5 28t2.5 28q0 38 -18 56t-40 27q-10 3 -19.5 5.5t-17.5 5.5q-9 2 -15 5.5t-6 8.5t5 8.5t15 6.5q47 15 82 63t39 104q1 3 1 6.5v7.5q0 55 -40 82.5t-119 27.5q-85 0 -163 -27.5t-153 -83.5q-30 -23 -55 -46.5t-45 -46.5q-30 -37 -46 -73
t-16 -69q0 -25 8.5 -46.5t27.5 -42.5q2 -3 5 -6l6 -6v1z" />
    <glyph glyph-name="C" unicode="C" horiz-adv-x="635" 
d="M647 74l6 -16q-73 -35 -152 -56t-161 -21q-145 0 -231 75.5t-86 202.5q0 165 136.5 292.5t313.5 127.5q87 0 135 -46.5t48 -130.5q0 -8 -0.5 -16t-1.5 -16q-13 -111 -103 -205.5t-195 -108.5q-7 -1 -14.5 -1.5t-14.5 -0.5q-46 0 -75 22.5t-29 57.5q0 19 7 40.5t19 43.5
q15 26 35.5 51.5t45.5 45.5q37 30 80.5 54t95.5 43l6 -14q-22 -12 -52 -31t-62 -43q-34 -26 -66 -56.5t-54 -61.5q-14 -20 -22.5 -40.5t-8.5 -39.5q0 -20 12.5 -33t32.5 -13q24 0 52 13t56 36q39 31 76 75.5t66 90.5q29 47 46.5 90.5t17.5 74.5q0 44 -28 72.5t-70 28.5
q-91 0 -171 -94.5t-129 -208.5q-26 -61 -41 -119.5t-15 -101.5q0 -71 50.5 -101.5t110.5 -33.5q4 -1 8.5 -1h9.5q82 0 161 21.5t155 50.5v1z" />
    <glyph glyph-name="D" unicode="D" horiz-adv-x="964" 
d="M92 182l-16 -15q-32 30 -47.5 63t-15.5 71q0 15 2 29.5t6 29.5q15 62 60 121t110 101q58 38 125 57.5t136 27.5q26 2 52 3.5t52 1.5q185 0 295 -75t110 -201q0 -12 -1 -24t-3 -24q-11 -73 -52.5 -141.5t-105.5 -118.5q-66 -51 -157 -76t-207 -25q-17 0 -45.5 1t-60.5 3
q-24 1 -47.5 2.5t-41.5 3.5l1 16q10 0 18.5 4.5t17.5 14.5q18 22 37.5 71t47.5 139q8 25 15 47.5t14 42.5q30 86 68 141t114 104q20 13 42.5 25.5t48.5 25.5l11 -9q-32 -49 -54.5 -103t-40.5 -109l-10 -30l-10 -30q-2 -6 -3.5 -11t-3.5 -10q-1 -3 -2 -6.5t-3 -7.5
q-35 -106 -85 -188t-171 -111h16l116 -5q92 -1 163.5 39t128.5 123q21 30 38 63.5t30 68.5q16 41 24.5 81t8.5 74q0 98 -60 146.5t-181 48.5q-118 0 -210.5 -36t-169.5 -110q-20 -19 -37.5 -39.5t-32.5 -41.5q-33 -45 -52 -87.5t-19 -74.5q0 -14 2.5 -25.5t8.5 -22.5
q4 -8 10.5 -16.5t15.5 -17.5v1z" />
    <glyph glyph-name="E" unicode="E" horiz-adv-x="648" 
d="M416 402l-11 14q30 18 56 46t45 57q15 24 23.5 47t8.5 41q0 17 -10.5 28.5t-27.5 11.5q-30 0 -55 -38t-44 -83q-12 -29 -21.5 -56t-16.5 -44l-4 -10t-3 -10q-1 -1 -1 -2t-1 -2q-8 -23 -19 -45t-34 -34q-12 -7 -23 -14t-21 -14q-60 -42 -87.5 -86t-27.5 -96
q0 -50 33.5 -82t84.5 -32q25 0 51.5 5.5t54.5 16.5q42 17 83.5 45t74.5 65q25 27 36.5 49t11.5 41q0 13 -5 21.5t-16 15.5l9 16q29 -23 43.5 -46.5t14.5 -49.5q0 -4 -0.5 -7.5t-0.5 -7.5q-6 -39 -41 -76t-90 -63q-46 -22 -104 -33t-120 -11q-132 0 -205 43t-73 122
q0 52 30 96t84 72q39 21 81 26.5t85 6.5q14 0 22.5 4.5t8.5 11.5q0 5 -7.5 19t-16.5 35q-9 19 -16 43t-8 48v2v2q0 76 51 122t134 46q67 0 110.5 -30.5t43.5 -77.5q0 -52 -43.5 -95.5t-126.5 -74.5v1z" />
    <glyph glyph-name="F" unicode="F" horiz-adv-x="947" 
d="M780 489l16 -14q-21 -26 -31.5 -56.5t-17.5 -62.5q-2 -9 -4 -17.5t-3 -17.5q-2 -8 -3.5 -15.5t-3.5 -15.5q39 0 78 1.5t78 3.5q20 1 39.5 2t38.5 2q8 0 11 -1.5t3 -5.5t-4 -11.5t-14 -20.5l-16 -21q-2 -4 -3.5 -6t-2.5 -3q-2 -2 -4.5 -3t-6.5 -1q-26 0 -52 1l-52 2
q-18 1 -35.5 2t-34.5 2q-9 0 -17.5 1t-17.5 1q-2 -9 -4 -18.5t-5 -18.5q-18 -75 -47 -146.5t-84 -127.5q-18 -19 -38 -34.5t-41 -27.5q-25 -15 -50.5 -23.5t-46.5 -8.5q-28 0 -49 18.5t-21 42.5q0 28 22 66.5t51 78.5q5 6 9.5 12.5t9.5 12.5q35 47 63.5 88t28.5 62
q0 17 -12 26t-32 9h-34q-12 -1 -19 4t-7 14q0 13 10.5 19.5t32.5 6.5q15 0 30.5 -0.5t30.5 -0.5t30.5 -0.5t30.5 -0.5q37 81 83 127t117 73v1zM516 247q11 -8 15.5 -16t4.5 -19q0 -9 -6.5 -26.5t-23.5 -49.5l-51 -102q-5 -12 -12 -24.5t-14 -26.5l-8 -16t-7 -16
q-9 -18 -14.5 -35.5t-5.5 -33.5q0 -11 7 -18.5t17 -7.5q31 0 57.5 63t46.5 137q16 60 27.5 113t18.5 76l-52 2v0zM78 48l-11 -14q-2 2 -4.5 5t-4.5 6q-30 40 -42.5 82.5t-12.5 98.5q0 182 144 317.5t323 135.5q31 0 61 -3.5t59 -9.5l20 -4l20 -4q17 -3 34.5 -6.5t34.5 -7.5
q69 -13 138 -25.5t140 -16.5q18 -1 24 -3t6 -7q0 -3 -1 -8t-5 -15l-8 -25q-3 -9 -5 -16t-4 -12q-7 -16 -15.5 -20.5t-25.5 -4.5q-46 0 -96.5 3.5t-102.5 9.5q-55 7 -108.5 15t-100.5 17l-146 27q-7 0 -13.5 1t-13.5 2q-14 2 -27.5 3t-26.5 1q-121 0 -189 -96t-68 -270
q0 -32 2.5 -58t9.5 -51q3 -12 6.5 -23.5t8.5 -24.5v1z" />
    <glyph glyph-name="G" unicode="G" horiz-adv-x="849" 
d="M606 332l171 37l-66 -211q-3 -10 -5.5 -18.5t-5.5 -16.5q-15 -43 -31.5 -72.5t-40.5 -55.5l-1.5 -1.5l-1.5 -1.5q65 9 127.5 33.5t119.5 55.5v-19q-69 -41 -139.5 -76t-150.5 -51q-12 -11 -25.5 -22.5t-28.5 -23.5q-32 -26 -68 -49.5t-73 -35.5q-14 -5 -27.5 -7.5
t-27.5 -2.5q-27 0 -43.5 13t-16.5 35q0 34 36.5 57t79.5 38q30 10 57 16.5t43 11.5q8 17 13.5 34.5t10.5 35.5q4 12 7.5 23.5t7.5 23.5q-55 -49 -124 -75t-142 -26q-89 0 -144 42t-64 118q-11 -2 -20.5 -4t-18.5 -4q-15 -3 -32.5 -4.5t-40.5 -1.5l15 39l11 -1q10 -1 21 -0.5
t21 1.5q12 1 23.5 2t21.5 3q0 9 1 18.5t2 19.5q5 37 19 75.5t37 79.5q75 133 223 220t310 94q7 1 13.5 1h12.5q62 0 97 -22t35 -61q0 -25 -18.5 -54.5t-56.5 -64.5q-4 -4 -8 -7.5t-8 -7.5q-60 -53 -139.5 -104.5t-162.5 -93.5q-51 -26 -101 -47t-96 -36q0 -10 1 -21.5
t3 -22.5q7 -45 31 -83t78 -38q16 0 33 3.5t35 9.5q35 11 68.5 31.5t60.5 42.5q3 3 7 6t7 6l68 217v0zM463 -88q-12 -1 -34 -3.5t-45 -8.5q-34 -8 -62 -23.5t-28 -41.5q0 -11 8.5 -17.5t23.5 -6.5q32 0 65 24t72 77v0zM216 204q37 12 91.5 35t112.5 53q96 51 176.5 119
t80.5 144q0 39 -29.5 65.5t-73.5 26.5q-23 0 -47.5 -6.5t-50.5 -18.5q-46 -23 -90.5 -62.5t-78.5 -90.5q-36 -55 -59.5 -123.5t-31.5 -142.5v1z" />
    <glyph glyph-name="H" unicode="H" horiz-adv-x="1065" 
d="M81 478l-21 2q31 89 107.5 141t178.5 52q35 0 69.5 -7.5t67.5 -16.5q33 -10 64.5 -17.5t61.5 -7.5h7t7 1q10 0 21 2.5t25 6.5l12 -13q-23 -15 -43 -53t-36 -80q-12 -31 -21 -60.5t-14 -49.5q14 5 24.5 9t19.5 7t19.5 7t24.5 9q29 59 61 100.5t75 75.5q21 17 45 30.5
t48 23.5q27 12 53 18t48 6q28 0 46 -15.5t18 -40.5q0 -12 -4.5 -24t-13.5 -25q-23 -30 -76 -60.5t-137 -62.5q-10 -21 -22.5 -50t-25.5 -62q-7 -17 -13.5 -34.5t-12.5 -35.5q-18 -49 -30 -95.5t-12 -79.5q0 -26 14 -42t37 -16q13 0 26 3t27 9q47 19 91.5 65t70.5 98
q13 25 20.5 49.5t7.5 46.5q0 29 -11.5 51.5t-34.5 38.5l13 14q46 -26 66.5 -56t20.5 -71q0 -10 -1 -19.5t-3 -18.5q-10 -42 -39 -83t-75 -76q-55 -42 -113 -62t-124 -20h-6.5h-6.5q-50 2 -91 23t-41 81q0 7 0.5 13.5t0.5 12.5q4 38 16.5 75t26.5 71q1 2 1.5 3.5t1.5 3.5
l39 96l5 14q-11 -5 -19.5 -8.5t-16.5 -6.5h-0.5h-0.5q-9 -4 -19.5 -7.5t-25.5 -9.5q-18 -61 -37.5 -106.5t-45.5 -86.5q-36 -59 -94.5 -101t-120.5 -57q-15 -3 -30 -5t-30 -2q-43 0 -70 23t-27 60q0 56 52 102t114 79q34 19 67 34t57 25q35 109 90 173t156 116l-2 4
q-24 -13 -51 -24t-56 -19q-38 -12 -74 -19t-63 -7q-24 0 -47.5 2t-46.5 5q-23 2 -46.5 4t-47.5 2q-48 0 -77 -17.5t-48 -58.5v1zM382 282q-18 -13 -48 -33t-63 -45q-21 -15 -41 -32t-37 -35q-22 -22 -36 -44t-14 -41q0 -16 11 -26t27 -10q49 0 88.5 47t66.5 104
q16 32 27.5 62t18.5 52v1zM834 470q12 5 23.5 11t22.5 12q14 9 29 18.5t31 20.5q39 29 58.5 51.5t19.5 39.5q0 8 -6 13.5t-15 5.5q-14 0 -30 -10.5t-33 -26.5q-13 -13 -25.5 -28.5t-24.5 -31.5q-16 -21 -29 -41.5t-21 -34.5v1z" />
    <glyph glyph-name="I" unicode="I" horiz-adv-x="664" 
d="M84 472l-23 5q38 98 111.5 147t179.5 49q45 0 89.5 -8t88.5 -17q44 -10 88.5 -18t89.5 -8q-18 -35 -30 -77t-23 -89q-7 -34 -15.5 -70t-19.5 -72q-8 -29 -19 -57t-25 -56q15 -4 32 -11t34 -15q11 -5 22.5 -11t22.5 -12l-12 -36q-23 20 -50 36t-61 27q-13 -21 -24.5 -37.5
t-22.5 -29.5q-13 -16 -26.5 -28t-29.5 -24q-38 -27 -95 -45.5t-118 -23.5q-12 -2 -25 -2.5t-25 -0.5q-85 0 -135 35.5t-50 96.5q0 65 58.5 106t152.5 41q41 0 83.5 -6.5t85.5 -19.5q9 -2 17.5 -5t17.5 -6q7 18 13 35.5t12 34.5q34 94 79 170.5t144 132.5q-21 -8 -43 -14.5
t-44 -12.5q-45 -11 -88 -17t-80 -6q-25 0 -49.5 3.5t-48.5 7.5q-25 3 -49.5 6.5t-49.5 3.5q-49 0 -85.5 -26.5t-54.5 -76.5v1zM419 211q-29 10 -70.5 15.5t-86.5 5.5q-100 0 -162 -35t-62 -91q0 -39 40.5 -66.5t98.5 -27.5q71 0 133.5 51.5t108.5 146.5v1z" />
    <glyph glyph-name="J" unicode="J" horiz-adv-x="653" 
d="M89 121l-21 -10q-23 42 -35.5 78t-17.5 70q-1 10 -1.5 19.5t-0.5 19.5q0 92 55 175t150 134q68 36 157.5 55.5t192.5 19.5q17 -1 33.5 -1.5t33.5 -1.5q16 -1 33 -2t33 -2q11 0 18.5 -2.5t7.5 -6.5q-7 -14 -13.5 -25t-12.5 -22q-8 -14 -15.5 -29t-14.5 -38l-54 -166
q-16 -48 -33 -95.5t-34 -94.5q39 11 78.5 20t79.5 13l-13 -37l-26 1q-37 -1 -68.5 -4.5t-57.5 -11.5q-26 -61 -53.5 -106.5t-61.5 -80.5q-31 -33 -71.5 -61.5t-83.5 -48.5q-37 -18 -72.5 -28t-64.5 -10q-34 0 -56 21t-22 54q0 68 56.5 111.5t124.5 72.5q36 15 70 27.5
t60 22.5q0 1 0.5 2.5t0.5 2.5q1 1 1.5 3t0.5 3q5 14 11 32t19 55l37 104q5 12 10 26t11 27q34 81 87.5 153t142.5 98q-21 1 -36.5 2t-29.5 1h-10h-10q-143 0 -241.5 -39t-175.5 -125q-63 -70 -94 -138t-31 -136q0 -28 5.5 -50.5t16.5 -43.5q2 -2 3 -4l2 -4v1zM362 133
q-21 -11 -55.5 -29t-71.5 -41q-37 -24 -72 -51t-56 -56q-11 -15 -17.5 -30t-6.5 -29q0 -17 12.5 -27t31.5 -10q58 0 106 51t81 112q16 29 28 57.5t20 51.5v1z" />
    <glyph glyph-name="K" unicode="K" horiz-adv-x="982" 
d="M91 489l-23 12q50 82 128 133t178 51q32 0 62.5 -3.5t58.5 -10.5l112 -27q13 -4 25.5 -5.5t24.5 -1.5q8 0 15.5 1.5t15.5 3.5q3 1 6 1.5t6 1.5q2 0 4 -1t2 -3l-2 -4q-24 -45 -37 -89.5t-25 -89.5q-7 -29 -14.5 -58.5t-18.5 -58.5q38 23 73.5 70.5t67.5 99.5
q22 35 42.5 69t40.5 60l165 24q-10 -18 -20.5 -36t-22.5 -36q-62 -97 -152.5 -181t-203.5 -100q-3 -9 -5.5 -15t-4.5 -11q0 -1 -0.5 -2t-0.5 -2q-2 -5 -4.5 -11t-6.5 -14q58 -12 97.5 -43.5t70.5 -66.5q11 -13 21 -25t21 -23q26 -29 54 -49t66 -20q8 0 15 0.5t13 2.5
q11 3 22.5 9t28.5 17l7 -15q-22 -15 -43 -26t-42 -18q-28 -10 -56.5 -15t-58.5 -5q-68 0 -114 21.5t-88 79.5q-14 20 -28.5 44t-29.5 53q-53 -60 -131.5 -109.5t-162.5 -69.5q-22 -5 -44.5 -8t-44.5 -3q-64 0 -115.5 23t-83.5 67l16 16q38 -38 91.5 -58t113.5 -20
q95 0 153.5 55.5t91.5 178.5l-46 31l60 15q28 111 74 190.5t156 128.5l-4 4q-53 -22 -107.5 -39.5t-113.5 -17.5q-35 0 -69.5 4.5t-68.5 10.5q-4 0 -7.5 0.5t-6.5 1.5q-19 3 -38 5.5t-38 4.5q-40 0 -69.5 -25t-47.5 -75v1z" />
    <glyph glyph-name="L" unicode="L" horiz-adv-x="716" 
d="M416 239l-11 22q36 4 64 17t54 36q6 5 12.5 11t12.5 13q24 26 45 57t37 63q16 34 25.5 66.5t9.5 59.5q0 31 -16.5 49.5t-45.5 18.5q-6 0 -12.5 -1t-13.5 -3q-13 -5 -26 -12.5t-23 -18.5q-35 -37 -50.5 -82t-27.5 -94q-7 -27 -14 -55.5t-18 -56.5q-15 -39 -38.5 -77.5
t-62.5 -74.5q55 -8 108.5 -23.5t105.5 -34.5q9 -3 19 -7.5t20 -8.5q9 -4 17.5 -7.5t17.5 -6.5q16 -5 30.5 -8.5t28.5 -3.5h4h4q11 1 23.5 5.5t30.5 13.5l9 -14q-54 -44 -105 -68t-92 -24q-31 0 -74.5 7t-89.5 19q-22 5 -44 11t-43 13q-22 7 -42.5 13.5t-36.5 12.5
q-34 -25 -64 -41.5t-59 -24.5q-17 -4 -33.5 -6t-33.5 -2q-37 0 -58.5 16t-21.5 44q0 57 71 97.5t171 40.5l56 -2q4 20 7 40l6 40q13 83 34.5 158t88.5 142q34 34 72 58t77 36q18 5 36 8t36 3q62 0 96 -35.5t34 -100.5v-6v-6q-7 -93 -94.5 -175.5t-212.5 -111.5v1zM178 70
q-19 3 -42.5 5.5t-47.5 3.5q-9 1 -18 1h-17q-49 0 -72 -8.5t-23 -25.5q0 -13 14.5 -19.5t44.5 -6.5q50 0 89 12t72 37v1z" />
    <glyph glyph-name="M" unicode="M" horiz-adv-x="929" 
d="M945 71l5 -19q-52 -30 -109.5 -49t-118.5 -19q-66 0 -102.5 23.5t-36.5 66.5q0 22 11 59.5t39 110.5q41 107 90.5 208t121.5 191q-31 -10 -66.5 -47t-71.5 -89q-27 -40 -54 -86t-53 -93q-43 -81 -78 -156.5t-53 -118.5l-176 -55l235 627l4 17q0 4 -3.5 8t-8.5 4
q-10 0 -21.5 -10.5t-23.5 -26.5q-9 -13 -17.5 -28t-16.5 -30q-11 -21 -20.5 -40t-15.5 -33l-70 -157q-12 -29 -30 -64.5t-41 -72.5q-46 -75 -108.5 -137.5t-135.5 -62.5q-22 0 -43 6.5t-41 19.5q-12 8 -18.5 24.5t-10.5 34.5q-2 13 -3.5 25t-2.5 21q0 5 2 8.5t5 3.5t5 -1.5
t4 -4.5q1 -2 2 -4.5t3 -5.5q13 -29 36.5 -53.5t48.5 -36.5q10 -4 19.5 -6.5t18.5 -2.5q13 0 24.5 4t22.5 13q19 17 40 54.5t51 105.5l49 111l31.5 67.5t38.5 77.5q46 83 110 153t148 70q45 0 72.5 -23.5t27.5 -61.5q0 -6 -1 -12.5t-2 -13.5q-1 -4 -2 -8.5t-3 -8.5l-150 -376
l3 -1q20 38 48 99t63 127q55 103 125.5 189t150.5 86q26 0 41.5 -11.5t15.5 -31.5l-4 -18l-106 -251q-8 -21 -21.5 -53t-28.5 -69q-4 -9 -7 -17.5t-7 -17.5q-18 -47 -31.5 -90.5t-13.5 -67.5q0 -16 13 -25.5t32 -9.5q29 0 73 16t97 44v1z" />
    <glyph glyph-name="N" unicode="N" horiz-adv-x="983" 
d="M77 132l-18 -10q-18 32 -27.5 55.5t-14.5 45.5q-2 12 -3 25t-1 27q0 135 111 250.5t245 142.5q15 3 31 4.5t31 1.5q84 0 130.5 -39t64.5 -125q41 32 86 57.5t100 48.5q7 3 13.5 5.5t13.5 5.5q50 19 95.5 32t65.5 13q9 0 14 -2.5t5 -7.5q0 -4 -3 -10.5t-10 -17.5
q-18 -28 -40.5 -70t-45.5 -92q-14 -29 -27.5 -60.5t-26.5 -62.5q-31 -77 -52 -148.5t-21 -118.5q0 -34 18.5 -52t52.5 -18h6h6q25 2 51.5 12.5t65.5 32.5l5 -21q-2 -2 -3.5 -2.5t-2.5 -1.5q-9 -4 -17.5 -7.5t-17.5 -7.5q-30 -13 -61.5 -21.5t-65.5 -8.5q-80 0 -129.5 47
t-49.5 129q0 143 92.5 262t204.5 195q2 2 4.5 3t4.5 3q2 1 4.5 2.5t4.5 2.5q7 5 14.5 10t13.5 11l-6 3l-10 -2q-93 -34 -181 -73t-170 -96l1 -24q0 -35 -6.5 -74t-18.5 -79q-16 -52 -39 -102.5t-51 -88.5q-23 -32 -50.5 -58t-55.5 -43q-23 -14 -45.5 -21t-42.5 -7
q-30 0 -47 20.5t-17 57.5q0 20 3.5 40t10.5 40q20 61 62 120.5t89 108.5q17 18 33.5 34t32.5 30q2 7 4.5 14.5t3.5 15.5q8 31 12.5 61t4.5 51q0 37 -21 57t-60 20q-21 0 -42 -5t-42 -16q-42 -20 -83.5 -60t-81.5 -98l-16 -24t-16 -26q-20 -32 -38.5 -67.5t-30.5 -72.5
q-7 -22 -11.5 -44.5t-4.5 -43.5q0 -13 1.5 -24.5t4.5 -22.5q1 -5 3 -10.5t4 -11.5v1zM475 400q-39 -35 -69.5 -77.5t-58.5 -101.5q-4 -7 -7.5 -14t-6.5 -15q-22 -49 -36 -91t-14 -61q0 -8 3.5 -13t8.5 -5q14 0 36.5 39t46.5 93q7 14 13.5 29t12.5 30q26 62 46 116t25 70v1z
" />
    <glyph glyph-name="O" unicode="O" horiz-adv-x="728" 
d="M346 362l-20 -2q-2 10 -3.5 18t-1.5 16q-1 6 -1 12v12q0 110 59 185.5t144 75.5q87 0 146.5 -76t59.5 -189q0 -168 -127 -301t-296 -133q-130 0 -205 67t-75 185q0 132 88.5 243t243.5 174l8 -12q-52 -43 -92.5 -119.5t-64.5 -159.5q-15 -54 -23.5 -105.5t-8.5 -94.5
q0 -74 34 -116.5t92 -42.5q47 0 86.5 29t77.5 95q7 12 13.5 24.5t13.5 26.5q17 36 32.5 76t27.5 81q17 59 27.5 115.5t10.5 99.5q0 51 -18 81.5t-49 30.5q-53 0 -92.5 -53t-61.5 -117q-12 -36 -18.5 -69t-6.5 -58v1z" />
    <glyph glyph-name="P" unicode="P" horiz-adv-x="990" 
d="M77 154q-23 40 -35.5 74.5t-16.5 67.5q-1 8 -1.5 16.5t-0.5 16.5q0 86 52 159t148 122q68 35 153.5 52t187.5 17q29 0 61 -2t64 -6q113 -17 208 -76.5t95 -192.5q0 -21 -3.5 -42.5t-10.5 -43.5q-19 -66 -64.5 -127.5t-107.5 -104.5q-46 -32 -104 -54t-119 -30
q-19 -3 -38 -4.5t-38 -1.5q-24 0 -47.5 2.5t-46.5 4.5q-3 -8 -5.5 -16t-4.5 -16q-13 -37 -27 -57t-35 -31q-8 -5 -19.5 -9.5t-26.5 -9.5q-22 -8 -49 -15t-56 -13q6 13 10.5 24t9.5 21q1 2 2 4.5t1 5.5q4 8 7 16.5t7 18.5l34 101l44 132q6 17 12 35t11 35q34 101 77.5 187
t140.5 154q38 27 68.5 45t55.5 28l12 -9q-47 -68 -82.5 -143t-64.5 -152q-7 -18 -13.5 -36.5t-13.5 -36.5l-41 -110l-39 -110l-9 -25q14 -3 24 -3.5t19 -1.5h6h6q122 0 215 99t128 218q9 30 14 60.5t5 58.5q0 102 -64.5 156.5t-186.5 54.5q-57 0 -110 -11.5t-105 -34.5
q-32 -15 -63.5 -33.5t-63.5 -42.5q-10 -7 -20.5 -15t-20.5 -17q-54 -43 -98.5 -101.5t-44.5 -127.5q0 -12 1.5 -23.5t4.5 -22.5q4 -15 12 -31t20 -34l-20 -13v0z" />
    <glyph glyph-name="Q" unicode="Q" horiz-adv-x="694" 
d="M172 141l-14 -10q-59 50 -87.5 105t-28.5 118q0 16 2 33t6 34q13 51 41.5 99t67.5 82q49 42 115 64.5t142 22.5q116 0 195 -64t79 -187q0 -17 -2.5 -34.5t-6.5 -35.5q-15 -56 -49 -109t-82 -91l-8 -6l-8 -6q-9 -7 -18.5 -13.5t-19.5 -12.5q-15 -9 -31.5 -18t-37.5 -20
q18 -6 36 -13t36 -15q48 -21 94 -47t82 -59q2 12 3 24t1 24l28 -8q-1 -5 -1.5 -9.5t-1.5 -8.5q-5 -29 -13 -57.5t-18 -50.5l-6 -12l-6 -12q-9 -17 -17 -28t-12 -11h-0.5h-0.5q-2 0 -5 3t-13 12q-14 12 -30 24.5t-34 24.5q-29 21 -62.5 41t-66.5 38q-39 21 -77 37.5t-70 28.5
q-46 -17 -82 -25t-69 -9h-3.5h-3.5q-34 0 -54.5 11t-20.5 30q0 38 67.5 67.5t152.5 29.5h14.5t14.5 -1q21 -1 43.5 -5.5t48.5 -11.5q7 9 14 18.5t14 20.5q27 42 52.5 95.5t46.5 108.5q19 55 31 107.5t12 93.5q0 56 -30 88t-83 32q-63 0 -110 -47t-88 -149q-4 -9 -7.5 -19
t-7.5 -19q-26 -74 -42 -142t-16 -110v-6.5v-6.5q1 -6 2 -12.5t3 -16.5v1zM242 32q-10 3 -21.5 6t-22.5 6q-21 5 -40.5 8t-34.5 3q-28 0 -47 -7.5t-19 -18.5q0 -9 22.5 -15.5t53.5 -6.5q10 0 20 1l20 2q18 3 36 8.5t33 12.5v1z" />
    <glyph glyph-name="R" unicode="R" horiz-adv-x="877" 
d="M66 103l-18 -11q-6 10 -12 21t-10 22q-15 34 -21.5 67t-6.5 65q0 86 48 164.5t134 135.5q77 50 182.5 78t217.5 28q151 0 229.5 -48.5t78.5 -142.5q0 -112 -86 -179t-189 -98q-34 -10 -68 -16.5t-64 -9.5v-2l28 1q58 -1 93.5 -23t62.5 -48l12 -12l12 -12
q20 -19 41.5 -32.5t50.5 -13.5q7 0 13 0.5t12 1.5q20 3 42 13.5t54 31.5v-20q-35 -26 -74.5 -43.5t-79.5 -25.5q-18 -4 -36.5 -6t-36.5 -2q-92 0 -146 44.5t-99 118.5q-2 2 -3.5 4.5t-2.5 4.5q-1 -4 -2.5 -8t-2.5 -8q-2 -4 -3 -8t-2 -7q-11 -35 -26.5 -65.5t-53.5 -44.5
q-10 -4 -20 -7.5t-20 -6.5q-20 -5 -39.5 -9.5t-37.5 -6.5q21 43 35 93t26 102q3 14 6.5 27t6.5 27q13 52 29.5 103t42.5 98q39 66 102.5 118t132.5 84l14 -9q-45 -68 -75 -143t-53 -151q-2 -6 -3.5 -11.5t-3.5 -10.5l-38 -112l-5 -17q66 16 115.5 43t93.5 72
q27 28 47.5 58.5t32.5 62.5q8 21 12.5 42.5t4.5 42.5q0 69 -45.5 106.5t-129.5 37.5q-202 0 -363 -136t-161 -308q0 -34 6 -59.5t19 -45.5v1z" />
    <glyph glyph-name="S" unicode="S" horiz-adv-x="563" 
d="M599 195l11 -41q-16 9 -29 16t-26 13q-9 4 -18 7.5t-19 7.5q-8 3 -17 6t-20 6q-5 -111 -86 -160.5t-178 -58.5q-13 -2 -26.5 -2.5t-26.5 -0.5q-96 0 -149.5 35t-53.5 96q0 65 47 96t104 42q19 3 38.5 4.5t36.5 1.5q38 0 68.5 -2.5t58.5 -7.5q-9 17 -20 36.5t-22 40.5
l-18 34t-17 35q-12 28 -20 55t-8 52q0 68 66.5 117.5t158.5 49.5q57 0 91.5 -22t34.5 -59q0 -49 -36 -79.5t-80 -41.5q-5 -1 -10.5 -2t-10.5 -2q29 40 43 72.5t14 62.5q0 26 -12 39.5t-35 13.5q-31 0 -55 -30.5t-24 -71.5q0 -26 8 -51t20 -50q8 -16 17 -32t18 -33
q22 -37 40.5 -76t22.5 -80q9 -3 18 -5.5t18 -4.5q21 -6 42 -12.5t41 -14.5v1zM321 237q-4 -1 -7.5 -0.5t-6.5 1.5q-15 2 -29.5 3.5t-29.5 1.5q-73 0 -125.5 -42.5t-52.5 -101.5q0 -42 28.5 -69t72.5 -27q65 0 113 52t48 120q0 6 -0.5 11.5t-0.5 10.5l-4 18t-6 21v1z" />
    <glyph glyph-name="T" unicode="T" horiz-adv-x="764" 
d="M438 215l-8 -20q-9 3 -18 6.5t-18 5.5q-15 4 -30.5 6t-31.5 2q-74 0 -127 -38t-53 -92q0 -37 32.5 -60.5t81.5 -23.5h4h4q36 2 69.5 16.5t57.5 38.5q39 38 58.5 85t34.5 97q3 10 6.5 20t6.5 20q23 72 66.5 139t150.5 114l11 -11q-14 -28 -23.5 -62t-17.5 -72
q-6 -26 -12 -53.5t-13 -54.5q-12 -43 -30 -85t-47 -79q-47 -61 -118.5 -92.5t-147.5 -37.5q-11 -1 -21.5 -1.5t-21.5 -0.5q-72 0 -113 30t-41 82q0 62 51.5 108.5t119.5 46.5q22 0 45 -4t46 -12q12 -4 24 -8.5t23 -10.5v1zM120 215l-17 -11q-26 36 -40.5 69t-19.5 65
q-2 9 -2.5 17.5t-0.5 17.5q0 14 2 29t6 30q13 49 45.5 95.5t78.5 78.5q51 37 120.5 54.5t160.5 17.5q50 0 99 -3l98 -6q49 -4 98.5 -7t98.5 -3q13 0 18.5 -2.5t5.5 -7.5q0 -3 -1 -8t-3 -10l-2 -4l-2 -4q-4 -10 -6.5 -19.5t-5.5 -17.5q-6 -20 -14 -33t-27 -13q-36 0 -72 2
l-72 4l-134 10q-7 0 -14.5 0.5t-14.5 0.5q-15 1 -29.5 2t-29.5 2l-44 2t-44 1q-142 0 -215 -48.5t-73 -143.5q0 -8 0.5 -16t1.5 -16q4 -29 16 -59t34 -67v1z" />
    <glyph glyph-name="U" unicode="U" horiz-adv-x="984" 
d="M119 99l-15 -11q-49 55 -73.5 105t-24.5 95q0 24 6 49t18 50q20 46 57.5 90.5t87.5 80.5q68 50 138.5 78.5t142.5 34.5q10 1 20.5 1.5t20.5 0.5q71 0 108 -22t37 -66q0 -10 -2.5 -22.5t-6.5 -25.5l-6 -14l-6 -14l-224 -449q-6 -13 -9.5 -23.5t-3.5 -16.5q0 -7 4.5 -11.5
t11.5 -4.5q34 0 89 63.5t114 152.5q17 26 34 53t34 55q60 99 107 187t62 121l186 25l-242 -555q-8 -20 -12 -33.5t-4 -24.5q0 -19 13 -29.5t37 -10.5q35 0 68.5 11t65.5 24q11 5 22 9.5t22 8.5v-18q-40 -21 -85.5 -37t-91.5 -19q-5 -1 -9.5 -1h-9.5q-72 0 -117 32t-45 84
q0 14 4 35.5t11 43.5q5 16 10.5 31t11.5 28l171 368l-4 2q-48 -97 -99.5 -192t-107.5 -187q-13 -20 -28.5 -46t-33.5 -52q-37 -56 -85.5 -101.5t-106.5 -45.5q-50 0 -81 33t-31 87q0 21 6.5 44t18.5 48l202 391q6 10 9 18.5t3 15.5q0 14 -11 21t-31 7q-31 0 -66 -12t-71 -34
q-66 -38 -126.5 -100t-97.5 -129q-20 -35 -31.5 -70t-11.5 -66q0 -15 1.5 -28t5.5 -26q6 -20 18 -40.5t32 -47.5v1z" />
    <glyph glyph-name="V" unicode="V" horiz-adv-x="947" 
d="M118 130l-12 -14q-49 40 -71.5 83t-22.5 98q0 161 122 244t268 112q52 11 102.5 15.5t95.5 4.5h10h11q18 -1 34.5 -2t22.5 -2q9 -1 13 -4.5t4 -8.5v-1.5v-1.5q-1 -4 -4 -8t-9 -10q-8 -9 -16 -18.5t-16 -19.5q-35 -47 -69.5 -109t-61.5 -126q-31 -73 -50.5 -142
t-19.5 -116q0 -49 21.5 -76t61.5 -27q89 0 153 91t100 200q21 64 32 124.5t11 102.5q0 35 -5.5 64.5t-16.5 51.5q-5 12 -7 16.5t-2 6.5q0 5 11 8.5t32 3.5q65 0 100.5 -42.5t35.5 -119.5q0 -28 -4 -57.5t-11 -58.5q-39 -153 -160 -279t-278 -126q-98 0 -160.5 54t-62.5 139
q0 115 81 218t178 176q25 18 49 34t47 30q6 4 9 6.5t3 4.5t-2.5 3t-6.5 1q-22 0 -44.5 -1.5t-45.5 -3.5q-89 -10 -176 -41t-160 -83q-47 -33 -83.5 -69.5t-59.5 -73.5q-20 -31 -30 -61.5t-10 -58.5q0 -40 18.5 -75t50.5 -57v1z" />
    <glyph glyph-name="W" unicode="W" horiz-adv-x="1049" 
d="M75 468l-22 3q32 97 114.5 149t182.5 52q36 0 72 -5.5t72 -11.5q35 -7 71 -12.5t72 -5.5l23 2l-1 -18l-16 1q-54 -1 -82.5 -39t-44.5 -84q-5 -13 -9.5 -27t-8.5 -26q-20 -70 -43 -140.5t-50 -138.5q-5 -13 -11.5 -27.5t-13.5 -28.5l-2 -4l-2 -4q-10 -21 -19.5 -41
t-15.5 -37q0 -3 2 -5t5 -2q5 0 15 13.5t20 31.5q2 4 4.5 8t4.5 9q12 22 21.5 41t9.5 20l60 126q13 27 28 56.5t32 58.5q35 63 75 123.5t82 112.5q16 20 28 30t23 12q2 1 4.5 1h4.5q12 0 20.5 -8.5t8.5 -20.5q0 -10 -17 -58t-37 -116q-14 -47 -26.5 -100t-20.5 -107
q-3 -25 -5 -50.5t-2 -50.5q0 -65 9.5 -96t30.5 -31q22 0 52.5 42.5t63.5 118.5q45 104 67.5 188.5t22.5 154.5q0 38 -10.5 67t-33.5 57q0 1 2.5 3.5t7.5 4.5q8 4 19.5 7t26.5 3q57 0 97.5 -50t40.5 -121q0 -31 -5.5 -63.5t-15.5 -65.5q-19 -60 -54 -118.5t-84 -111.5
q-12 -13 -24.5 -25.5t-24.5 -23.5q-56 -50 -110 -76.5t-101 -26.5q-60 0 -96.5 38.5t-36.5 102.5q0 26 4 52t11 52q20 72 59.5 142t82.5 134q19 28 37 54t35 50q4 5 6 9t2 7v1.5v0.5q-1 3 -3 5t-5 2q-13 0 -44 -42t-65 -98q-6 -10 -12 -19.5t-12 -19.5q-25 -42 -46.5 -81.5
t-33.5 -65.5l-53 -108q-57 -118 -95.5 -166.5t-73.5 -48.5q-32 0 -48 30t-16 89q0 28 3.5 58t9.5 61q14 67 40 129.5t59 105.5q35 46 87 82.5t126 68.5l-2 4q-8 -4 -15.5 -6.5t-15.5 -5.5q-51 -19 -102.5 -34.5t-106.5 -15.5q-19 1 -37.5 2t-36.5 3q-19 1 -37.5 2.5
t-37.5 2.5q-43 0 -71 -23.5t-43 -73.5v1z" />
    <glyph glyph-name="X" unicode="X" horiz-adv-x="970" 
d="M985 661l-28 -35q-5 12 -14 18t-24 6q-26 0 -64 -29.5t-78 -70.5q-12 -13 -25 -27t-25 -28q-35 -39 -64 -75.5t-46 -57.5l-3 -10h124l-39 -45h-98l-36 -143q-5 -22 -7.5 -42.5t-2.5 -39.5q0 -35 22 -56t59 -21q76 0 140.5 65t94.5 143q10 25 15 49.5t5 46.5
q0 14 -1.5 26.5t-5.5 22.5t-5 13.5t-1 5.5q0 5 2.5 6.5t7.5 1.5q28 0 48 -30t20 -71q0 -120 -105 -210.5t-243 -90.5q-91 0 -148.5 41.5t-57.5 105.5v6v6l2 14t4 17l-32.5 -32.5t-36.5 -34.5q-44 -41 -95 -76t-103 -42q-6 -1 -11.5 -1.5t-11.5 -0.5q-5 0 -13.5 1.5
t-17.5 3.5q-14 4 -25.5 11.5t-11.5 18.5q2 6 7 17.5t12 25.5l4 8t4 7q7 13 13.5 22t10.5 9q11 0 14.5 -11.5t5.5 -26.5q0 -2 0.5 -4t1.5 -4q2 -17 8.5 -31.5t24.5 -14.5q10 0 24 8.5t29 21.5q6 6 12.5 12t12.5 12q13 14 24 26.5t17 19.5l78 89l68 77q1 1 2.5 2t2.5 3
q3 4 5.5 8.5t4.5 10.5l-132 1l39 46l108 -1l61 186q5 13 7.5 26t2.5 24q0 29 -20.5 45t-58.5 16q-26 0 -53.5 -7.5t-55.5 -21.5q-70 -34 -134 -98t-97 -134q-14 -27 -21 -54t-7 -52q0 -10 1 -18t3 -15q1 -5 3 -9.5t4 -9.5l-15 -10q-8 9 -15 19t-13 20q-10 20 -15 40.5
t-5 42.5q0 50 26 100t75 96q69 65 158 98.5t189 33.5q96 0 147.5 -29.5t51.5 -85.5v-3.5v-2.5q-1 -10 -3 -20.5t-7 -26.5q12 14 28 29.5t35 32.5q24 20 50.5 40t54.5 36q27 15 53.5 24.5t50.5 9.5q7 0 13 -0.5t12 -2.5t13 -5t15 -8v1z" />
    <glyph glyph-name="Y" unicode="Y" horiz-adv-x="993" 
d="M165 149l-15 -13q-55 58 -83 116.5t-28 118.5q0 115 91.5 189t200.5 102q34 9 67 13.5t63 4.5q71 0 106 -25t35 -75q0 -11 -2 -24t-6 -26q-2 -6 -4.5 -12.5t-5.5 -12.5l-204 -447l-2 -6t-2 -5q-1 -4 -1.5 -8t-0.5 -7q0 -6 4.5 -11t11.5 -5q11 0 28 11t40 33
q74 69 145 165t133 197q35 58 65.5 114.5t56.5 108.5l177 28l-196 -531q-1 -3 -2 -5.5t-2 -4.5v-0.5v-0.5q-1 -4 -3 -8.5t-5 -10.5q16 3 31 6t30 5q26 4 53.5 6.5t64.5 4.5l-20 -32q-28 -1 -56 -2.5t-56 -4.5q-14 -1 -28 -3l-28 -4q-26 -58 -56 -99t-67 -70
q-26 -21 -55.5 -39.5t-59.5 -32.5q-41 -21 -81 -32.5t-70 -11.5t-50 16t-20 42q0 52 51 91.5t112 66.5q36 16 70.5 28.5t57.5 20.5l4 14l49 134l60 160q6 18 18.5 49.5t26.5 65.5q1 2 2 4.5t2 4.5q13 29 24 55t19 44l-4 2q-22 -48 -59 -122t-84 -153q-66 -111 -146.5 -207.5
t-164.5 -117.5q-10 -2 -19.5 -3t-18.5 -1q-45 0 -74.5 29t-29.5 73q0 23 8 54t24 66l172 379l2.5 5t2.5 6l2 10t1 9q0 16 -9.5 24t-28.5 8q-33 0 -78.5 -20.5t-95.5 -57.5q-80 -61 -122 -128.5t-42 -138.5q0 -15 2 -28.5t6 -27.5q8 -26 24 -53t42 -58v1zM644 48
q-54 -21 -101 -48t-84 -61q-31 -28 -46.5 -51.5t-15.5 -40.5q0 -12 9 -20t22 -8q18 0 39 9.5t42 25.5q40 31 77 83t58 110v1z" />
    <glyph glyph-name="Z" unicode="Z" horiz-adv-x="808" 
d="M780 374l-30 -45h-114q-48 -63 -101.5 -102t-115.5 -74q-16 -8 -32 -16.5t-33 -17.5l20 -1l103 -8q10 -2 20 -3l20 -2q17 -2 34.5 -3.5t34.5 -3.5q27 -2 54.5 -3.5t54.5 -1.5q47 0 78.5 4t56.5 12l4 -14q-66 -45 -120 -70t-106 -33q-16 -2 -31.5 -3.5t-31.5 -1.5
q-24 0 -53.5 2.5t-60.5 5.5l-54 8t-50 9l-102 25l-17 4q-51 -26 -99.5 -40t-86.5 -14q-31 0 -51 12t-20 32q0 37 39 57t86 29q32 6 62 8.5t47 2.5l103 -3h13q32 31 57 67.5t49 74.5q3 4 6 8.5t6 9.5q6 10 12.5 19.5t12.5 19.5l-71 1l31 44h69q57 71 122 120.5t147 89.5
q-53 -13 -96.5 -20.5t-75.5 -7.5q-37 0 -73 7.5t-71 16.5q-34 8 -66.5 15.5t-62.5 7.5q-61 0 -102.5 -55.5t-62.5 -122.5q-10 -33 -15 -64.5t-5 -56.5q0 -40 19 -66t47 -26q48 0 83 51t55 112q13 39 19.5 75.5t6.5 59.5q-1 8 -1.5 15.5t-0.5 14.5q0 5 1.5 7.5t3.5 2.5
t4.5 -2t5.5 -5q1 -1 2.5 -3t2.5 -4q11 -17 16.5 -36t5.5 -40t-5.5 -46t-15.5 -50q-25 -64 -74.5 -116.5t-109.5 -52.5q-48 0 -80.5 39.5t-32.5 97.5v8.5t1 8.5q8 110 100.5 205.5t201.5 117.5q14 3 27 4.5t26 1.5q46 0 88.5 -10.5t80.5 -22.5q39 -13 74.5 -23.5t67.5 -10.5
q11 0 21.5 2t20.5 5q2 0 3.5 0.5t3.5 1.5q6 2 12 3.5t12 2.5q3 0 4.5 -1t1.5 -3q0 -3 -2 -7.5t-7 -11.5q-18 -25 -32.5 -51.5t-29.5 -53.5q-16 -31 -33 -62t-40 -58l114 1v0zM175 46q-18 4 -37 7.5t-38 5.5l-28 2t-28 1q-37 0 -55.5 -7t-18.5 -22q0 -12 15 -18.5t40 -6.5
q9 0 18 0.5t18 1.5q26 3 53 11.5t61 23.5v1z" />
    <glyph glyph-name="bracketleft" unicode="[" horiz-adv-x="365" 
d="M221 666h249l-8 -23h-98l-282 -797h96l-8 -23h-245l296 843v0z" />
    <glyph glyph-name="backslash" unicode="\" horiz-adv-x="390" 
d="M133 666l250 -843h-59l-251 843h60v0z" />
    <glyph glyph-name="bracketright" unicode="]" horiz-adv-x="365" 
d="M117 -177h-249l8 23h98l282 797h-96l8 23h245l-296 -843v0z" />
    <glyph glyph-name="asciicircum" unicode="^" horiz-adv-x="500" 
d="M549 276h-71l-145 233l-160 -233h-188l292 424h9l263 -424v0z" />
    <glyph glyph-name="underscore" unicode="_" horiz-adv-x="500" 
d="M5 -93h491v-84h-491v84v0z" />
    <glyph glyph-name="grave" unicode="`" horiz-adv-x="500" 
d="M295 614q4 -20 8 -35t11 -28q7 -16 17.5 -33t26.5 -40h-56q-42 31 -83 63.5t-77 71.5l153 1v0z" />
    <glyph glyph-name="a" unicode="a" horiz-adv-x="562" 
d="M510 388l-109 -291q-5 -14 -7 -21.5t-2 -13.5q0 -16 11.5 -26t28.5 -10q15 0 37 6.5t45 17.5q13 6 25.5 13.5t24.5 15.5l8 -11q-28 -23 -60.5 -39t-66.5 -25q-19 -4 -37 -6.5t-36 -2.5q-41 0 -67 10t-43 34q-15 -10 -29 -17.5t-28 -12.5q-20 -8 -41 -11t-44 -3
q-49 0 -86 21t-37 78q0 23 6.5 50.5t19.5 55.5q12 27 28 52.5t34 47.5q36 43 85 66t104 23q32 0 51.5 -7t32.5 -24l152 30v0zM345 344q-10 12 -23.5 18.5t-28.5 6.5q-12 0 -22.5 -4.5t-20.5 -14.5q-11 -12 -22.5 -33.5t-26.5 -55.5q-27 -60 -43.5 -112t-16.5 -75
q0 -22 11.5 -35t30.5 -13q16 0 31 7t29 15l6 4l6 4l-3 21q0 5 1 13t3 16q2 6 3.5 11.5t3.5 10.5l82 216v0z" />
    <glyph glyph-name="b" unicode="b" horiz-adv-x="486" 
d="M337 667l-205 -589q-4 -13 -6 -20t-2 -12q0 -15 9.5 -24.5t25.5 -9.5q32 0 61 29t51 63q12 20 21.5 38t16.5 31q-17 29 -26.5 51.5t-13.5 43.5q-2 9 -3 19t-1 20q0 46 21.5 73t58.5 27q38 0 61 -28.5t23 -74.5q0 -36 -13 -74.5t-42 -87.5q17 -13 32 -21t29 -11
q6 -2 12 -2.5t12 -0.5h8t8 1q5 1 10.5 2.5t12.5 4.5l-15 -34q-15 0 -27.5 2.5t-24.5 7.5q-15 5 -30.5 14t-35.5 22q-46 -48 -87 -78t-82 -44q-17 -5 -34.5 -7.5t-35.5 -2.5q-56 0 -92.5 27t-36.5 69q0 8 1.5 18.5t4.5 21.5q1 5 2.5 9.5t2.5 8.5l171 489l158 29v0zM317 196
q13 34 19.5 65.5t6.5 60.5q0 32 -6 47t-19 15t-21 -20.5t-8 -54.5q0 -19 3 -38t9 -38q3 -10 7 -19t9 -19v1z" />
    <glyph glyph-name="c" unicode="c" horiz-adv-x="399" 
d="M401 80l8 -12q-54 -38 -111.5 -55.5t-122.5 -17.5q-15 0 -32 1t-35 3q-43 6 -78 27t-35 68q0 9 1 18.5t2 18.5q16 95 99 175t180 87h6.5h7.5q41 0 62.5 -20t21.5 -58q0 -5 -0.5 -10.5t-1.5 -11.5q-7 -47 -36.5 -87.5t-64.5 -49.5q-4 -1 -7.5 -1.5t-7.5 -0.5q-17 0 -29 12
t-12 28q0 27 20.5 46t45.5 35q4 2 8.5 5t9.5 6q19 13 33 26.5t14 30.5q0 12 -8.5 20t-20.5 8q-48 0 -86.5 -52t-61.5 -114q-14 -37 -21.5 -72t-7.5 -59q0 -29 17.5 -44.5t51.5 -15.5h5.5h4.5q39 2 81 17t100 48v1z" />
    <glyph glyph-name="d" unicode="d" horiz-adv-x="570" 
d="M578 79l8 -12q-46 -38 -94.5 -54.5t-111.5 -16.5q-46 0 -74 10t-45 32q-34 -22 -74 -32.5t-83 -10.5q-55 0 -82.5 24.5t-27.5 73.5q0 21 4 43.5t12 45.5q29 79 97 144.5t154 65.5q23 0 42 -4.5t36 -15.5q3 -2 6.5 -4.5t6.5 -4.5l97 275l159 29l-203 -577q-4 -11 -5.5 -18
t-1.5 -13q0 -18 12.5 -27.5t34.5 -9.5q27 0 61 14t72 42v1zM345 340q-10 17 -24.5 25.5t-32.5 8.5q-12 0 -22.5 -5t-20.5 -16q-15 -16 -31 -48t-36 -85q-24 -63 -32 -92t-9 -51v-2v-2q0 -22 13 -35t35 -13q7 0 14 1t14 4q11 4 21.5 10.5t21.5 16.5l-2 18v0.5v1.5q0 5 2 11.5
t6 18.5l83 233v0z" />
    <glyph glyph-name="e" unicode="e" horiz-adv-x="403" 
d="M404 80l8 -14q-19 -13 -37 -23t-36 -18q-43 -18 -87.5 -25.5t-99.5 -7.5q-11 0 -23.5 0.5t-24.5 1.5q-41 5 -75 24t-34 68q0 23 7 54t21 70q30 81 89.5 131t149.5 50q46 0 70 -17.5t24 -52.5q0 -4 -0.5 -7.5t-0.5 -7.5q-7 -52 -62.5 -100.5t-145.5 -82.5q-2 -12 -3 -19.5
t-1 -14.5v-2.5v-2.5q0 -32 20.5 -50.5t56.5 -18.5q41 0 88 16.5t96 47.5v1zM152 144q12 9 28.5 25.5t34.5 37.5q11 12 21 25.5t20 26.5q19 27 31.5 53t12.5 44q0 10 -6.5 16.5t-15.5 6.5q-3 0 -5.5 -0.5t-4.5 -1.5q-22 -9 -42.5 -45t-37.5 -78q-13 -33 -22.5 -63.5
t-13.5 -47.5v1z" />
    <glyph glyph-name="f" unicode="f" horiz-adv-x="398" 
d="M400 81l7 -14q-49 -31 -104 -43.5t-112 -12.5l-27 -91q-1 -4 -2 -9.5t-2 -11.5q0 -3 -0.5 -6t-1.5 -7q-2 -14 -7 -26.5t-17 -15.5q-10 -1 -20.5 -2t-20.5 -2q-11 -1 -21 -2t-21 -2h-5.5h-5.5q-11 1 -20 5t-9 18q2 7 3 13.5t3 13.5q1 7 2.5 13.5t2.5 13.5l31 114
q-35 11 -47.5 29t-12.5 54q0 13 3 36.5t7 49.5q9 37 24.5 67.5t39.5 30.5q21 0 28.5 -15t9.5 -32q1 -5 1.5 -9.5t0.5 -9.5q1 -1 1 -2.5v-3.5q3 9 5.5 18t4.5 18q2 5 3.5 10t2.5 9q16 56 34.5 110.5t44.5 106.5q8 15 19.5 35t26.5 40q24 33 54 62.5t61 41.5q7 3 15 4.5
t15 1.5q26 0 39 -22t13 -67q0 -25 -5 -54.5t-14 -59.5q-5 -15 -10.5 -30t-11.5 -30q-26 -57 -65.5 -103t-82.5 -89l-4.5 -4.5l-4.5 -4.5l-52 -185q46 -1 88 9t83 27q8 3 16.5 6.5t16.5 7.5v1zM59 43l31 121q1 1 1.5 3t0.5 4q4 14 6 26.5t2 18.5q0 9 -3.5 14t-9.5 5
q-11 0 -21.5 -25.5t-17.5 -55.5q-5 -21 -8 -40.5t-3 -30.5q0 -16 4.5 -24.5t17.5 -16.5v1zM259 255q43 52 73.5 112.5t56.5 144.5q14 47 20.5 75.5t6.5 47.5q0 11 -4.5 18t-10.5 7q-2 0 -5 -2t-6 -5q-4 -4 -7 -9.5t-6 -12.5q-15 -35 -26.5 -71.5t-22.5 -73.5
q-1 -5 -2.5 -9.5t-2.5 -9.5q-4 -14 -8 -27.5t-8 -27.5l-48 -157v0z" />
    <glyph glyph-name="g" unicode="g" horiz-adv-x="562" 
d="M512 385l-140 -386q40 9 88 30.5t104 55.5l8 -13q-11 -8 -21 -14.5t-20 -12.5q-13 -9 -27.5 -16.5t-30.5 -15.5q-22 -10 -49.5 -20.5t-62.5 -23.5q-4 -11 -8.5 -20.5t-8.5 -16.5q-5 -11 -11 -19t-12 -15q-17 -19 -45.5 -35.5t-59.5 -27.5q-17 -5 -34 -8.5t-32 -3.5
q-35 0 -56 14.5t-21 39.5q0 34 37 58.5t105 34.5l19 55q-22 -13 -49.5 -19t-59.5 -6q-61 0 -94.5 24.5t-33.5 69.5q0 18 2.5 36.5t7.5 37.5q25 85 96 156t164 71q33 0 56.5 -8.5t43.5 -27.5l145 26v0zM209 -47q-50 -9 -82.5 -32t-32.5 -50q0 -12 9 -20t22 -8q27 0 47.5 26
t36.5 84v0zM348 347q-9 14 -21.5 21.5t-29.5 7.5q-15 0 -27.5 -6.5t-25.5 -21.5q-17 -21 -35.5 -62t-42.5 -107q-19 -52 -24.5 -75.5t-5.5 -40.5q0 -19 11.5 -31.5t29.5 -12.5q4 0 8 0.5t8 1.5q12 3 24.5 11.5t27.5 22.5l103 292v0z" />
    <glyph glyph-name="h" unicode="h" horiz-adv-x="587" 
d="M345 668l-238 -641l-2 -8l2 -3q1 -1 3 1t5 6q3 5 12.5 23t22.5 46q12 25 28.5 56t37.5 63q42 67 98.5 122t120.5 55q35 0 54.5 -15t19.5 -42q0 -10 -2 -21t-5 -23q-1 -4 -2.5 -8.5t-3.5 -9.5l-70 -168q-5 -14 -8 -27t-3 -24q0 -16 9 -24t26 -8q30 0 56.5 12.5t52.5 28.5
q7 4 14.5 8.5t14.5 8.5l8 -10q-43 -34 -92.5 -54t-104.5 -20q-54 0 -87.5 22.5t-33.5 59.5q0 9 2 20.5t5 23.5q2 7 4.5 13.5t4.5 12.5l82 203l0.5 1.5t1.5 2.5q0 1 0.5 2.5t0.5 2.5l-3 4q-5 -1 -21.5 -17.5t-39.5 -42.5q-49 -57 -90.5 -121t-79.5 -130q-2 -5 -5 -10l-6 -10
q-2 -4 -4 -7.5t-4 -6.5q-11 -15 -24.5 -19.5t-43.5 -4.5q-34 0 -55 19t-21 50q0 11 3 24t8 27l192 524l160 33v0z" />
    <glyph glyph-name="i" unicode="i" horiz-adv-x="303" 
d="M253 393l-108 -301q-3 -11 -5 -20.5t-2 -18.5q0 -16 10 -25t29 -9q27 0 51.5 12.5t46.5 28.5q8 5 15.5 10t15.5 10l9 -9q-45 -40 -91.5 -57.5t-100.5 -17.5q-60 0 -94 18.5t-34 52.5q0 8 2 17.5t4 19.5q0 2 0.5 4t1.5 4l90 248l160 33v0zM230 620q35 -1 59.5 -25.5
t24.5 -59.5q0 -34 -24.5 -58.5t-59.5 -24.5q-34 0 -58.5 24.5t-24.5 58.5q0 35 24.5 59.5t58.5 24.5v1z" />
    <glyph glyph-name="j" unicode="j" horiz-adv-x="389" 
d="M336 393l-85 -245q2 -1 4 -1.5t4 -0.5q3 -1 5.5 -1.5t5.5 -1.5q34 -6 66.5 -15.5t62.5 -27.5l-13 -26q-36 22 -71.5 36t-70.5 19l-100 -290q-4 -12 -14 -18t-26 -6q-19 0 -31.5 8.5t-20.5 26.5q-4 9 -8 19.5t-8 22.5q-5 15 -10.5 32t-10.5 35q-8 29 -12.5 56t-4.5 48
q0 39 28 58.5t61 25.5q5 1 9 2t8 1l64 186q-52 -12 -90.5 -53.5t-46.5 -96.5l-18 3q3 46 16.5 74t42.5 49q26 17 64 31t79 25q33 8 64.5 14t56.5 10v1zM98 135q-35 -8 -52.5 -33t-17.5 -68q0 -10 0.5 -20t2.5 -20q3 -30 11 -60.5t16 -59.5q2 -6 4 -10t4 -7q1 -1 2 -1.5
t2 -0.5q2 0 4 2t2 5q-1 3 -1.5 6t-0.5 6l-2 10l-2 10q-3 16 -5 31.5t-2 32.5q0 31 4.5 60t12.5 58q4 14 8.5 28.5t9.5 29.5v1zM294 620q35 -1 59.5 -25t24.5 -59q0 -34 -24.5 -59t-59.5 -25q-34 0 -58.5 24.5t-24.5 59.5t24.5 59t58.5 24v1z" />
    <glyph glyph-name="k" unicode="k" horiz-adv-x="563" 
d="M342 667l-223 -630l-3 -12q0 -2 0.5 -2.5l1.5 -1.5h0.5h0.5q3 0 13 17t21 38l2 4l2 4q10 21 19 39t11 23q9 19 19.5 41.5t22.5 44.5q31 59 75.5 108.5t112.5 49.5q43 0 69 -18.5t26 -48.5q0 -62 -75.5 -110t-185.5 -56l1 -2q41 -1 67.5 -6t49.5 -20q12 -8 24.5 -19.5
t27.5 -26.5q11 -12 21 -19.5t20 -11.5q7 -3 14 -4.5t14 -1.5q5 0 9.5 0.5t9.5 1.5q10 2 22.5 8.5t31.5 19.5l9 -11q-42 -35 -86.5 -51.5t-91.5 -16.5q-61 0 -105 34.5t-79 110.5q-10 -17 -16 -29.5t-12 -23.5v0l-1 -1q-1 -2 -2.5 -4.5t-2.5 -5.5q-10 -21 -18 -35t-16 -23
q-11 -14 -24 -17.5t-33 -3.5q-42 0 -66 19.5t-24 53.5q0 12 2.5 27.5t8.5 31.5l178 505l158 31v0zM220 162q38 16 70.5 41t53.5 53q13 17 20.5 33.5t7.5 31.5q0 11 -6 18.5t-16 7.5q-17 0 -43.5 -33t-54.5 -87q-8 -15 -16 -31.5t-16 -34.5v1z" />
    <glyph glyph-name="l" unicode="l" horiz-adv-x="307" 
d="M344 667l-201 -577q-3 -11 -5 -19.5t-2 -14.5q0 -16 11 -26t28 -10q23 0 56.5 14t73.5 40l9 -11q-39 -29 -81.5 -46t-85.5 -23q-9 -1 -18.5 -1.5t-19.5 -0.5q-54 0 -83 19.5t-29 56.5q0 9 1.5 21t5.5 25q1 3 2 6.5t2 6.5l176 505l160 35v0z" />
    <glyph glyph-name="m" unicode="m" horiz-adv-x="849" 
d="M243 389l-130 -359q-1 -4 -2 -7l-2 -6q0 -1 1 -2.5t2 -1.5q2 0 3.5 1.5t3.5 4.5q15 30 34 73.5t42 89.5q40 79 94 144t127 65q35 0 56 -17.5t21 -47.5q0 -10 -2 -21t-7 -22l-101 -253q-1 -3 -1.5 -5.5t-1.5 -5.5q0 -2 1.5 -3.5t2.5 -1.5t2.5 1t2.5 2q1 2 2.5 4t2.5 4
l50 108q10 20 22 44.5t26 49.5q36 62 87.5 113.5t118.5 51.5q34 0 54.5 -16.5t20.5 -43.5q0 -8 -1.5 -16.5t-5.5 -17.5l-83 -211q-1 -3 -1.5 -5t-0.5 -4q-1 -4 -1.5 -8t-0.5 -8q0 -18 9.5 -27t27.5 -9q22 0 57.5 15t76.5 42l9 -11q-51 -38 -101 -55.5t-100 -17.5
q-54 0 -86.5 21.5t-32.5 58.5q0 10 2.5 22t6.5 24l2 6l2 6l88 218l2 7q0 1 -1 2t-3 1l-8 -3q-1 -2 -1 -2.5t-1 -0.5q0 -1 -0.5 -1h-0.5q-2 -2 -5.5 -5t-11.5 -11q-40 -35 -72 -84t-60 -101q-16 -29 -31 -58t-29 -55q-5 -10 -9 -17t-8 -13q-10 -12 -21 -14.5t-32 -2.5
q-38 0 -62.5 21.5t-24.5 55.5q0 11 4 25.5t11 33.5l85 220l0.5 1l1.5 3q1 1 1.5 2t0.5 2l-4 4q-2 -1 -5.5 -3t-8.5 -7q-62 -62 -109 -138t-84 -155l-6 -12l-6 -12q-1 -1 -1.5 -2.5t-0.5 -2.5q-11 -22 -23.5 -29t-35.5 -7q-46 0 -69 17.5t-23 52.5q0 13 3 28t9 32l83 229
l159 33v0z" />
    <glyph glyph-name="n" unicode="n" horiz-adv-x="573" 
d="M244 384l-132 -353l-2 -8l2 -4q2 -1 4.5 2t5.5 8q13 30 30.5 69.5t38.5 81.5q41 79 99 145t133 66q35 0 55.5 -17.5t20.5 -47.5q0 -9 -2 -18t-5 -18l-79 -189q-5 -14 -8 -24.5t-3 -18.5q0 -16 11 -25t30 -9q28 0 53 12t49 27q7 4 14 8.5t14 8.5l9 -11q-10 -8 -19.5 -14.5
t-19.5 -12.5q-39 -23 -78 -34t-80 -11q-57 0 -88.5 22.5t-31.5 62.5q0 8 1 16.5t4 17.5q1 5 3 10.5t4 10.5l89 217l3 9q0 1 -1 1.5t-3 0.5h-1.5h-0.5q-1 0 -3 -1.5t-6 -5.5q-45 -36 -82.5 -90t-69.5 -111q-17 -31 -32.5 -61.5t-29.5 -58.5q-1 -1 -1.5 -2t-0.5 -2
q-12 -22 -25.5 -29t-38.5 -7q-43 0 -65.5 17t-22.5 50q0 11 3 24.5t9 30.5l87 236l159 29v0z" />
    <glyph glyph-name="o" unicode="o" horiz-adv-x="504" 
d="M522 159l4 -16q-12 -5 -22 -8t-18 -5q-8 -1 -16.5 -1.5t-18.5 -0.5q-13 0 -23.5 1t-20.5 3q-7 1 -14.5 3t-15.5 5q-43 -77 -98.5 -112.5t-131.5 -35.5q-77 0 -113.5 28t-36.5 86q0 13 1.5 25.5t3.5 25.5q14 62 58 119t102 87q7 4 14.5 7t14.5 6q16 6 30.5 10t23.5 4
q5 0 7.5 -2t2.5 -5q0 -2 -19 -34t-41 -79q-13 -25 -24.5 -52.5t-19.5 -56.5q-8 -24 -12.5 -48.5t-4.5 -47.5q0 -24 11 -38.5t29 -14.5q33 0 59.5 29t45.5 63q10 18 17.5 35.5t13.5 30.5q-28 34 -42.5 69.5t-14.5 74.5q0 50 21.5 79.5t56.5 29.5q41 0 65 -33.5t24 -90.5
q0 -37 -8.5 -72.5t-27.5 -70.5q8 -3 14.5 -5t12.5 -4q8 -2 16 -2.5t18 -0.5q9 0 16.5 0.5t14.5 1.5q10 1 20.5 4t25.5 8v1zM317 197q6 27 10.5 55t4.5 56q0 44 -7 67.5t-21 23.5q-13 0 -21 -17t-8 -45q0 -12 1.5 -24.5t4.5 -25.5q5 -26 14.5 -50t21.5 -41v1z" />
    <glyph glyph-name="p" unicode="p" horiz-adv-x="612" 
d="M173 365l151 30l-11 -33q19 1 32 2.5t26 2.5h6.5h7.5q67 0 104 -30.5t37 -85.5q0 -72 -48.5 -124.5t-106.5 -85.5q-4 -3 -9 -5.5l-9 -4.5q29 -14 56.5 -22t49.5 -8q34 0 70.5 19.5t82.5 61.5l11 -12q-4 -4 -7.5 -7t-6.5 -6q-38 -30 -77.5 -53t-90.5 -23q-34 0 -67.5 7
t-66.5 21q-22 -8 -43 -12.5t-41 -7.5q-11 -1 -21 -2t-21 -1l-44 -130l-160 -50l69 195q-25 7 -37.5 22t-12.5 34q0 24 17 34t38 13q9 1 17 1.5t15 0.5l71 205q-42 -29 -76 -76t-52 -102l-3 33q0 49 33.5 86.5t74.5 62.5q8 5 15.5 9.5t15.5 8.5l11 32v0zM188 2q15 -1 27.5 1
t24.5 7q8 3 16 7t16 10q-9 6 -18.5 10.5t-19.5 8.5q-7 3 -13.5 6t-12.5 6l-20 -56v0zM77 89q-19 -1 -31.5 -13t-12.5 -30q0 -11 4.5 -18.5t13.5 -13.5l26 75v0zM217 87q10 -5 20.5 -8.5t20.5 -7.5t20.5 -7.5t20.5 -7.5q15 21 27.5 43.5t22.5 45.5q16 35 24.5 68t8.5 60
q0 34 -15.5 53t-41.5 19l-20 -1l-88 -257v0z" />
    <glyph glyph-name="q" unicode="q" horiz-adv-x="563" 
d="M513 382l-166 -452q-3 -11 -7.5 -21t-8.5 -20q-1 -3 -2.5 -5.5t-2.5 -4.5q-3 -8 -6.5 -15.5t-6.5 -15.5q0 -2 1.5 -3t2.5 -1h0.5h0.5q4 1 8.5 8.5t14.5 28.5q16 32 29.5 54t26.5 36q14 16 28.5 26t31.5 19q21 12 46.5 25t60.5 37l9 -11q-15 -12 -30.5 -22.5t-31.5 -21.5
q-5 -3 -11 -6t-11 -6q-4 -2 -8 -4.5t-8 -4.5q-27 -13 -52 -31t-39 -45q0 -1 -0.5 -2t-1.5 -1q-4 -8 -7.5 -15.5t-7.5 -15.5q-13 -26 -32 -47.5t-50 -21.5q-35 0 -59 22.5t-24 56.5q0 13 3.5 27.5t8.5 29.5q2 8 5 15.5t6 14.5q3 10 7 19t7 18q-10 -6 -19.5 -10.5t-19.5 -8.5
q-19 -7 -38.5 -9.5t-42.5 -2.5q-57 0 -89 27t-32 74q0 22 6 48.5t18 53.5q12 29 29 57.5t37 50.5q39 44 84.5 65t97.5 21q36 0 59 -9t40 -31l146 30v0zM351 340q-9 16 -21 23t-29 7q-18 0 -34 -9t-27 -26q-9 -13 -20 -34t-23 -47q-6 -15 -13 -30.5t-13 -31.5
q-15 -40 -25.5 -76.5t-10.5 -58.5q0 -16 10 -26.5t25 -10.5q17 0 35 9t44 29l102 282v0z" />
    <glyph glyph-name="r" unicode="r" horiz-adv-x="383" 
d="M243 387l-128 -354l-3 -11q0 -2 1 -3.5t2 -1.5h1.5t1.5 1q4 2 9.5 14t18.5 44q17 46 40 89.5t47 78.5v1.5v1.5q3 54 37 99t75 47h1.5h1.5q17 0 29 -9t12 -23q0 -2 -0.5 -4.5t-0.5 -4.5q-3 -7 -10 -14.5t-21 -19.5q-22 -19 -43.5 -40t-42.5 -42l-1 -19q0 -37 20 -59
t54 -22q10 0 21.5 2t30.5 8l4 -22q-8 -2 -14.5 -3t-12.5 -2h-6h-6q-42 0 -74 23.5t-49 65.5l-3.5 -3.5t-2.5 -3.5q-15 -19 -32.5 -51t-50.5 -98q-3 -7 -6 -13t-5 -11q-9 -16 -20.5 -23.5t-39.5 -7.5q-39 0 -64 17.5t-25 45.5q0 11 3.5 26.5t9.5 34.5l82 234l159 32v0z" />
    <glyph glyph-name="s" unicode="s" horiz-adv-x="371" 
d="M372 79l9 -13q-4 -4 -8 -7l-8 -6q-43 -30 -85.5 -45.5t-78.5 -15.5h-8t-8 1q-16 1 -34 5t-45 14q-8 -2 -16.5 -4.5t-16.5 -4.5q-12 -3 -24.5 -6.5t-25.5 -4.5q-17 0 -25.5 13t-11.5 28q-2 7 -2.5 13t-0.5 11q0 4 0.5 7t1.5 6q4 6 11.5 13.5t23.5 19.5q15 12 29 25.5
t28 26.5q5 6 10.5 11.5l10.5 10.5q-4 15 -6 26t-3 22q-1 5 -1 10v11q0 59 35 104.5t99 45.5q23 0 35.5 -13t12.5 -37q0 -22 -11 -45t-35 -51q8 -17 15 -37t10 -39q1 -7 1.5 -13.5t0.5 -13.5q0 -42 -32 -74t-95 -52q15 -4 26 -7t22 -4q5 0 11 -0.5t12 -0.5q48 0 94 20.5
t83 48.5v1zM102 30q2 1 3.5 2.5l2.5 2.5q9 10 12 20t3 23q0 14 -4 30t-15 46q-12 -12 -24.5 -23t-25.5 -22q-1 -1 -2.5 -2t-3.5 -2q-7 -7 -14 -13l-14 -12l82 -50v0zM216 267q13 16 20 30t10 28q0 4 0.5 8t0.5 8q0 18 -7 29.5t-19 11.5q-9 0 -15 -9.5t-6 -24.5v-2.5v-3.5
q1 -16 4.5 -34t11.5 -42v1z" />
    <glyph glyph-name="t" unicode="t" horiz-adv-x="316" 
d="M144 538l159 31l-75 -213h76l-28 -40h-61l-80 -228q-4 -11 -5.5 -19t-1.5 -16q0 -16 10 -25t27 -9q14 0 28.5 3.5t30.5 8.5q16 6 32.5 14t31.5 17q7 4 14.5 8t13.5 8l8 -11q-31 -22 -63.5 -37.5t-65.5 -24.5q-22 -5 -44 -8t-43 -3q-56 0 -87.5 21t-31.5 58q0 8 2 17.5
t5 19.5q0 2 0.5 4t1.5 4l70 200h-57l28 39h42l63 181v0z" />
    <glyph glyph-name="u" unicode="u" horiz-adv-x="572" 
d="M85 358l160 29l-104 -279q-7 -19 -10 -32t-3 -22q0 -14 10 -23t26 -9q15 0 36.5 7t43.5 20q6 3 11.5 6.5t11.5 7.5l-2 15q0 8 3 19.5t10 30.5l84 228l161 30l-105 -277q-6 -17 -9 -30.5t-3 -23.5q0 -15 9.5 -24t24.5 -9q23 0 57.5 15.5t77.5 45.5l8 -11
q-34 -26 -63 -41.5t-57 -23.5q-18 -6 -36.5 -8t-38.5 -2q-43 0 -71 11.5t-45 36.5q-12 -7 -23 -13t-23 -10q-28 -12 -57 -17.5t-61 -5.5q-54 0 -85.5 21.5t-31.5 58.5q0 9 2 19.5t5 21.5q1 3 1.5 5.5t1.5 5.5l84 227v0z" />
    <glyph glyph-name="v" unicode="v" horiz-adv-x="506" 
d="M84 344l161 32l-105 -286q-5 -14 -7.5 -25t-2.5 -20q0 -17 10.5 -28t26.5 -11q35 0 65 29.5t52 64.5q11 17 19.5 33.5t15.5 29.5q-19 34 -32.5 68.5t-13.5 74.5q0 48 23 76t61 28q39 0 62 -29.5t23 -79.5q0 -36 -14.5 -77.5t-43.5 -92.5q14 -8 27 -14t27 -10q13 -4 26 -6
t27 -2h3.5h3.5q4 0 8 0.5t10 1.5l-1 -26l-20 -1q-10 -1 -20 0.5t-21 4.5q-20 5 -40 15.5t-39 25.5q-2 -3 -4.5 -5.5t-4.5 -5.5q-53 -60 -111.5 -91.5t-144.5 -31.5q-56 0 -87 21.5t-31 60.5q0 11 3.5 24.5t10.5 35.5l78 216v0zM325 181q11 25 17 47.5t10 43.5q1 13 2 25
t1 25q0 30 -7.5 47.5t-21.5 17.5q-13 0 -20.5 -21t-7.5 -56q0 -12 0.5 -22.5t2.5 -21.5q3 -19 8.5 -39.5t15.5 -46.5v1z" />
    <glyph glyph-name="w" unicode="w" horiz-adv-x="786" 
d="M87 347l162 31l-107 -285l-8 -24t-3 -16v-1.5v-1.5q0 -16 12 -27.5t30 -11.5q13 0 28.5 3.5t30.5 9.5q9 3 18 8t17 10l-3 23v1v2q0 8 3 17.5t10 27.5l86 232l160 30l-104 -278q-9 -25 -12.5 -38t-3.5 -22q0 -14 9.5 -22.5t25.5 -8.5q7 0 14 1t15 4q37 12 73 53.5
t62 104.5q-23 35 -35 71t-12 73q0 44 23 69.5t63 25.5q38 0 61 -29t23 -76q0 -41 -14.5 -84.5t-43.5 -87.5q22 -14 49 -21.5t57 -7.5l23 2l-10 -24l-19 -2q-26 -1 -53 9.5t-56 31.5q-53 -68 -116.5 -100t-143.5 -32q-45 0 -74.5 9t-46.5 28q-49 -19 -87.5 -27t-73.5 -8
q-61 0 -92 20.5t-31 60.5v5.5t1 5.5q0 8 2.5 16.5t4.5 18.5l86 231v0zM610 185q6 14 11 31.5t9 35.5q3 17 5 34.5t2 32.5q0 32 -7 48.5t-21 16.5t-22.5 -19.5t-8.5 -51.5q0 -34 8 -66t24 -63v1z" />
    <glyph glyph-name="x" unicode="x" horiz-adv-x="577" 
d="M38 286l-21 15q30 43 72.5 67t91.5 24t84 -20.5t51 -58.5q31 33 72.5 53t85.5 25q6 0 11.5 0.5t11.5 0.5q37 0 57 -15t20 -43q0 -43 -39.5 -70t-86.5 -43q-26 -8 -50 -14t-42 -9q-2 -6 -4.5 -11.5t-5.5 -11.5q-10 -24 -18.5 -49.5t-8.5 -51.5t21.5 -42.5t55.5 -16.5
q50 0 95 20t86 44l9 -12q-34 -23 -63 -37.5t-57 -22.5q-22 -7 -45 -9.5t-48 -2.5q-58 0 -92 19t-43 59q-27 -25 -52.5 -42t-50.5 -26q-15 -5 -30.5 -7.5t-30.5 -2.5q-37 0 -60.5 19t-23.5 49q0 49 39.5 76t87.5 40q22 6 43.5 10t39.5 6q22 57 29 82.5t7 44.5
q0 25 -16.5 39.5t-45.5 14.5q-37 0 -71.5 -23t-64.5 -68v1zM191 172q-13 -5 -29.5 -13t-33.5 -18q-33 -19 -60.5 -46t-27.5 -56q0 -11 8 -19t18 -8q29 0 52 27.5t40 60.5q11 21 19 39.5t14 31.5v1zM365 219q37 14 67 32.5t50 37.5q17 16 26.5 31t9.5 29q0 11 -7.5 18
t-18.5 7q-25 0 -53.5 -31t-56.5 -89q-5 -9 -9 -18l-8 -18v1z" />
    <glyph glyph-name="y" unicode="y" horiz-adv-x="560" 
d="M85 364l155 29l-101 -283l-7 -24.5t-3 -17.5q0 -13 9.5 -22.5t22.5 -9.5q11 0 25 5t29 15q10 6 19 13t18 16l99 278l155 28l-139 -389q56 14 106 37t90 52l6 -17q-29 -20 -57 -34.5t-55 -26.5q-24 -10 -47.5 -17t-48.5 -13q-10 -33 -22.5 -53.5t-33.5 -37.5
q-25 -21 -57.5 -35.5t-66.5 -19.5q-8 -2 -17 -2.5t-18 -0.5q-34 0 -56.5 14.5t-22.5 36.5q0 36 35 58t112 36l25 70q-31 -17 -57.5 -26t-51.5 -12q-9 -1 -17 -1.5t-17 -0.5q-46 0 -73.5 20.5t-27.5 54.5q0 12 4 30t11 40l75 210v0zM209 -40q-10 -2 -22 -4.5t-24 -6.5
q-26 -8 -48 -23t-22 -42q0 -13 9 -21t22 -8q27 0 42.5 20.5t26.5 44.5q4 10 7.5 19.5t7.5 17.5q0 1 0.5 1.5t0.5 1.5v0z" />
    <glyph glyph-name="z" unicode="z" horiz-adv-x="444" 
d="M446 82l8 -13q-12 -9 -24 -16.5t-24 -14.5q-33 -19 -64 -30t-49 -11t-33.5 6.5t-30.5 15.5q-16 8 -31.5 15t-33.5 7q-19 0 -32 -8.5t-24 -17.5l-3.5 -3.5l-3.5 -3.5q-9 -8 -18.5 -13.5t-22.5 -5.5q-24 0 -42 28t-18 65q0 85 68.5 134.5t150.5 84.5q27 11 53 21t50 20
q15 6 29 12.5t26 13.5q-7 -2 -12.5 -3.5t-10.5 -2.5q-6 0 -12.5 -0.5t-14.5 -0.5l-57 2q-13 -1 -29 -1.5t-32 -2.5q-35 -5 -65.5 -20.5t-38.5 -51.5q-1 -6 -2 -10t-2 -7t-2.5 -4t-3.5 -1l-4 1q-22 6 -34 20t-12 33q0 35 32 59t78 24q23 0 45 -3.5t43 -6.5q5 -1 9 -2t9 -2
q17 -3 34.5 -5t35.5 -2q13 0 25 1.5t24 4.5q10 3 13.5 4.5t5.5 1.5h1v0q4 0 5.5 -1.5t1.5 -6.5q0 -7 -1 -13.5t-3 -13.5q-8 -31 -30 -60t-47 -53q-11 -11 -22 -21t-21 -18q-13 -10 -41.5 -30t-60.5 -44q-9 -7 -18 -14.5t-18 -14.5q-30 -25 -52 -48.5t-22 -39.5q0 -1 1 -2.5
t2 -1.5q6 0 23 17t39 37q19 17 40.5 31.5t43.5 19.5q4 2 9 2.5t10 0.5q21 0 37 -10.5t32 -22.5q15 -12 31 -22t35 -10q16 0 31.5 6.5t29.5 14.5q3 1 5.5 3t5.5 3v1z" />
    <glyph glyph-name="braceleft" unicode="{" horiz-adv-x="407" 
d="M140 259q39 -7 59 -24t20 -43q0 -29 -13 -66t-29 -77q-2 -4 -3.5 -8t-3.5 -9q-14 -34 -24.5 -68.5t-10.5 -63.5q0 -34 23 -44t51 -10l-8 -23h-30h-30q-16 0 -31 0.5t-30 1.5q-50 3 -72 20t-22 52q0 33 12.5 71t28.5 77q1 2 1.5 3.5t1.5 3.5q17 41 31 80.5t14 73.5
q0 20 -10.5 28t-39.5 10l10 28q38 2 58 17.5t36 56.5q1 3 2 5.5t2 5.5q4 10 7.5 21t6.5 22q4 10 7 20.5t6 20.5q27 81 70.5 149.5t142.5 73.5h29.5t29.5 1h29.5h29.5l-8 -22q-32 -1 -59.5 -12t-47.5 -38q-21 -26 -33 -59.5t-22 -69.5q-1 -4 -2 -7.5t-2 -6.5
q-19 -65 -52 -121.5t-125 -70.5v1z" />
    <glyph glyph-name="bar" unicode="|" horiz-adv-x="500" 
d="M194 666h113v-833h-113v833v0z" />
    <glyph glyph-name="braceright" unicode="}" horiz-adv-x="407" 
d="M243 231q-39 4 -59 21t-20 44q0 28 13 64.5t29 76.5q3 6 5.5 13t5.5 14q12 33 21.5 65t9.5 60q0 34 -23 43.5t-51 9.5l8 24q15 -1 30.5 -1h30.5t30.5 -0.5t30.5 -1.5q50 -3 72 -19.5t22 -51.5q0 -39 -14 -78t-31 -78t-31 -77.5t-14 -77.5q0 -19 11 -27.5t39 -10.5l-9 -26
q-40 -4 -60 -20.5t-36 -60.5q-1 -1 -1.5 -2.5t-0.5 -2.5q-6 -16 -11.5 -33t-11.5 -34q0 -3 -1 -5l-2 -4q-26 -83 -67.5 -154t-147.5 -76q-14 -1 -28.5 -1.5t-29.5 -0.5h-29.5h-29.5l7 23q56 0 86 28t50 76q1 2 1.5 4t1.5 3q9 23 16 45t13 43q21 67 53 118.5t122 66.5v1z" />
    <glyph glyph-name="asciitilde" unicode="~" horiz-adv-x="667" 
d="M501 734l25 -16q-3 -7 -6 -13l-6 -12q-20 -34 -50 -62.5t-71 -28.5q-21 0 -40 6t-38 14q-19 7 -38 13t-40 6t-35.5 -10t-28.5 -24l-4 -4l-4 -4l-24 16q14 25 27.5 45t26.5 34q18 19 36.5 28.5t39.5 10.5q19 0 38.5 -6.5t38.5 -14.5q20 -8 40 -14.5t40 -6.5q14 0 27 5
t26 16q5 4 10 9.5t10 11.5v1z" />
    <glyph glyph-name="Adieresis" unicode="&#xc4;" horiz-adv-x="948" 
d="M955 335l-26 -39q-21 -1 -42 -1t-42 1l-83 -219q-2 -7 -3 -13.5t-1 -13.5q0 -17 10.5 -26t31.5 -9t51.5 10.5t62.5 27.5q12 7 23.5 14t22.5 15v-22q-16 -12 -32 -21.5t-32 -17.5q-37 -18 -76 -26t-81 -8q-61 0 -95 23.5t-34 66.5q0 14 4 32t11 37l57 152q-14 0 -24.5 0.5
t-19.5 0.5q-9 1 -19.5 1.5t-24.5 0.5q-83 -160 -185 -235t-235 -75q-90 0 -143 37t-53 99q0 56 38.5 101.5t106.5 70.5q52 20 108.5 28t133.5 8q23 0 46 -1l46 -2q2 -1 4.5 -1h4.5q25 -1 50.5 -2t50.5 -1q13 29 30 67.5t39 78.5q40 75 95 137.5t123 62.5q40 0 66 -20.5
t26 -51.5q0 -18 -6 -44t-17 -55l-65 -174q5 -1 10 -1h9q10 1 17.5 1t15.5 1q10 0 20.5 1t24.5 3v1zM554 304q-20 2 -43.5 4t-47.5 3q-26 2 -50.5 3t-45.5 1q-14 0 -28 -1t-28 -3q-76 -12 -138.5 -56.5t-62.5 -130.5q0 -48 31 -77.5t82 -29.5q17 0 34.5 3t35.5 9
q75 25 145 98t116 176v1zM693 327l114 304q2 3 3 7l2 8q0 2 -1 3t-3 1l-6 -1q-54 -44 -90 -105t-65 -125q-7 -15 -13.5 -29.5t-12.5 -28.5q-4 -9 -8 -17.5t-8 -17.5h53l35 1v0zM805 860q26 -1 44 -19t18 -44t-18 -44.5t-44 -18.5t-44.5 18.5t-18.5 44.5t18.5 44t44.5 18v1z
M970 860q26 -1 44.5 -19t18.5 -44t-18.5 -44.5t-44.5 -18.5q-25 0 -44 18.5t-19 44.5t19 44t44 18v1z" />
    <glyph glyph-name="Aring" unicode="&#xc5;" horiz-adv-x="948" 
d="M955 335l-26 -39q-21 -1 -42 -1t-42 1l-83 -219q-2 -7 -3 -13.5t-1 -13.5q0 -17 10.5 -26t31.5 -9t51.5 10.5t62.5 27.5q12 7 23.5 14t22.5 15v-22q-16 -12 -32 -21.5t-32 -17.5q-37 -18 -76 -26t-81 -8q-61 0 -95 23.5t-34 66.5q0 14 4 32t11 37l57 152q-14 0 -24.5 0.5
t-19.5 0.5q-9 1 -19.5 1.5t-24.5 0.5q-83 -160 -185 -235t-235 -75q-90 0 -143 37t-53 99q0 56 38.5 101.5t106.5 70.5q52 20 108.5 28t133.5 8q23 0 46 -1l46 -2q2 -1 4.5 -1h4.5q25 -1 50.5 -2t50.5 -1q13 29 30 67.5t39 78.5q40 75 95 137.5t123 62.5q40 0 66 -20.5
t26 -51.5q0 -18 -6 -44t-17 -55l-65 -174q5 -1 10 -1h9q10 1 17.5 1t15.5 1q10 0 20.5 1t24.5 3v1zM554 304q-20 2 -43.5 4t-47.5 3q-26 2 -50.5 3t-45.5 1q-14 0 -28 -1t-28 -3q-76 -12 -138.5 -56.5t-62.5 -130.5q0 -48 31 -77.5t82 -29.5q17 0 34.5 3t35.5 9
q75 25 145 98t116 176v1zM693 327l114 304q2 3 3 7l2 8q0 2 -1 3t-3 1l-6 -1q-54 -44 -90 -105t-65 -125q-7 -15 -13.5 -29.5t-12.5 -28.5q-4 -9 -8 -17.5t-8 -17.5h53l35 1v0zM874 889q35 -1 59.5 -25.5t24.5 -59.5q0 -34 -24.5 -58.5t-59.5 -24.5q-34 0 -58.5 24.5
t-24.5 58.5q0 35 24.5 59.5t58.5 24.5v1zM874 844q-16 -1 -27 -12t-11 -28q0 -16 11 -27t27 -11q17 0 28 11t11 27q0 17 -11 28t-28 11v1z" />
    <glyph glyph-name="Ccedilla" unicode="&#xc7;" horiz-adv-x="635" 
d="M307 -18l-33 -65q5 2 9.5 3.5t8.5 3.5q16 6 33 11.5t34 5.5q23 0 37 -12.5t14 -31.5q0 -34 -34.5 -58t-76.5 -40q-25 -10 -48.5 -17t-39.5 -13l-13 17q13 7 24.5 14t19.5 14q15 12 23 23.5t8 21.5t-8 17t-19 7l-7 -1l-3 18l42 85q-120 16 -187.5 89t-67.5 186
q0 165 136.5 292t313.5 127q87 0 135 -46.5t48 -130.5q0 -7 -0.5 -14.5t-1.5 -14.5q-12 -112 -102 -207t-196 -109q-7 -1 -14.5 -1.5t-14.5 -0.5q-46 0 -75 22.5t-29 56.5q0 18 6.5 39t17.5 42q15 27 36 53t47 47q37 31 80.5 54.5t95.5 42.5l6 -14q-22 -12 -52.5 -31
t-62.5 -44q-34 -26 -66 -56t-54 -61q-14 -20 -22 -40t-8 -39q0 -21 12.5 -34t32.5 -13q25 0 53 13.5t56 37.5q39 31 75.5 74.5t65.5 89.5q29 47 46.5 90.5t17.5 74.5q0 44 -28 72.5t-70 28.5q-91 0 -171 -94.5t-129 -208.5q-26 -61 -41 -119.5t-15 -101.5q0 -70 50.5 -101
t110.5 -34q4 -1 8.5 -1h9.5q83 0 161.5 22t154.5 51l6 -16q-37 -14 -69.5 -26.5t-64.5 -22.5q-41 -12 -83.5 -20t-95.5 -8h-7h-6h-1.5t-1.5 1h-7.5h-9.5v0z" />
    <glyph glyph-name="Eacute" unicode="&#xc9;" horiz-adv-x="648" 
d="M416 402l-11 14q30 18 56 46t45 57q15 24 23.5 47t8.5 41q0 17 -10.5 28.5t-27.5 11.5q-30 0 -55 -38t-44 -83q-12 -29 -21.5 -56t-16.5 -44l-4 -10t-3 -10q-1 -1 -1 -2t-1 -2q-8 -23 -19 -45t-34 -34q-12 -7 -23 -14t-21 -14q-60 -42 -87.5 -86t-27.5 -96
q0 -50 33.5 -82t84.5 -32q25 0 51.5 5.5t54.5 16.5q42 17 83.5 45t74.5 65q25 27 36.5 49t11.5 41q0 13 -5 21.5t-16 15.5l9 16q29 -23 43.5 -46.5t14.5 -49.5q0 -4 -0.5 -7.5t-0.5 -7.5q-6 -39 -41 -76t-90 -63q-46 -22 -104 -33t-120 -11q-132 0 -205 43t-73 122
q0 52 30 96t84 72q39 21 81 26.5t85 6.5q14 0 22.5 4.5t8.5 11.5q0 5 -7.5 19t-16.5 35q-9 19 -16 43t-8 48v2v2q0 76 51 122t134 46q67 0 110.5 -30.5t43.5 -77.5q0 -52 -43.5 -95.5t-126.5 -74.5v1zM472 873h153q-25 -28 -52 -51t-55 -44q-6 -5 -11.5 -9.5t-11.5 -8.5
q-7 -6 -14.5 -12t-15.5 -12l-56 2q16 21 27 38.5t18 34.5q6 14 10.5 28.5t7.5 32.5v1z" />
    <glyph glyph-name="Ntilde" unicode="&#xd1;" horiz-adv-x="983" 
d="M77 132l-18 -10q-18 32 -27.5 55.5t-14.5 45.5q-2 12 -3 25t-1 27q0 135 111 250.5t245 142.5q15 3 31 4.5t31 1.5q84 0 130.5 -39t64.5 -125q41 32 86 57.5t100 48.5q7 3 13.5 5.5t13.5 5.5q50 19 95.5 32t65.5 13q9 0 14 -2.5t5 -7.5q0 -4 -3 -10.5t-10 -17.5
q-18 -28 -40.5 -70t-45.5 -92q-14 -29 -27.5 -60.5t-26.5 -62.5q-31 -77 -52 -148.5t-21 -118.5q0 -34 18.5 -52t52.5 -18h6h6q25 2 51.5 12.5t65.5 32.5l5 -21q-2 -2 -3.5 -2.5t-2.5 -1.5q-9 -4 -17.5 -7.5t-17.5 -7.5q-30 -13 -61.5 -21.5t-65.5 -8.5q-80 0 -129.5 47
t-49.5 129q0 143 92.5 262t204.5 195q2 2 4.5 3t4.5 3q2 1 4.5 2.5t4.5 2.5q7 5 14.5 10t13.5 11l-6 3l-10 -2q-93 -34 -181 -73t-170 -96l1 -24q0 -35 -6.5 -74t-18.5 -79q-16 -52 -39 -102.5t-51 -88.5q-23 -32 -50.5 -58t-55.5 -43q-23 -14 -45.5 -21t-42.5 -7
q-30 0 -47 20.5t-17 57.5q0 20 3.5 40t10.5 40q20 61 62 120.5t89 108.5q17 18 33.5 34t32.5 30q2 7 4.5 14.5t3.5 15.5q8 31 12.5 61t4.5 51q0 37 -21 57t-60 20q-21 0 -42 -5t-42 -16q-42 -20 -83.5 -60t-81.5 -98l-16 -24t-16 -26q-20 -32 -38.5 -67.5t-30.5 -72.5
q-7 -22 -11.5 -44.5t-4.5 -43.5q0 -13 1.5 -24.5t4.5 -22.5q1 -5 3 -10.5t4 -11.5v1zM475 400q-39 -35 -69.5 -77.5t-58.5 -101.5q-4 -7 -7.5 -14t-6.5 -15q-22 -49 -36 -91t-14 -61q0 -8 3.5 -13t8.5 -5q14 0 36.5 39t46.5 93q7 14 13.5 29t12.5 30q26 62 46 116t25 70v1z
M872 858l17 -11q-25 -46 -52.5 -69.5t-56.5 -23.5q-9 0 -18.5 2t-19.5 5q-8 2 -16.5 5.5t-17.5 7.5q-18 7 -34.5 13t-30.5 6q-11 0 -19 -4.5t-15 -15.5q-1 -2 -2 -3.5t-2 -3.5l-18 11q19 38 45.5 61t54.5 27h4h4q18 0 35 -6t33 -14q5 -2 9.5 -4t8.5 -4q12 -5 24 -8.5
t24 -3.5q14 0 24.5 8t18.5 24v1z" />
    <glyph glyph-name="Odieresis" unicode="&#xd6;" horiz-adv-x="728" 
d="M346 362l-20 -2q-2 10 -3.5 18t-1.5 16q-1 6 -1 12v12q0 110 59 185.5t144 75.5q87 0 146.5 -76t59.5 -189q0 -168 -127 -301t-296 -133q-130 0 -205 67t-75 185q0 132 88.5 243t243.5 174l8 -12q-52 -43 -92.5 -119.5t-64.5 -159.5q-15 -54 -23.5 -105.5t-8.5 -94.5
q0 -74 34 -116.5t92 -42.5q47 0 86.5 29t77.5 95q7 12 13.5 24.5t13.5 26.5q17 36 32.5 76t27.5 81q17 59 27.5 115.5t10.5 99.5q0 51 -18 81.5t-49 30.5q-53 0 -92.5 -53t-61.5 -117q-12 -36 -18.5 -69t-6.5 -58v1zM448 860q26 -1 44 -19t18 -44t-18 -44.5t-44 -18.5
t-44.5 18.5t-18.5 44.5t18.5 44t44.5 18v1zM613 860q26 -1 44.5 -19t18.5 -44t-18.5 -44.5t-44.5 -18.5q-25 0 -44 18.5t-19 44.5t19 44t44 18v1z" />
    <glyph glyph-name="Udieresis" unicode="&#xdc;" horiz-adv-x="984" 
d="M119 99l-15 -11q-49 55 -73.5 105t-24.5 95q0 24 6 49t18 50q20 46 57.5 90.5t87.5 80.5q68 50 138.5 78.5t142.5 34.5q10 1 20.5 1.5t20.5 0.5q71 0 108 -22t37 -66q0 -10 -2.5 -22.5t-6.5 -25.5l-6 -14l-6 -14l-224 -449q-6 -13 -9.5 -23.5t-3.5 -16.5q0 -7 4.5 -11.5
t11.5 -4.5q34 0 89 63.5t114 152.5q17 26 34 53t34 55q60 99 107 187t62 121l186 25l-242 -555q-8 -20 -12 -33.5t-4 -24.5q0 -19 13 -29.5t37 -10.5q35 0 68.5 11t65.5 24q11 5 22 9.5t22 8.5v-18q-40 -21 -85.5 -37t-91.5 -19q-5 -1 -9.5 -1h-9.5q-72 0 -117 32t-45 84
q0 14 4 35.5t11 43.5q5 16 10.5 31t11.5 28l171 368l-4 2q-48 -97 -99.5 -192t-107.5 -187q-13 -20 -28.5 -46t-33.5 -52q-37 -56 -85.5 -101.5t-106.5 -45.5q-50 0 -81 33t-31 87q0 21 6.5 44t18.5 48l202 391q6 10 9 18.5t3 15.5q0 14 -11 21t-31 7q-31 0 -66 -12t-71 -34
q-66 -38 -126.5 -100t-97.5 -129q-20 -35 -31.5 -70t-11.5 -66q0 -15 1.5 -28t5.5 -26q6 -20 18 -40.5t32 -47.5v1zM676 860q26 -1 44 -19t18 -44t-18 -44.5t-44 -18.5t-44.5 18.5t-18.5 44.5t18.5 44t44.5 18v1zM841 860q26 -1 44.5 -19t18.5 -44t-18.5 -44.5t-44.5 -18.5
q-25 0 -44 18.5t-19 44.5t19 44t44 18v1z" />
    <glyph glyph-name="aacute" unicode="&#xe1;" horiz-adv-x="562" 
d="M510 388l-109 -291q-5 -14 -7 -21.5t-2 -13.5q0 -16 11.5 -26t28.5 -10q15 0 37 6.5t45 17.5q13 6 25.5 13.5t24.5 15.5l8 -11q-28 -23 -60.5 -39t-66.5 -25q-19 -4 -37 -6.5t-36 -2.5q-41 0 -67 10t-43 34q-15 -10 -29 -17.5t-28 -12.5q-20 -8 -41 -11t-44 -3
q-49 0 -86 21t-37 78q0 23 6.5 50.5t19.5 55.5q12 27 28 52.5t34 47.5q36 43 85 66t104 23q32 0 51.5 -7t32.5 -24l152 30v0zM345 344q-10 12 -23.5 18.5t-28.5 6.5q-12 0 -22.5 -4.5t-20.5 -14.5q-11 -12 -22.5 -33.5t-26.5 -55.5q-27 -60 -43.5 -112t-16.5 -75
q0 -22 11.5 -35t30.5 -13q16 0 31 7t29 15l6 4l6 4l-3 21q0 5 1 13t3 16q2 6 3.5 11.5t3.5 10.5l82 216v0zM349 614h153q-25 -28 -52 -51t-55 -44q-6 -5 -11.5 -9.5t-11.5 -8.5q-7 -6 -14.5 -12t-15.5 -12l-56 2q16 21 27 38.5t18 34.5q6 14 10.5 28.5t7.5 32.5v1z" />
    <glyph glyph-name="agrave" unicode="&#xe0;" horiz-adv-x="562" 
d="M510 388l-109 -291q-5 -14 -7 -21.5t-2 -13.5q0 -16 11.5 -26t28.5 -10q15 0 37 6.5t45 17.5q13 6 25.5 13.5t24.5 15.5l8 -11q-28 -23 -60.5 -39t-66.5 -25q-19 -4 -37 -6.5t-36 -2.5q-41 0 -67 10t-43 34q-15 -10 -29 -17.5t-28 -12.5q-20 -8 -41 -11t-44 -3
q-49 0 -86 21t-37 78q0 23 6.5 50.5t19.5 55.5q12 27 28 52.5t34 47.5q36 43 85 66t104 23q32 0 51.5 -7t32.5 -24l152 30v0zM345 344q-10 12 -23.5 18.5t-28.5 6.5q-12 0 -22.5 -4.5t-20.5 -14.5q-11 -12 -22.5 -33.5t-26.5 -55.5q-27 -60 -43.5 -112t-16.5 -75
q0 -22 11.5 -35t30.5 -13q16 0 31 7t29 15l6 4l6 4l-3 21q0 5 1 13t3 16q2 6 3.5 11.5t3.5 10.5l82 216v0zM326 614q4 -20 8 -35t11 -28q7 -16 17.5 -33t26.5 -40h-56q-42 31 -83 63.5t-77 71.5l153 1v0z" />
    <glyph glyph-name="acircumflex" unicode="&#xe2;" horiz-adv-x="562" 
d="M510 388l-109 -291q-5 -14 -7 -21.5t-2 -13.5q0 -16 11.5 -26t28.5 -10q15 0 37 6.5t45 17.5q13 6 25.5 13.5t24.5 15.5l8 -11q-28 -23 -60.5 -39t-66.5 -25q-19 -4 -37 -6.5t-36 -2.5q-41 0 -67 10t-43 34q-15 -10 -29 -17.5t-28 -12.5q-20 -8 -41 -11t-44 -3
q-49 0 -86 21t-37 78q0 23 6.5 50.5t19.5 55.5q12 27 28 52.5t34 47.5q36 43 85 66t104 23q32 0 51.5 -7t32.5 -24l152 30v0zM345 344q-10 12 -23.5 18.5t-28.5 6.5q-12 0 -22.5 -4.5t-20.5 -14.5q-11 -12 -22.5 -33.5t-26.5 -55.5q-27 -60 -43.5 -112t-16.5 -75
q0 -22 11.5 -35t30.5 -13q16 0 31 7t29 15l6 4l6 4l-3 21q0 5 1 13t3 16q2 6 3.5 11.5t3.5 10.5l82 216v0zM321 618h103q6 -35 18 -69.5t30 -66.5l-40 1q-15 9 -29 20l-28 22q-2 1 -3.5 2t-2.5 3l-16 12l-16 12q-9 -7 -17 -15l-16 -16l-2.5 -2.5l-2.5 -2.5q-10 -9 -19.5 -18
t-19.5 -17l-36 1q24 22 42 43t31 42q7 12 13 24t11 24v1z" />
    <glyph glyph-name="adieresis" unicode="&#xe4;" horiz-adv-x="562" 
d="M510 388l-109 -291q-5 -14 -7 -21.5t-2 -13.5q0 -16 11.5 -26t28.5 -10q15 0 37 6.5t45 17.5q13 6 25.5 13.5t24.5 15.5l8 -11q-28 -23 -60.5 -39t-66.5 -25q-19 -4 -37 -6.5t-36 -2.5q-41 0 -67 10t-43 34q-15 -10 -29 -17.5t-28 -12.5q-20 -8 -41 -11t-44 -3
q-49 0 -86 21t-37 78q0 23 6.5 50.5t19.5 55.5q12 27 28 52.5t34 47.5q36 43 85 66t104 23q32 0 51.5 -7t32.5 -24l152 30v0zM345 344q-10 12 -23.5 18.5t-28.5 6.5q-12 0 -22.5 -4.5t-20.5 -14.5q-11 -12 -22.5 -33.5t-26.5 -55.5q-27 -60 -43.5 -112t-16.5 -75
q0 -22 11.5 -35t30.5 -13q16 0 31 7t29 15l6 4l6 4l-3 21q0 5 1 13t3 16q2 6 3.5 11.5t3.5 10.5l82 216v0zM265 606q26 -1 44 -19t18 -44t-18 -44.5t-44 -18.5t-44.5 18.5t-18.5 44.5t18.5 44t44.5 18v1zM430 606q26 -1 44.5 -19t18.5 -44t-18.5 -44.5t-44.5 -18.5
q-25 0 -44 18.5t-19 44.5t19 44t44 18v1z" />
    <glyph glyph-name="atilde" unicode="&#xe3;" horiz-adv-x="562" 
d="M510 388l-109 -291q-5 -14 -7 -21.5t-2 -13.5q0 -16 11.5 -26t28.5 -10q15 0 37 6.5t45 17.5q13 6 25.5 13.5t24.5 15.5l8 -11q-28 -23 -60.5 -39t-66.5 -25q-19 -4 -37 -6.5t-36 -2.5q-41 0 -67 10t-43 34q-15 -10 -29 -17.5t-28 -12.5q-20 -8 -41 -11t-44 -3
q-49 0 -86 21t-37 78q0 23 6.5 50.5t19.5 55.5q12 27 28 52.5t34 47.5q36 43 85 66t104 23q32 0 51.5 -7t32.5 -24l152 30v0zM345 344q-10 12 -23.5 18.5t-28.5 6.5q-12 0 -22.5 -4.5t-20.5 -14.5q-11 -12 -22.5 -33.5t-26.5 -55.5q-27 -60 -43.5 -112t-16.5 -75
q0 -22 11.5 -35t30.5 -13q16 0 31 7t29 15l6 4l6 4l-3 21q0 5 1 13t3 16q2 6 3.5 11.5t3.5 10.5l82 216v0zM482 606l17 -11q-25 -46 -52.5 -69.5t-56.5 -23.5q-9 0 -18.5 2t-19.5 5q-8 2 -16.5 5.5t-17.5 7.5q-18 7 -34.5 13t-30.5 6q-11 0 -19 -4.5t-15 -15.5
q-1 -2 -2 -3.5t-2 -3.5l-18 11q19 38 45.5 61t54.5 27h4h4q18 0 35 -6t33 -14q5 -2 9.5 -4t8.5 -4q12 -5 24 -8.5t24 -3.5q14 0 24.5 8t18.5 24v1z" />
    <glyph glyph-name="aring" unicode="&#xe5;" horiz-adv-x="562" 
d="M510 388l-109 -291q-5 -14 -7 -21.5t-2 -13.5q0 -16 11.5 -26t28.5 -10q15 0 37 6.5t45 17.5q13 6 25.5 13.5t24.5 15.5l8 -11q-28 -23 -60.5 -39t-66.5 -25q-19 -4 -37 -6.5t-36 -2.5q-41 0 -67 10t-43 34q-15 -10 -29 -17.5t-28 -12.5q-20 -8 -41 -11t-44 -3
q-49 0 -86 21t-37 78q0 23 6.5 50.5t19.5 55.5q12 27 28 52.5t34 47.5q36 43 85 66t104 23q32 0 51.5 -7t32.5 -24l152 30v0zM345 344q-10 12 -23.5 18.5t-28.5 6.5q-12 0 -22.5 -4.5t-20.5 -14.5q-11 -12 -22.5 -33.5t-26.5 -55.5q-27 -60 -43.5 -112t-16.5 -75
q0 -22 11.5 -35t30.5 -13q16 0 31 7t29 15l6 4l6 4l-3 21q0 5 1 13t3 16q2 6 3.5 11.5t3.5 10.5l82 216v0zM347 636q35 -1 59.5 -25.5t24.5 -59.5q0 -34 -24.5 -58.5t-59.5 -24.5q-34 0 -58.5 24.5t-24.5 58.5q0 35 24.5 59.5t58.5 24.5v1zM347 591q-16 -1 -27 -12t-11 -28
q0 -16 11 -27t27 -11q17 0 28 11t11 27q0 17 -11 28t-28 11v1z" />
    <glyph glyph-name="ccedilla" unicode="&#xe7;" horiz-adv-x="399" 
d="M164 -5l-37 -74l10 4l10 4q14 5 28.5 10t29.5 5q22 0 35.5 -11.5t13.5 -30.5q0 -34 -33 -56.5t-72 -37.5q-24 -9 -46.5 -15.5t-37.5 -12.5l-12 16q11 6 21 12t17 12q16 12 24.5 23.5t8.5 21.5q0 12 -8.5 17t-17.5 6h-3.5h-3.5l-2 16l46 92q-76 8 -108 30.5t-32 67.5
q0 13 1.5 26t4.5 26q22 93 107 170t183 77q41 0 62.5 -20t21.5 -58q0 -4 -0.5 -8.5t-0.5 -9.5q-6 -48 -36.5 -90t-65.5 -51q-4 -1 -7.5 -1.5t-7.5 -0.5q-17 0 -29 12t-12 28q0 27 20.5 46t45.5 35q4 3 9 6t9 6q19 12 33 25.5t14 30.5q0 12 -8.5 19.5t-20.5 7.5
q-48 0 -86.5 -52t-61.5 -114q-14 -37 -21.5 -71.5t-7.5 -58.5q0 -29 17.5 -45t51.5 -16h5.5h4.5q39 2 81 17t100 49l8 -12q-55 -38 -116.5 -55t-128.5 -17v0z" />
    <glyph glyph-name="eacute" unicode="&#xe9;" horiz-adv-x="403" 
d="M404 80l8 -14q-19 -13 -37 -23t-36 -18q-43 -18 -87.5 -25.5t-99.5 -7.5q-11 0 -23.5 0.5t-24.5 1.5q-41 5 -75 24t-34 68q0 23 7 54t21 70q30 81 89.5 131t149.5 50q46 0 70 -17.5t24 -52.5q0 -4 -0.5 -7.5t-0.5 -7.5q-7 -52 -62.5 -100.5t-145.5 -82.5q-2 -12 -3 -19.5
t-1 -14.5v-2.5v-2.5q0 -32 20.5 -50.5t56.5 -18.5q41 0 88 16.5t96 47.5v1zM152 144q12 9 28.5 25.5t34.5 37.5q11 12 21 25.5t20 26.5q19 27 31.5 53t12.5 44q0 10 -6.5 16.5t-15.5 6.5q-3 0 -5.5 -0.5t-4.5 -1.5q-22 -9 -42.5 -45t-37.5 -78q-13 -33 -22.5 -63.5
t-13.5 -47.5v1zM270 614h153q-25 -28 -52 -51t-55 -44q-6 -5 -11.5 -9.5t-11.5 -8.5q-7 -6 -14.5 -12t-15.5 -12l-56 2q16 21 27 38.5t18 34.5q6 14 10.5 28.5t7.5 32.5v1z" />
    <glyph glyph-name="egrave" unicode="&#xe8;" horiz-adv-x="403" 
d="M404 80l8 -14q-19 -13 -37 -23t-36 -18q-43 -18 -87.5 -25.5t-99.5 -7.5q-11 0 -23.5 0.5t-24.5 1.5q-41 5 -75 24t-34 68q0 23 7 54t21 70q30 81 89.5 131t149.5 50q46 0 70 -17.5t24 -52.5q0 -4 -0.5 -7.5t-0.5 -7.5q-7 -52 -62.5 -100.5t-145.5 -82.5q-2 -12 -3 -19.5
t-1 -14.5v-2.5v-2.5q0 -32 20.5 -50.5t56.5 -18.5q41 0 88 16.5t96 47.5v1zM152 144q12 9 28.5 25.5t34.5 37.5q11 12 21 25.5t20 26.5q19 27 31.5 53t12.5 44q0 10 -6.5 16.5t-15.5 6.5q-3 0 -5.5 -0.5t-4.5 -1.5q-22 -9 -42.5 -45t-37.5 -78q-13 -33 -22.5 -63.5
t-13.5 -47.5v1zM246 614q4 -20 8 -35t11 -28q7 -16 17.5 -33t26.5 -40h-56q-42 31 -83 63.5t-77 71.5l153 1v0z" />
    <glyph glyph-name="ecircumflex" unicode="&#xea;" horiz-adv-x="403" 
d="M404 80l8 -14q-19 -13 -37 -23t-36 -18q-43 -18 -87.5 -25.5t-99.5 -7.5q-11 0 -23.5 0.5t-24.5 1.5q-41 5 -75 24t-34 68q0 23 7 54t21 70q30 81 89.5 131t149.5 50q46 0 70 -17.5t24 -52.5q0 -4 -0.5 -7.5t-0.5 -7.5q-7 -52 -62.5 -100.5t-145.5 -82.5q-2 -12 -3 -19.5
t-1 -14.5v-2.5v-2.5q0 -32 20.5 -50.5t56.5 -18.5q41 0 88 16.5t96 47.5v1zM152 144q12 9 28.5 25.5t34.5 37.5q11 12 21 25.5t20 26.5q19 27 31.5 53t12.5 44q0 10 -6.5 16.5t-15.5 6.5q-3 0 -5.5 -0.5t-4.5 -1.5q-22 -9 -42.5 -45t-37.5 -78q-13 -33 -22.5 -63.5
t-13.5 -47.5v1zM241 618h103q6 -35 18 -69.5t30 -66.5l-40 1q-15 9 -29 20l-28 22q-2 1 -3.5 2t-2.5 3l-16 12l-16 12q-9 -7 -17 -15l-16 -16l-2.5 -2.5l-2.5 -2.5q-10 -9 -19.5 -18t-19.5 -17l-36 1q24 22 42 43t31 42q7 12 13 24t11 24v1z" />
    <glyph glyph-name="edieresis" unicode="&#xeb;" horiz-adv-x="403" 
d="M404 80l8 -14q-19 -13 -37 -23t-36 -18q-43 -18 -87.5 -25.5t-99.5 -7.5q-11 0 -23.5 0.5t-24.5 1.5q-41 5 -75 24t-34 68q0 23 7 54t21 70q30 81 89.5 131t149.5 50q46 0 70 -17.5t24 -52.5q0 -4 -0.5 -7.5t-0.5 -7.5q-7 -52 -62.5 -100.5t-145.5 -82.5q-2 -12 -3 -19.5
t-1 -14.5v-2.5v-2.5q0 -32 20.5 -50.5t56.5 -18.5q41 0 88 16.5t96 47.5v1zM152 144q12 9 28.5 25.5t34.5 37.5q11 12 21 25.5t20 26.5q19 27 31.5 53t12.5 44q0 10 -6.5 16.5t-15.5 6.5q-3 0 -5.5 -0.5t-4.5 -1.5q-22 -9 -42.5 -45t-37.5 -78q-13 -33 -22.5 -63.5
t-13.5 -47.5v1zM186 606q26 -1 44 -19t18 -44t-18 -44.5t-44 -18.5t-44.5 18.5t-18.5 44.5t18.5 44t44.5 18v1zM351 606q26 -1 44.5 -19t18.5 -44t-18.5 -44.5t-44.5 -18.5q-25 0 -44 18.5t-19 44.5t19 44t44 18v1z" />
    <glyph glyph-name="iacute" unicode="&#xed;" horiz-adv-x="303" 
d="M253 393l-108 -301q-3 -11 -5 -20.5t-2 -18.5q0 -16 10 -25t29 -9q27 0 51.5 12.5t46.5 28.5q8 5 15.5 10t15.5 10l9 -9q-45 -40 -91.5 -57.5t-100.5 -17.5q-60 0 -94 18.5t-34 52.5q0 8 2 17.5t4 19.5q0 2 0.5 4t1.5 4l90 248l160 33v0zM220 614h153q-25 -28 -52 -51
t-55 -44q-6 -5 -11.5 -9.5t-11.5 -8.5q-7 -6 -14.5 -12t-15.5 -12l-56 2q16 21 27 38.5t18 34.5q6 14 10.5 28.5t7.5 32.5v1z" />
    <glyph glyph-name="igrave" unicode="&#xec;" horiz-adv-x="303" 
d="M253 393l-108 -301q-3 -11 -5 -20.5t-2 -18.5q0 -16 10 -25t29 -9q27 0 51.5 12.5t46.5 28.5q8 5 15.5 10t15.5 10l9 -9q-45 -40 -91.5 -57.5t-100.5 -17.5q-60 0 -94 18.5t-34 52.5q0 8 2 17.5t4 19.5q0 2 0.5 4t1.5 4l90 248l160 33v0zM197 614q4 -20 8 -35t11 -28
q7 -16 17.5 -33t26.5 -40h-56q-42 31 -83 63.5t-77 71.5l153 1v0z" />
    <glyph glyph-name="icircumflex" unicode="&#xee;" horiz-adv-x="303" 
d="M253 393l-108 -301q-3 -11 -5 -20.5t-2 -18.5q0 -16 10 -25t29 -9q27 0 51.5 12.5t46.5 28.5q8 5 15.5 10t15.5 10l9 -9q-45 -40 -91.5 -57.5t-100.5 -17.5q-60 0 -94 18.5t-34 52.5q0 8 2 17.5t4 19.5q0 2 0.5 4t1.5 4l90 248l160 33v0zM192 618h103q6 -35 18 -69.5
t30 -66.5l-40 1q-15 9 -29 20l-28 22q-2 1 -3.5 2t-2.5 3l-16 12l-16 12q-9 -7 -17 -15l-16 -16l-2.5 -2.5l-2.5 -2.5q-10 -9 -19.5 -18t-19.5 -17l-36 1q24 22 42 43t31 42q7 12 13 24t11 24v1z" />
    <glyph glyph-name="idieresis" unicode="&#xef;" horiz-adv-x="303" 
d="M253 393l-108 -301q-3 -11 -5 -20.5t-2 -18.5q0 -16 10 -25t29 -9q27 0 51.5 12.5t46.5 28.5q8 5 15.5 10t15.5 10l9 -9q-45 -40 -91.5 -57.5t-100.5 -17.5q-60 0 -94 18.5t-34 52.5q0 8 2 17.5t4 19.5q0 2 0.5 4t1.5 4l90 248l160 33v0zM136 606q26 -1 44 -19t18 -44
t-18 -44.5t-44 -18.5t-44.5 18.5t-18.5 44.5t18.5 44t44.5 18v1zM301 606q26 -1 44.5 -19t18.5 -44t-18.5 -44.5t-44.5 -18.5q-25 0 -44 18.5t-19 44.5t19 44t44 18v1z" />
    <glyph glyph-name="ntilde" unicode="&#xf1;" horiz-adv-x="573" 
d="M244 384l-132 -353l-2 -8l2 -4q2 -1 4.5 2t5.5 8q13 30 30.5 69.5t38.5 81.5q41 79 99 145t133 66q35 0 55.5 -17.5t20.5 -47.5q0 -9 -2 -18t-5 -18l-79 -189q-5 -14 -8 -24.5t-3 -18.5q0 -16 11 -25t30 -9q28 0 53 12t49 27q7 4 14 8.5t14 8.5l9 -11q-10 -8 -19.5 -14.5
t-19.5 -12.5q-39 -23 -78 -34t-80 -11q-57 0 -88.5 22.5t-31.5 62.5q0 8 1 16.5t4 17.5q1 5 3 10.5t4 10.5l89 217l3 9q0 1 -1 1.5t-3 0.5h-1.5h-0.5q-1 0 -3 -1.5t-6 -5.5q-45 -36 -82.5 -90t-69.5 -111q-17 -31 -32.5 -61.5t-29.5 -58.5q-1 -1 -1.5 -2t-0.5 -2
q-12 -22 -25.5 -29t-38.5 -7q-43 0 -65.5 17t-22.5 50q0 11 3 24.5t9 30.5l87 236l159 29v0zM487 606l17 -11q-25 -46 -52.5 -69.5t-56.5 -23.5q-9 0 -18.5 2t-19.5 5q-8 2 -16.5 5.5t-17.5 7.5q-18 7 -34.5 13t-30.5 6q-11 0 -19 -4.5t-15 -15.5q-1 -2 -2 -3.5t-2 -3.5
l-18 11q19 38 45.5 61t54.5 27h4h4q18 0 35 -6t33 -14q5 -2 9.5 -4t8.5 -4q12 -5 24 -8.5t24 -3.5q14 0 24.5 8t18.5 24v1z" />
    <glyph glyph-name="oacute" unicode="&#xf3;" horiz-adv-x="504" 
d="M522 159l4 -16q-12 -5 -22 -8t-18 -5q-8 -1 -16.5 -1.5t-18.5 -0.5q-13 0 -23.5 1t-20.5 3q-7 1 -14.5 3t-15.5 5q-43 -77 -98.5 -112.5t-131.5 -35.5q-77 0 -113.5 28t-36.5 86q0 13 1.5 25.5t3.5 25.5q14 62 58 119t102 87q7 4 14.5 7t14.5 6q16 6 30.5 10t23.5 4
q5 0 7.5 -2t2.5 -5q0 -2 -19 -34t-41 -79q-13 -25 -24.5 -52.5t-19.5 -56.5q-8 -24 -12.5 -48.5t-4.5 -47.5q0 -24 11 -38.5t29 -14.5q33 0 59.5 29t45.5 63q10 18 17.5 35.5t13.5 30.5q-28 34 -42.5 69.5t-14.5 74.5q0 50 21.5 79.5t56.5 29.5q41 0 65 -33.5t24 -90.5
q0 -37 -8.5 -72.5t-27.5 -70.5q8 -3 14.5 -5t12.5 -4q8 -2 16 -2.5t18 -0.5q9 0 16.5 0.5t14.5 1.5q10 1 20.5 4t25.5 8v1zM317 197q6 27 10.5 55t4.5 56q0 44 -7 67.5t-21 23.5q-13 0 -21 -17t-8 -45q0 -12 1.5 -24.5t4.5 -25.5q5 -26 14.5 -50t21.5 -41v1zM320 614h153
q-25 -28 -52 -51t-55 -44q-6 -5 -11.5 -9.5t-11.5 -8.5q-7 -6 -14.5 -12t-15.5 -12l-56 2q16 21 27 38.5t18 34.5q6 14 10.5 28.5t7.5 32.5v1z" />
    <glyph glyph-name="ograve" unicode="&#xf2;" horiz-adv-x="504" 
d="M522 159l4 -16q-12 -5 -22 -8t-18 -5q-8 -1 -16.5 -1.5t-18.5 -0.5q-13 0 -23.5 1t-20.5 3q-7 1 -14.5 3t-15.5 5q-43 -77 -98.5 -112.5t-131.5 -35.5q-77 0 -113.5 28t-36.5 86q0 13 1.5 25.5t3.5 25.5q14 62 58 119t102 87q7 4 14.5 7t14.5 6q16 6 30.5 10t23.5 4
q5 0 7.5 -2t2.5 -5q0 -2 -19 -34t-41 -79q-13 -25 -24.5 -52.5t-19.5 -56.5q-8 -24 -12.5 -48.5t-4.5 -47.5q0 -24 11 -38.5t29 -14.5q33 0 59.5 29t45.5 63q10 18 17.5 35.5t13.5 30.5q-28 34 -42.5 69.5t-14.5 74.5q0 50 21.5 79.5t56.5 29.5q41 0 65 -33.5t24 -90.5
q0 -37 -8.5 -72.5t-27.5 -70.5q8 -3 14.5 -5t12.5 -4q8 -2 16 -2.5t18 -0.5q9 0 16.5 0.5t14.5 1.5q10 1 20.5 4t25.5 8v1zM317 197q6 27 10.5 55t4.5 56q0 44 -7 67.5t-21 23.5q-13 0 -21 -17t-8 -45q0 -12 1.5 -24.5t4.5 -25.5q5 -26 14.5 -50t21.5 -41v1zM297 614
q4 -20 8 -35t11 -28q7 -16 17.5 -33t26.5 -40h-56q-42 31 -83 63.5t-77 71.5l153 1v0z" />
    <glyph glyph-name="ocircumflex" unicode="&#xf4;" horiz-adv-x="504" 
d="M522 159l4 -16q-12 -5 -22 -8t-18 -5q-8 -1 -16.5 -1.5t-18.5 -0.5q-13 0 -23.5 1t-20.5 3q-7 1 -14.5 3t-15.5 5q-43 -77 -98.5 -112.5t-131.5 -35.5q-77 0 -113.5 28t-36.5 86q0 13 1.5 25.5t3.5 25.5q14 62 58 119t102 87q7 4 14.5 7t14.5 6q16 6 30.5 10t23.5 4
q5 0 7.5 -2t2.5 -5q0 -2 -19 -34t-41 -79q-13 -25 -24.5 -52.5t-19.5 -56.5q-8 -24 -12.5 -48.5t-4.5 -47.5q0 -24 11 -38.5t29 -14.5q33 0 59.5 29t45.5 63q10 18 17.5 35.5t13.5 30.5q-28 34 -42.5 69.5t-14.5 74.5q0 50 21.5 79.5t56.5 29.5q41 0 65 -33.5t24 -90.5
q0 -37 -8.5 -72.5t-27.5 -70.5q8 -3 14.5 -5t12.5 -4q8 -2 16 -2.5t18 -0.5q9 0 16.5 0.5t14.5 1.5q10 1 20.5 4t25.5 8v1zM317 197q6 27 10.5 55t4.5 56q0 44 -7 67.5t-21 23.5q-13 0 -21 -17t-8 -45q0 -12 1.5 -24.5t4.5 -25.5q5 -26 14.5 -50t21.5 -41v1zM292 618h103
q6 -35 18 -69.5t30 -66.5l-40 1q-15 9 -29 20l-28 22q-2 1 -3.5 2t-2.5 3l-16 12l-16 12q-9 -7 -17 -15l-16 -16l-2.5 -2.5l-2.5 -2.5q-10 -9 -19.5 -18t-19.5 -17l-36 1q24 22 42 43t31 42q7 12 13 24t11 24v1z" />
    <glyph glyph-name="odieresis" unicode="&#xf6;" horiz-adv-x="504" 
d="M522 159l4 -16q-12 -5 -22 -8t-18 -5q-8 -1 -16.5 -1.5t-18.5 -0.5q-13 0 -23.5 1t-20.5 3q-7 1 -14.5 3t-15.5 5q-43 -77 -98.5 -112.5t-131.5 -35.5q-77 0 -113.5 28t-36.5 86q0 13 1.5 25.5t3.5 25.5q14 62 58 119t102 87q7 4 14.5 7t14.5 6q16 6 30.5 10t23.5 4
q5 0 7.5 -2t2.5 -5q0 -2 -19 -34t-41 -79q-13 -25 -24.5 -52.5t-19.5 -56.5q-8 -24 -12.5 -48.5t-4.5 -47.5q0 -24 11 -38.5t29 -14.5q33 0 59.5 29t45.5 63q10 18 17.5 35.5t13.5 30.5q-28 34 -42.5 69.5t-14.5 74.5q0 50 21.5 79.5t56.5 29.5q41 0 65 -33.5t24 -90.5
q0 -37 -8.5 -72.5t-27.5 -70.5q8 -3 14.5 -5t12.5 -4q8 -2 16 -2.5t18 -0.5q9 0 16.5 0.5t14.5 1.5q10 1 20.5 4t25.5 8v1zM317 197q6 27 10.5 55t4.5 56q0 44 -7 67.5t-21 23.5q-13 0 -21 -17t-8 -45q0 -12 1.5 -24.5t4.5 -25.5q5 -26 14.5 -50t21.5 -41v1zM236 606
q26 -1 44 -19t18 -44t-18 -44.5t-44 -18.5t-44.5 18.5t-18.5 44.5t18.5 44t44.5 18v1zM401 606q26 -1 44.5 -19t18.5 -44t-18.5 -44.5t-44.5 -18.5q-25 0 -44 18.5t-19 44.5t19 44t44 18v1z" />
    <glyph glyph-name="otilde" unicode="&#xf5;" horiz-adv-x="504" 
d="M522 159l4 -16q-12 -5 -22 -8t-18 -5q-8 -1 -16.5 -1.5t-18.5 -0.5q-13 0 -23.5 1t-20.5 3q-7 1 -14.5 3t-15.5 5q-43 -77 -98.5 -112.5t-131.5 -35.5q-77 0 -113.5 28t-36.5 86q0 13 1.5 25.5t3.5 25.5q14 62 58 119t102 87q7 4 14.5 7t14.5 6q16 6 30.5 10t23.5 4
q5 0 7.5 -2t2.5 -5q0 -2 -19 -34t-41 -79q-13 -25 -24.5 -52.5t-19.5 -56.5q-8 -24 -12.5 -48.5t-4.5 -47.5q0 -24 11 -38.5t29 -14.5q33 0 59.5 29t45.5 63q10 18 17.5 35.5t13.5 30.5q-28 34 -42.5 69.5t-14.5 74.5q0 50 21.5 79.5t56.5 29.5q41 0 65 -33.5t24 -90.5
q0 -37 -8.5 -72.5t-27.5 -70.5q8 -3 14.5 -5t12.5 -4q8 -2 16 -2.5t18 -0.5q9 0 16.5 0.5t14.5 1.5q10 1 20.5 4t25.5 8v1zM317 197q6 27 10.5 55t4.5 56q0 44 -7 67.5t-21 23.5q-13 0 -21 -17t-8 -45q0 -12 1.5 -24.5t4.5 -25.5q5 -26 14.5 -50t21.5 -41v1zM453 606l17 -11
q-25 -46 -52.5 -69.5t-56.5 -23.5q-9 0 -18.5 2t-19.5 5q-8 2 -16.5 5.5t-17.5 7.5q-18 7 -34.5 13t-30.5 6q-11 0 -19 -4.5t-15 -15.5q-1 -2 -2 -3.5t-2 -3.5l-18 11q19 38 45.5 61t54.5 27h4h4q18 0 35 -6t33 -14q5 -2 9.5 -4t8.5 -4q12 -5 24 -8.5t24 -3.5q14 0 24.5 8
t18.5 24v1z" />
    <glyph glyph-name="uacute" unicode="&#xfa;" horiz-adv-x="572" 
d="M85 358l160 29l-104 -279q-7 -19 -10 -32t-3 -22q0 -14 10 -23t26 -9q15 0 36.5 7t43.5 20q6 3 11.5 6.5t11.5 7.5l-2 15q0 8 3 19.5t10 30.5l84 228l161 30l-105 -277q-6 -17 -9 -30.5t-3 -23.5q0 -15 9.5 -24t24.5 -9q23 0 57.5 15.5t77.5 45.5l8 -11
q-34 -26 -63 -41.5t-57 -23.5q-18 -6 -36.5 -8t-38.5 -2q-43 0 -71 11.5t-45 36.5q-12 -7 -23 -13t-23 -10q-28 -12 -57 -17.5t-61 -5.5q-54 0 -85.5 21.5t-31.5 58.5q0 9 2 19.5t5 21.5q1 3 1.5 5.5t1.5 5.5l84 227v0zM354 614h153q-25 -28 -52 -51t-55 -44
q-6 -5 -11.5 -9.5t-11.5 -8.5q-7 -6 -14.5 -12t-15.5 -12l-56 2q16 21 27 38.5t18 34.5q6 14 10.5 28.5t7.5 32.5v1z" />
    <glyph glyph-name="ugrave" unicode="&#xf9;" horiz-adv-x="572" 
d="M85 358l160 29l-104 -279q-7 -19 -10 -32t-3 -22q0 -14 10 -23t26 -9q15 0 36.5 7t43.5 20q6 3 11.5 6.5t11.5 7.5l-2 15q0 8 3 19.5t10 30.5l84 228l161 30l-105 -277q-6 -17 -9 -30.5t-3 -23.5q0 -15 9.5 -24t24.5 -9q23 0 57.5 15.5t77.5 45.5l8 -11
q-34 -26 -63 -41.5t-57 -23.5q-18 -6 -36.5 -8t-38.5 -2q-43 0 -71 11.5t-45 36.5q-12 -7 -23 -13t-23 -10q-28 -12 -57 -17.5t-61 -5.5q-54 0 -85.5 21.5t-31.5 58.5q0 9 2 19.5t5 21.5q1 3 1.5 5.5t1.5 5.5l84 227v0zM330 614q4 -20 8 -35t11 -28q7 -16 17.5 -33t26.5 -40
h-56q-42 31 -83 63.5t-77 71.5l153 1v0z" />
    <glyph glyph-name="ucircumflex" unicode="&#xfb;" horiz-adv-x="572" 
d="M85 358l160 29l-104 -279q-7 -19 -10 -32t-3 -22q0 -14 10 -23t26 -9q15 0 36.5 7t43.5 20q6 3 11.5 6.5t11.5 7.5l-2 15q0 8 3 19.5t10 30.5l84 228l161 30l-105 -277q-6 -17 -9 -30.5t-3 -23.5q0 -15 9.5 -24t24.5 -9q23 0 57.5 15.5t77.5 45.5l8 -11
q-34 -26 -63 -41.5t-57 -23.5q-18 -6 -36.5 -8t-38.5 -2q-43 0 -71 11.5t-45 36.5q-12 -7 -23 -13t-23 -10q-28 -12 -57 -17.5t-61 -5.5q-54 0 -85.5 21.5t-31.5 58.5q0 9 2 19.5t5 21.5q1 3 1.5 5.5t1.5 5.5l84 227v0zM325 619h103q6 -35 18 -69.5t30 -66.5l-40 1
q-15 9 -29 20l-28 22q-2 1 -3.5 2t-2.5 3l-16 12l-16 12q-9 -7 -17 -15l-16 -16l-2.5 -2.5l-2.5 -2.5q-10 -9 -19.5 -18t-19.5 -17l-36 1q24 22 42 43t31 42q7 12 13 24t11 24v1z" />
    <glyph glyph-name="udieresis" unicode="&#xfc;" horiz-adv-x="572" 
d="M85 358l160 29l-104 -279q-7 -19 -10 -32t-3 -22q0 -14 10 -23t26 -9q15 0 36.5 7t43.5 20q6 3 11.5 6.5t11.5 7.5l-2 15q0 8 3 19.5t10 30.5l84 228l161 30l-105 -277q-6 -17 -9 -30.5t-3 -23.5q0 -15 9.5 -24t24.5 -9q23 0 57.5 15.5t77.5 45.5l8 -11
q-34 -26 -63 -41.5t-57 -23.5q-18 -6 -36.5 -8t-38.5 -2q-43 0 -71 11.5t-45 36.5q-12 -7 -23 -13t-23 -10q-28 -12 -57 -17.5t-61 -5.5q-54 0 -85.5 21.5t-31.5 58.5q0 9 2 19.5t5 21.5q1 3 1.5 5.5t1.5 5.5l84 227v0zM270 606q26 -1 44 -19t18 -44t-18 -44.5t-44 -18.5
t-44.5 18.5t-18.5 44.5t18.5 44t44.5 18v1zM435 606q26 -1 44.5 -19t18.5 -44t-18.5 -44.5t-44.5 -18.5q-25 0 -44 18.5t-19 44.5t19 44t44 18v1z" />
    <glyph glyph-name="dagger" unicode="&#x2020;" 
d="M117 -183l-15 1l98 454q4 17 8 39t7 45q0 2 0.5 5t0.5 6q44 12 70.5 32t44.5 55q-13 -2 -26 -6t-26 -10q-4 -2 -9 -4l-10 -4q-21 -9 -41.5 -17t-40.5 -8q-19 0 -33.5 16.5t-14.5 39.5q0 24 14.5 41.5t33.5 17.5q17 0 37.5 -8.5t43.5 -18.5q8 -3 15.5 -6.5t15.5 -7.5
q12 -4 23 -7.5t22 -4.5l2 31q-1 14 -2 28.5t-2 28.5t-2 28.5t-2 29.5q0 30 16 46.5t45 16.5q30 0 51 -17t21 -41q0 -15 -15 -36t-34 -43q-3 -3 -5.5 -6t-5.5 -6q-15 -17 -29.5 -33t-22.5 -29q13 3 31 9.5t36 13.5q26 10 49 18t34 8q20 0 33.5 -15.5t13.5 -38.5
q0 -22 -14.5 -39.5t-33.5 -17.5q-10 0 -32.5 8t-47.5 18q-1 1 -2.5 1t-2.5 1q-20 7 -38.5 13.5t-31.5 9.5l-3 -19q0 -25 13.5 -42.5t37.5 -25.5q-1 -2 -2 -3.5t-3 -3.5q-5 -8 -10.5 -17t-11.5 -18q-4 -9 -9 -18t-10 -20l-229 -470v0z" />
    <glyph glyph-name="cent" unicode="&#xa2;" 
d="M270 142l-27 -73h-37l26 73q-91 1 -135 25.5t-44 73.5q0 22 6 46t17 48q16 39 43 75.5t60 63.5q2 2 4.5 4t5.5 4q38 29 79 43t90 14h3.5h2.5h6.5t8.5 -1l21 58l37 1l-23 -62q50 -12 74 -33.5t24 -53.5q0 -4 -2 -14t-6 -21q-4 -13 -11.5 -24.5t-16.5 -11.5q-4 0 -6.5 4
t-3.5 9q-4 33 -19 62.5t-45 47.5l-125 -339q54 1 104.5 18.5t98.5 39.5l8 -11q-50 -30 -105.5 -46.5t-112.5 -20.5v1zM368 510q-47 -5 -84 -56t-59 -111q-12 -34 -18.5 -66t-6.5 -56q0 -22 9.5 -36t31.5 -22l127 347v0z" />
    <glyph glyph-name="sterling" unicode="&#xa3;" 
d="M452 342l-20 -30h-116q0 -46 -20 -84t-50 -70q51 -11 90 -16.5t67 -5.5q16 0 30.5 3t29.5 6q2 1 4.5 1.5t5.5 1.5q6 1 12.5 3t12.5 3q3 0 4.5 -1.5t1.5 -3.5q0 -3 -15 -27.5t-35 -52.5q-5 -7 -10.5 -14t-10.5 -14q-18 -21 -34 -36t-26 -15h-0.5h-1.5q-18 0 -41 4.5
t-70 15.5l-105 27l-20 5q-29 -18 -50.5 -27.5t-41.5 -13.5q-8 -1 -15.5 -1h-15.5q-38 0 -59.5 17.5t-21.5 49.5q0 49 43.5 81t110.5 32h2.5h3.5q21 0 45 -4t64 -12q-1 32 -10.5 68.5t-27.5 79.5l-127 1l17 31l101 -1q-4 14 -6 25t-3 21q-1 8 -1.5 15t-0.5 16
q0 117 75.5 178.5t186.5 61.5q11 0 22.5 -1t22.5 -3q50 -10 92 -42t42 -88q0 -25 -17.5 -41.5t-44.5 -16.5q-5 0 -9 2t-4 5q1 4 2 7.5t2 7.5q1 5 2 11t1 12q0 50 -37 87t-88 37q-52 0 -77.5 -36.5t-25.5 -85.5q0 -43 7.5 -86.5t17.5 -85.5l140 -1v0zM111 46q-21 6 -43 12.5
t-45 10.5q-11 2 -21.5 3t-21.5 1q-14 0 -22 -6t-8 -16q0 -13 21 -21.5t51 -8.5q25 0 46.5 5.5t42.5 18.5v1z" />
    <glyph glyph-name="section" unicode="&#xa7;" 
d="M303 77q11 -20 17.5 -35t10.5 -29q2 -9 3 -17t1 -18q0 -73 -58.5 -117t-156.5 -44q-64 0 -102.5 25.5t-38.5 68.5q0 19 10.5 34.5t23.5 26.5l4 1h0.5t0.5 -1q1 0 1.5 -1.5t0.5 -2.5q0 -2 -0.5 -3.5t-1.5 -2.5q-2 -6 -3.5 -12t-1.5 -13q0 -40 30 -68t71 -28q35 0 63 21.5
t28 49.5q0 34 -21.5 73t-47.5 80q-5 7 -9.5 15t-9.5 15q-20 34 -35 67t-15 64q0 7 1 13.5t2 12.5q11 44 55 85.5t117 77.5q-10 22 -15.5 39t-7.5 33q-1 7 -1.5 14t-0.5 15q0 68 54.5 112.5t138.5 44.5q59 0 93.5 -25t34.5 -68q0 -26 -14 -46t-38 -26q4 10 6 18t3 15q1 4 1 8
v9q0 42 -23 70t-58 28q-31 0 -52.5 -22.5t-21.5 -56.5q0 -10 2 -20.5t5 -20.5q8 -26 24 -52t33 -53q24 -37 44 -77t20 -84q0 -51 -41.5 -99t-124.5 -95v1zM251 402q-24 -14 -40.5 -31t-24.5 -34q-4 -7 -5.5 -13.5t-1.5 -13.5q0 -14 6 -31t19 -39l90 -149q3 1 6.5 3.5
t6.5 5.5q20 15 36.5 34.5t16.5 45.5q0 12 -3.5 26.5t-10.5 29.5q-2 5 -4.5 10t-5.5 10l-85 146v0z" />
    <glyph glyph-name="paragraph" unicode="&#xb6;" 
d="M507 623q-4 1 -7.5 2t-6.5 2t-5.5 2t-5.5 1l-8 2t-10 2l-281 -787l-76 -30l165 469q-12 -5 -22 -7t-20 -3q-7 0 -13.5 -0.5t-13.5 -0.5q-58 0 -91 27t-33 75q0 22 6.5 48.5t17.5 53.5q16 37 39.5 72.5t50.5 60.5l4 4t4 3q36 31 77 42.5t110 11.5q36 0 66 -3t58 -9
q6 -2 11.5 -3t11.5 -3l56 7l-291 -815l-76 -30l283 806v0zM283 318l115 326h-17h-13q-25 0 -40.5 -7.5t-28.5 -25.5q-8 -12 -18.5 -32t-21.5 -44q-7 -14 -13.5 -29.5t-12.5 -31.5q-14 -38 -24 -73t-10 -56q0 -16 12.5 -27t31.5 -11h1.5h1.5q8 0 16 2.5t21 7.5v1z" />
    <glyph glyph-name="germandbls" unicode="&#xdf;" horiz-adv-x="653" 
d="M662 87l-5 -15q-12 3 -23.5 7t-23.5 8t-25 7.5t-27 7.5q-6 2 -13 3.5t-14 3.5q-37 -50 -95.5 -75t-122.5 -34q-28 -4 -56.5 -5.5t-54.5 -1.5l-41 1q-1 -4 -2.5 -8.5t-2.5 -9.5q-17 -50 -50.5 -92.5t-94.5 -42.5q-5 0 -9 2.5t-4 6.5q5 15 10 38t10 47q3 20 6.5 39.5
t6.5 33.5q-26 8 -38.5 21t-12.5 32q0 23 18.5 40.5t55.5 27.5q11 54 24 107.5t26 106.5q29 107 67 172.5t95 105.5q23 16 50 28.5t55 20.5q18 5 36.5 7.5t35.5 2.5q53 0 83.5 -22t30.5 -60q0 -64 -49.5 -114.5t-108.5 -86.5q-23 -14 -46 -26t-43 -22q-19 -9 -25.5 -13.5
t-6.5 -6.5t2 -3t4 -1q24 4 48 7t49 3q85 0 135 -35t50 -96q0 -7 -0.5 -13.5t-1.5 -13.5q-2 -11 -6.5 -22.5t-12.5 -26.5q30 -9 59.5 -19.5t57.5 -22.5v1zM166 8l31 -1q69 -1 121 26t83 90q-8 2 -16.5 3.5t-16.5 2.5q-29 4 -58.5 6t-61.5 2h-52l-30 -129v0zM51 113
q-19 -8 -29.5 -21.5t-10.5 -32.5q0 -13 6 -21t17 -12l17 87v0zM201 154q16 1 26.5 1.5t20.5 0.5h8.5h9.5q25 0 48 -1.5t45 -3.5q12 -2 24.5 -4t25.5 -5q5 16 7.5 27.5t3.5 22.5v6v6q0 47 -28 76t-75 29l-37 1q-10 -1 -16 3.5t-6 12.5q0 10 28.5 44.5t62.5 79.5q13 17 26 36
t25 37q17 30 28.5 58.5t11.5 53.5q0 11 -6.5 18t-17.5 7q-35 0 -64.5 -45t-51.5 -99q-14 -35 -23.5 -67.5t-14.5 -52.5l-61 -242v0z" />
    <glyph glyph-name="registered" unicode="&#xae;" horiz-adv-x="737" 
d="M347 -7q-129 0 -216 86t-87 214q0 152 114.5 265.5t266.5 113.5q130 0 216.5 -86t86.5 -215q0 -152 -114 -265t-267 -113v0zM352 37q133 -1 232.5 98t99.5 231q0 112 -75.5 187t-188.5 75q-133 0 -232.5 -99t-99.5 -230q0 -112 76 -187.5t188 -75.5v1zM181 214l-18 -10
q-16 27 -24 54.5t-8 53.5q0 95 94 159.5t232 64.5q80 0 121.5 -29t41.5 -85q0 -64 -47 -102t-104 -56q-13 -4 -26.5 -7.5t-26.5 -5.5q27 -5 44.5 -15.5t30.5 -22.5q5 -4 9 -8t9 -8q11 -10 23 -17t29 -7h3.5h3.5q4 1 9 2.5t13 4.5v-18q-17 -8 -30.5 -13t-26.5 -8l-18 -2
t-20 -1q-50 0 -81 22.5t-58 61.5q-1 2 -2.5 4.5t-3.5 4.5q-1 -4 -2.5 -7.5t-2.5 -6.5q-6 -20 -15 -36.5t-31 -24.5q-19 -7 -37.5 -11.5t-35.5 -6.5q11 25 18 52.5t14 56.5q0 2 0.5 4.5t1.5 4.5q11 49 27.5 95.5t52.5 81.5l2.5 2.5t3.5 2.5q12 12 26.5 22.5t29.5 20.5
q10 6 20.5 11.5t19.5 9.5l11 -7q-18 -26 -34 -60.5t-29 -71.5q-9 -28 -17 -55t-13 -50q71 17 119 67.5t48 108.5q0 40 -21.5 61.5t-59.5 21.5q-109 0 -195.5 -72.5t-86.5 -164.5q0 -22 4 -37.5t13 -29.5v1z" />
    <glyph glyph-name="copyright" unicode="&#xa9;" horiz-adv-x="737" 
d="M347 -7q-129 0 -216 86t-87 214q0 152 114.5 265.5t266.5 113.5q130 0 216.5 -86t86.5 -215q0 -152 -114 -265t-267 -113v0zM352 37q133 -1 232.5 98t99.5 231q0 112 -75.5 187t-188.5 75q-133 0 -232.5 -99t-99.5 -230q0 -112 76 -187.5t188 -75.5v1zM540 195l5 -14
q-46 -21 -82 -31t-70 -13q-9 -1 -17.5 -1.5t-17.5 -0.5q-85 0 -136.5 43.5t-51.5 116.5q0 94 80 166t183 72q52 0 81 -27t29 -76v-8t-1 -8q-7 -65 -62 -120.5t-120 -61.5h-5.5h-5.5q-28 0 -45.5 13.5t-17.5 34.5q0 43 34 77t74 56q16 9 31.5 15.5t28.5 11.5l6 -13
q-30 -15 -58.5 -35.5t-50.5 -41.5q-20 -20 -32 -39.5t-12 -33.5q0 -10 7 -17t17 -7q13 0 28 7t31 18q22 17 43 42t38 51q16 25 25.5 49t9.5 41q0 23 -16 39t-39 16q-52 0 -97.5 -53t-72.5 -116q-14 -33 -21.5 -64t-7.5 -55q0 -34 28 -54.5t75 -20.5q38 0 82 9.5t103 31.5v1z
" />
    <glyph glyph-name="trademark" unicode="&#x2122;" horiz-adv-x="1051" 
d="M350 413l-8 -18q-8 2 -15 4.5t-14 4.5q-8 1 -15 2t-15 1q-41 0 -70 -19.5t-29 -48.5q0 -19 18.5 -32t46.5 -13h4h4q18 2 35.5 9.5t30.5 19.5q23 22 33.5 48.5t19.5 53.5q1 6 2.5 11t3.5 10q12 40 37 77.5t90 64.5l10 -8q-7 -13 -12 -29.5t-10 -36.5q-4 -17 -8.5 -36.5
t-10.5 -39.5q-18 -60 -64.5 -111t-157.5 -51q-43 0 -68 17.5t-25 48.5q0 36 31 63.5t72 27.5q13 0 27 -2.5t29 -7.5q7 -2 14 -5l14 -6v1zM810 318l-109 -33l134 356l2 7q0 1 -1 2.5t-2 1.5q-1 1 -1.5 1h-0.5q-8 0 -23.5 -22.5t-32.5 -57.5q-1 -3 -2.5 -5.5t-2.5 -5.5
q-10 -23 -23 -54.5t-30 -64.5q-30 -60 -72.5 -110.5t-99.5 -50.5q-13 0 -25.5 4t-24.5 11q-9 5 -13 15.5t-6 22.5q-1 4 -1 7.5t-1 6.5q0 3 -0.5 5t-0.5 4q0 5 2.5 8t6.5 3q3 0 5.5 -2.5t4.5 -7.5q8 -16 20.5 -28.5t26.5 -19.5q6 -3 12 -4.5t11 -1.5q17 0 32 18t30 47
q13 25 25.5 56t27.5 63q31 68 73 125.5t106 57.5q28 0 45 -13.5t17 -36.5q0 -3 -0.5 -6t-0.5 -6q-1 -4 -2 -7l-2 -6l-61 -151q9 18 22 43t29 52q29 48 66.5 88.5t79.5 40.5q16 0 26 -7.5t10 -19.5l-3 -11l-59 -140q-10 -25 -19.5 -50.5t-18.5 -50.5q-2 -5 -3.5 -10t-3.5 -10
q-3 -7 -5.5 -14.5t-5.5 -15.5l-5 -22q0 -10 6.5 -15t18.5 -5q10 0 21.5 3.5t28.5 10.5l7 -16q-18 -8 -32.5 -12t-27.5 -6q-7 -1 -15 -1.5t-16 -0.5q-40 0 -62 14.5t-22 39.5q0 11 5 29.5t18 51.5q15 40 28 71t26 57q15 30 30.5 54.5t33.5 47.5q-9 -7 -18.5 -15.5
t-18.5 -19.5q-25 -28 -49.5 -67t-46.5 -79q-21 -40 -38.5 -78t-29.5 -66v1zM167 414l-16 -11q-17 22 -26.5 41.5t-12.5 38.5q0 5 -0.5 9.5t-0.5 9.5q0 8 1 15.5t3 15.5q8 29 27 56.5t46 46.5q28 20 69 30t88 10q30 0 59.5 -1.5t59.5 -3.5q29 -2 58.5 -3.5t59.5 -1.5
q8 0 12 -1.5t4 -6.5q-1 -4 -2.5 -8.5t-3.5 -8.5q-1 -5 -2.5 -9t-3.5 -9q-2 -7 -4 -12t-3 -9q-4 -7 -9 -8.5t-17 -1.5q-32 0 -64.5 2t-64.5 5t-64.5 5t-64.5 2q-79 0 -120 -25.5t-41 -75.5q0 -7 0.5 -13t1.5 -13q4 -15 11 -30.5t20 -35.5v1z" />
    <glyph glyph-name="acute" unicode="&#xb4;" horiz-adv-x="500" 
d="M318 614h153q-25 -28 -52 -51t-55 -44q-6 -5 -11.5 -9.5t-11.5 -8.5q-7 -6 -14.5 -12t-15.5 -12l-56 2q16 21 27 38.5t18 34.5q6 14 10.5 28.5t7.5 32.5v1z" />
    <glyph glyph-name="dieresis" unicode="&#xa8;" horiz-adv-x="500" 
d="M234 606q26 -1 44 -19t18 -44t-18 -44.5t-44 -18.5t-44.5 18.5t-18.5 44.5t18.5 44t44.5 18v1zM399 606q26 -1 44.5 -19t18.5 -44t-18.5 -44.5t-44.5 -18.5q-25 0 -44 18.5t-19 44.5t19 44t44 18v1z" />
    <glyph glyph-name="AE" unicode="&#xc6;" horiz-adv-x="1042" 
d="M864 398l-9 13q10 7 21 16.5t23 19.5q29 28 55 62t32 70q1 4 1.5 8.5t0.5 9.5q0 20 -10.5 32.5t-26.5 12.5q-30 0 -57.5 -41t-48.5 -89q-14 -32 -24 -62l-16 -48q-4 -13 -7.5 -23t-7.5 -19q-8 -19 -17.5 -28t-24.5 -13l-48 -12q-4 -2 -8 -3.5t-8 -2.5q-59 -21 -108.5 -69
t-49.5 -114q0 -52 32.5 -83t87.5 -31q25 0 56 8.5t63 23.5q49 23 93.5 56t70.5 68q12 16 18.5 32t6.5 31q0 13 -5 22t-16 16l9 14q28 -18 43 -41.5t15 -49.5v-4.5v-4.5q-4 -36 -29.5 -69.5t-68.5 -58.5q-54 -32 -115.5 -46.5t-138.5 -14.5q-126 0 -195.5 39t-69.5 112
q0 34 11 67t24 64q5 11 9 21l8 20l-81 1q-14 -27 -30.5 -61.5t-35.5 -70.5q-38 -70 -89 -127.5t-121 -57.5q-45 0 -73 30.5t-28 79.5v8t1 8q6 60 51.5 113.5t111.5 75.5q32 11 65 16.5t67 7.5q13 0 26.5 0.5t26.5 0.5q16 34 33.5 69t36.5 70q31 58 58.5 97.5t54.5 63.5
q24 21 48.5 31t50.5 10q40 0 61.5 -20t21.5 -57q0 -7 -0.5 -14.5t-2.5 -14.5q-1 -7 -3 -14.5t-5 -14.5l-83 -210q28 3 56.5 5t56.5 2q19 0 27.5 3.5t8.5 10.5q0 2 -1.5 7t-3.5 11q-2 5 -4.5 10.5t-4.5 10.5q-11 27 -19 54.5t-8 56.5q0 79 50.5 126.5t132.5 47.5
q65 0 106.5 -30t41.5 -77q0 -52 -46.5 -98t-125.5 -72v1zM317 311l-18 1q-80 -1 -142.5 -53.5t-62.5 -137.5q0 -30 13 -46.5t37 -16.5q9 0 18.5 4.5t18.5 12.5q22 18 42.5 50t38.5 67q19 35 33 67.5t22 50.5v1zM443 334l117 303l5 13l-2 2h-0.5h-1.5h-2t-2 -1q-3 0 -7 -3.5
t-10 -10.5q-47 -51 -82 -113t-64 -127q-7 -16 -13.5 -32t-13.5 -32l76 1v0z" />
    <glyph glyph-name="Oslash" unicode="&#xd8;" horiz-adv-x="726" 
d="M644 634q39 -35 62.5 -95t23.5 -125q0 -167 -126.5 -300.5t-295.5 -133.5q-53 0 -99.5 12t-83.5 36l-54 -62l-22 20l53 61q-36 31 -55.5 79t-19.5 106q0 132 88.5 243t243.5 174l8 -12q-53 -45 -93.5 -121.5t-64.5 -160.5q-15 -52 -23 -103t-8 -94v-2.5v-2.5v-8t1 -9
l405 472q-7 23 -22.5 36.5t-35.5 13.5q-53 0 -92.5 -53t-61.5 -117q-12 -36 -18.5 -69t-6.5 -58l-20 -1q-2 9 -3.5 17t-1.5 16q-1 6 -1 12.5v13.5q0 109 59 184.5t144 75.5q12 0 24.5 -1.5t24.5 -5.5t24 -9t24 -13l66 77l21 -19l-64 -74v0zM592 573l-407 -474
q14 -50 43.5 -74.5t74.5 -24.5q28 0 51 8t45 27q3 2 5.5 4.5l4.5 4.5q44 43 82 119.5t63 159.5q18 61 28.5 120t10.5 104v5.5v4.5q0 4 -0.5 7.5t-0.5 7.5v1z" />
    <glyph glyph-name="plusminus" unicode="&#xb1;" 
d="M-59 13l23 67h484l-23 -67h-484v0zM38 294l23 66h205l63 182h73l-63 -182h206l-23 -66h-206l-62 -182h-74l63 182h-205v0z" />
    <glyph glyph-name="yen" unicode="&#xa5;" 
d="M204 273h-123l17 31l118 -1q2 4 3 9l2 10t1.5 10.5t1.5 10.5q0 2 0.5 4.5t0.5 4.5l-116 1l17 31h101l11 130q0 3 0.5 7.5t0.5 8.5q0 8 0.5 15.5t0.5 13.5q0 36 -13.5 57t-36.5 21q-16 0 -26.5 -15.5t-10.5 -41.5v-4v-4q1 -8 2.5 -17t4.5 -22q-19 12 -31.5 26t-15.5 29
q0 3 -0.5 5.5t-0.5 4.5q0 26 21.5 43.5t53.5 17.5q77 0 123 -53t46 -127l-1 -25l-4 -101l99 158q35 55 79 101t117 46q17 0 25 -2.5t8 -8.5l-9 -26q-2 -6 -4.5 -9.5t-5.5 -5.5q-1 0 -2 -0.5t-2 -0.5q-3 2 -6.5 3t-6.5 3q-6 2 -12.5 3.5t-13.5 1.5q-38 0 -66 -24t-48 -55
l-94 -154l117 -1l-20 -30h-116q-2 -4 -4 -7t-3 -6q-6 -9 -10.5 -18t-7.5 -19h133l-20 -30h-124l-91 -251l-165 -34l106 286v0z" />
    <glyph glyph-name="mu" unicode="&#xb5;" horiz-adv-x="558" 
d="M551 458l-111 -321q-8 -25 -12 -40.5t-4 -23.5q0 -11 7 -16.5t21 -5.5h1.5h0.5q5 0 10.5 1t15.5 2l-7 -20l-157 -45l-7 -1q-20 0 -27 13t-8 30q-1 6 -1 11.5v10.5q-32 -27 -54.5 -41t-43.5 -21q-11 -3 -22 -4.5t-23 -1.5q-40 0 -57 17.5t-21 63.5q-10 -26 -14.5 -48
t-4.5 -44l2 -78q0 -39 -25.5 -66.5t-62.5 -27.5q-26 0 -44.5 13.5t-18.5 32.5q0 4 2.5 11.5t7.5 16.5q19 42 38 78t36 71q24 46 45.5 95t42.5 111l77 227h151l-99 -288q-2 -8 -4 -14.5t-4 -13.5q-4 -13 -7 -26.5t-6 -27.5q0 -16 10 -27.5t24 -11.5q17 0 32 9.5t28 20.5
q5 5 9.5 9t9.5 8l124 362h150v0z" />
    <glyph glyph-name="ordfeminine" unicode="&#xaa;" horiz-adv-x="377" 
d="M45 330l13 37h320l-13 -37h-320v0zM437 673l-67 -176l-3 -12t-1 -7q0 -8 6.5 -14t16.5 -6l22 5l-7 -20q-8 -4 -15.5 -5.5t-14.5 -2.5q-6 -1 -12 -1.5t-13 -0.5q-25 0 -42 6t-28 19q-11 -6 -20.5 -10.5t-19.5 -7.5q-11 -4 -23 -5.5t-26 -1.5q-40 0 -61 16t-21 47v6.5
t1 6.5q6 62 57.5 113t117.5 51q20 0 33 -4.5t21 -13.5l99 18v0zM325 642q-7 6 -15 9t-16 3q-7 0 -13 -3t-12 -9q-5 -5 -10 -12.5t-10 -18.5q-1 -1 -1.5 -2.5t-0.5 -2.5q-17 -38 -28.5 -72t-11.5 -50q0 -11 7 -18t18 -7q7 0 15.5 3t24.5 12l-2 11q0 3 0.5 8t2.5 10q0 3 1 6.5
t2 6.5l49 126v0z" />
    <glyph glyph-name="ordmasculine" unicode="&#xba;" horiz-adv-x="321" 
d="M45 330l13 37h264l-13 -37h-264v0zM364 515q3 -2 5 -3t5 -2q4 -1 9.5 -1.5t13.5 -0.5l-5 -15q-7 -1 -12.5 -0.5t-9.5 1.5t-7.5 2t-7.5 2q-26 -44 -61.5 -65.5t-82.5 -21.5q-51 0 -75 17.5t-24 54.5q0 6 0.5 13t2.5 13q7 38 33.5 73.5t62.5 54.5q4 2 9 4t11 4q9 4 17.5 6
t12.5 2t7 -2.5t3 -5.5l-5 -10q-2 -4 -4.5 -7.5t-4.5 -7.5q-10 -16 -19.5 -37.5t-16.5 -43.5q-7 -21 -11 -41t-4 -36q0 -15 6.5 -23.5t17.5 -8.5q7 0 13 2.5t13 6.5q13 10 26 29.5t26 49.5q-15 20 -23 42t-8 46q0 30 14.5 48.5t36.5 18.5q26 0 40.5 -21.5t14.5 -58.5
q0 -20 -4.5 -39.5t-14.5 -39.5v1zM315 545q3 10 5 18.5t3 15.5q1 5 1 9v9q0 24 -4.5 39.5t-11.5 15.5q-4 0 -7 -8.5t-3 -22.5q0 -18 4 -37t13 -40v1z" />
    <glyph glyph-name="ae" unicode="&#xe6;" horiz-adv-x="654" 
d="M495 391l-8 -21q17 10 34.5 15.5t35.5 5.5q27 0 44 -17.5t17 -45.5q0 -64 -62.5 -121.5t-166.5 -89.5q-2 -10 -3.5 -17t-1.5 -13v-2.5v-2.5q0 -30 21.5 -47.5t58.5 -17.5q26 0 57 7t62 19q19 7 37.5 16t35.5 20l9 -15q-47 -29 -98 -45.5t-103 -21.5q-12 -1 -23.5 -1.5
t-22.5 -0.5t-23 0.5t-24 1.5q-28 2 -55 10.5t-47 29.5q-29 -15 -55 -24.5t-51 -13.5q-12 -2 -24.5 -3t-25.5 -1q-57 0 -86 24t-29 72q0 22 4.5 46.5t14.5 48.5q13 36 34.5 70.5t48.5 62.5q37 38 78.5 55t92.5 17q34 0 53 -7t33 -24l138 31v0zM344 348q-8 13 -19 19t-27 6
q-18 0 -33 -9t-26 -27q-8 -13 -19 -34t-23 -46q-6 -14 -11.5 -28t-11.5 -28q-15 -38 -25.5 -73.5t-10.5 -56.5q0 -19 13 -33.5t31 -14.5q17 0 36.5 9.5t39.5 27.5l-5 26q0 7 2 18t6 24q1 4 2.5 8.5t3.5 8.5l77 203v0zM396 131q14 9 33 26.5t39 38.5q13 14 25 28t24 29
q21 28 35 54.5t14 45.5q0 11 -6 17.5t-16 6.5q-33 0 -70 -62t-78 -185v1z" />
    <glyph glyph-name="oslash" unicode="&#xf8;" horiz-adv-x="482" 
d="M412 362q2 -10 4 -17.5t3 -13.5q1 -7 1.5 -14.5t0.5 -16.5q0 -28 -5 -55t-16 -54q-3 -9 -7 -18t-9 -18q9 -3 16.5 -5t14.5 -4q6 -1 12.5 -1.5t14.5 -0.5h10t10 1q10 0 21.5 2t25.5 6l4 -16q-13 -4 -23 -5.5t-20 -2.5q-5 -1 -10.5 -1h-11.5q-10 0 -18.5 0.5t-16.5 2.5
q-9 1 -17.5 3.5t-18.5 5.5q-43 -77 -98.5 -112.5t-131.5 -35.5h-13.5t-13.5 1t-13.5 1.5t-13.5 2.5l-36 -41l-18 15l28 32q-36 11 -53 36.5t-17 65.5q0 13 1.5 26t3.5 26q15 62 58 119t102 87q7 4 14.5 7t14.5 6q16 6 30.5 10t23.5 4q5 0 7.5 -2t2.5 -6q0 -2 -1.5 -6
t-6.5 -10q-3 -5 -6.5 -10.5t-7.5 -10.5q-20 -33 -39.5 -72.5t-33.5 -79.5q-10 -29 -17 -58t-8 -55l135 156q-2 4 -4 9t-3 9q-5 15 -7.5 29.5t-2.5 30.5q0 50 21.5 79.5t57.5 29.5q21 0 37.5 -9.5t30.5 -29.5l52 61l19 -16l-59 -67v0zM281 212l-145 -165q5 -18 14.5 -26.5
t24.5 -8.5q32 0 58.5 28.5t44.5 62.5q11 19 18.5 36.5t13.5 30.5q-6 7 -10.5 13t-7.5 11q-1 1 -2 2.5t-2 3.5q-2 2 -3.5 5t-3.5 6v1zM330 268l-32 -36q2 -6 4 -9.5t3 -6.5q1 -2 1.5 -3.5t1.5 -2.5q2 -3 4 -6.5t5 -7.5q2 7 3 14l2 14v4t1 4q1 9 2.5 17.5t4.5 17.5v1zM289 258
l43 50v3q0 41 -7.5 64.5t-20.5 23.5t-21 -17t-8 -45q0 -11 2 -25.5t5 -28.5q2 -7 3.5 -13.5t3.5 -12.5v1z" />
    <glyph glyph-name="questiondown" unicode="&#xbf;" horiz-adv-x="296" 
d="M78 -248l-199 -32l215 451l21 -2l-37 -417v0zM130 230q-33 -1 -57 23t-24 58t23.5 57.5t57.5 23.5q35 0 58.5 -23.5t23.5 -57.5t-24 -58t-58 -24v1z" />
    <glyph glyph-name="exclamdown" unicode="&#xa1;" horiz-adv-x="363" 
d="M168 -85l22 1l2 -36q0 -73 -47.5 -118t-124.5 -45q-67 0 -109.5 36t-42.5 92q0 52 39 92t86 70t86 55t39 47q0 11 -8.5 18t-21.5 7q-19 0 -40 -11.5t-43 -34.5l-11 6l18 49q21 5 36.5 8t29.5 4q6 1 12.5 1h13.5q56 0 88 -26.5t32 -72.5q0 -48 -40.5 -85t-88.5 -69
q-23 -14 -44 -28t-39 -28q-20 -16 -33 -32.5t-13 -34.5q0 -16 12 -25.5t31 -9.5q8 0 16 1.5t16 4.5q42 14 78 55.5t46 88.5l2 10t1 10v0zM148 230q-34 -1 -57.5 23t-23.5 58t23.5 57.5t57.5 23.5t58 -23.5t24 -57.5t-24 -58t-58 -24v1z" />
    <glyph glyph-name="logicalnot" unicode="&#xac;" horiz-adv-x="500" 
d="M291 0v190h-263v77h444v-267h-181v0z" />
    <glyph glyph-name="florin" unicode="&#x192;" 
d="M507 411l-15 -31h-138q-13 -47 -29.5 -107.5t-38.5 -123.5q-42 -121 -112.5 -221t-188.5 -100q-56 0 -89 20t-33 55q0 26 21 44.5t50 18.5q7 0 12 -2.5t5 -6.5q0 -6 -4.5 -11.5t-10.5 -12.5q-5 -7 -9.5 -16t-4.5 -20q0 -20 12 -32.5t32 -12.5q58 0 104.5 86t79.5 190
q24 77 40.5 146.5t25.5 104.5l-118 1l11 31h117l0.5 1.5t0.5 2.5q3 8 5.5 16.5t5.5 17.5q16 52 40 100.5t70 80.5q34 24 75 36.5t85 12.5q55 0 89 -20t34 -53q0 -23 -19 -40.5t-41 -23.5q-5 -2 -10 -2.5t-10 -0.5q-4 0 -7.5 2t-3.5 5q0 5 3 11.5t7 13.5l6 16t3 17
q0 23 -13 37t-34 14q-45 0 -81.5 -60t-66.5 -184h143v0z" />
    <glyph glyph-name="guillemotleft" unicode="&#xab;" horiz-adv-x="563" 
d="M159 330h147q-10 -13 -21 -24.5t-23 -22.5q-17 -16 -37.5 -32.5t-47.5 -36.5l97 -126h-156l-85 123q8 4 15.5 9.5t15.5 11.5q18 14 36.5 31.5t33.5 34.5q7 8 13.5 15.5t11.5 15.5v1zM386 330h147q-10 -13 -21 -24.5t-23 -22.5q-17 -16 -37.5 -32.5t-47.5 -36.5l97 -126
h-156l-85 123q6 3 12.5 7.5t13.5 9.5q20 15 39.5 33t36.5 37q7 8 13 15.5t11 15.5v1z" />
    <glyph glyph-name="guillemotright" unicode="&#xbb;" horiz-adv-x="563" 
d="M177 88h-147q10 11 21 22.5t23 22.5q17 16 37.5 33t47.5 36l-97 128h156l85 -123q-6 -5 -12.5 -9.5t-13.5 -9.5q-20 -15 -39.5 -33t-36.5 -37q-7 -8 -13 -15.5t-11 -15.5v1zM404 88h-147q10 11 21 22.5t23 22.5q17 16 37.5 33t47.5 36l-97 128h156l85 -123
q-7 -6 -15 -11.5t-16 -11.5q-18 -14 -36.5 -31.5t-33.5 -34.5q-7 -8 -13.5 -15.5t-11.5 -15.5v1z" />
    <glyph glyph-name="ellipsis" unicode="&#x2026;" horiz-adv-x="890" 
d="M134 156q33 -1 57 -25t24 -57q0 -34 -23.5 -57.5t-57.5 -23.5t-58 23.5t-24 57.5t24 57.5t58 23.5v1zM430 156q34 -1 58 -25t24 -57q0 -34 -24 -57.5t-58 -23.5t-57.5 23.5t-23.5 57.5t23.5 57.5t57.5 23.5v1zM727 156q34 -1 57.5 -25t23.5 -57q0 -34 -23.5 -57.5
t-57.5 -23.5t-58 23.5t-24 57.5t24 57.5t58 23.5v1z" />
    <glyph glyph-name="Agrave" unicode="&#xc0;" horiz-adv-x="948" 
d="M955 335l-26 -39q-21 -1 -42 -1t-42 1l-83 -219q-2 -7 -3 -13.5t-1 -13.5q0 -17 10.5 -26t31.5 -9t51.5 10.5t62.5 27.5q12 7 23.5 14t22.5 15v-22q-16 -12 -32 -21.5t-32 -17.5q-37 -18 -76 -26t-81 -8q-61 0 -95 23.5t-34 66.5q0 14 4 32t11 37l57 152q-14 0 -24.5 0.5
t-19.5 0.5q-9 1 -19.5 1.5t-24.5 0.5q-83 -160 -185 -235t-235 -75q-90 0 -143 37t-53 99q0 56 38.5 101.5t106.5 70.5q52 20 108.5 28t133.5 8q23 0 46 -1l46 -2q2 -1 4.5 -1h4.5q25 -1 50.5 -2t50.5 -1q13 29 30 67.5t39 78.5q40 75 95 137.5t123 62.5q40 0 66 -20.5
t26 -51.5q0 -18 -6 -44t-17 -55l-65 -174q5 -1 10 -1h9q10 1 17.5 1t15.5 1q10 0 20.5 1t24.5 3v1zM554 304q-20 2 -43.5 4t-47.5 3q-26 2 -50.5 3t-45.5 1q-14 0 -28 -1t-28 -3q-76 -12 -138.5 -56.5t-62.5 -130.5q0 -48 31 -77.5t82 -29.5q17 0 34.5 3t35.5 9
q75 25 145 98t116 176v1zM693 327l114 304q2 3 3 7l2 8q0 2 -1 3t-3 1l-6 -1q-54 -44 -90 -105t-65 -125q-7 -15 -13.5 -29.5t-12.5 -28.5q-4 -9 -8 -17.5t-8 -17.5h53l35 1v0zM852 874q4 -20 8 -35t11 -28q7 -16 17.5 -33t26.5 -40h-56q-42 31 -83 63.5t-77 71.5l153 1v0z
" />
    <glyph glyph-name="Atilde" unicode="&#xc3;" horiz-adv-x="948" 
d="M955 335l-26 -39q-21 -1 -42 -1t-42 1l-83 -219q-2 -7 -3 -13.5t-1 -13.5q0 -17 10.5 -26t31.5 -9t51.5 10.5t62.5 27.5q12 7 23.5 14t22.5 15v-22q-16 -12 -32 -21.5t-32 -17.5q-37 -18 -76 -26t-81 -8q-61 0 -95 23.5t-34 66.5q0 14 4 32t11 37l57 152q-14 0 -24.5 0.5
t-19.5 0.5q-9 1 -19.5 1.5t-24.5 0.5q-83 -160 -185 -235t-235 -75q-90 0 -143 37t-53 99q0 56 38.5 101.5t106.5 70.5q52 20 108.5 28t133.5 8q23 0 46 -1l46 -2q2 -1 4.5 -1h4.5q25 -1 50.5 -2t50.5 -1q13 29 30 67.5t39 78.5q40 75 95 137.5t123 62.5q40 0 66 -20.5
t26 -51.5q0 -18 -6 -44t-17 -55l-65 -174q5 -1 10 -1h9q10 1 17.5 1t15.5 1q10 0 20.5 1t24.5 3v1zM554 304q-20 2 -43.5 4t-47.5 3q-26 2 -50.5 3t-45.5 1q-14 0 -28 -1t-28 -3q-76 -12 -138.5 -56.5t-62.5 -130.5q0 -48 31 -77.5t82 -29.5q17 0 34.5 3t35.5 9
q75 25 145 98t116 176v1zM693 327l114 304q2 3 3 7l2 8q0 2 -1 3t-3 1l-6 -1q-54 -44 -90 -105t-65 -125q-7 -15 -13.5 -29.5t-12.5 -28.5q-4 -9 -8 -17.5t-8 -17.5h53l35 1v0zM1021 859l17 -11q-25 -46 -52.5 -69.5t-56.5 -23.5q-9 0 -18.5 2t-19.5 5q-8 2 -16.5 5.5
t-17.5 7.5q-18 7 -34.5 13t-30.5 6q-11 0 -19 -4.5t-15 -15.5q-1 -2 -2 -3.5t-2 -3.5l-18 11q19 38 45.5 61t54.5 27h4h4q18 0 35 -6t33 -14q5 -2 9.5 -4t8.5 -4q12 -5 24 -8.5t24 -3.5q14 0 24.5 8t18.5 24v1z" />
    <glyph glyph-name="Otilde" unicode="&#xd5;" horiz-adv-x="728" 
d="M346 362l-20 -2q-2 10 -3.5 18t-1.5 16q-1 6 -1 12v12q0 110 59 185.5t144 75.5q87 0 146.5 -76t59.5 -189q0 -168 -127 -301t-296 -133q-130 0 -205 67t-75 185q0 132 88.5 243t243.5 174l8 -12q-52 -43 -92.5 -119.5t-64.5 -159.5q-15 -54 -23.5 -105.5t-8.5 -94.5
q0 -74 34 -116.5t92 -42.5q47 0 86.5 29t77.5 95q7 12 13.5 24.5t13.5 26.5q17 36 32.5 76t27.5 81q17 59 27.5 115.5t10.5 99.5q0 51 -18 81.5t-49 30.5q-53 0 -92.5 -53t-61.5 -117q-12 -36 -18.5 -69t-6.5 -58v1zM677 859l17 -11q-25 -46 -52.5 -69.5t-56.5 -23.5
q-9 0 -18.5 2t-19.5 5q-8 2 -16.5 5.5t-17.5 7.5q-18 7 -34.5 13t-30.5 6q-11 0 -19 -4.5t-15 -15.5q-1 -2 -2 -3.5t-2 -3.5l-18 11q19 38 45.5 61t54.5 27h4h4q18 0 35 -6t33 -14q5 -2 9.5 -4t8.5 -4q12 -5 24 -8.5t24 -3.5q14 0 24.5 8t18.5 24v1z" />
    <glyph glyph-name="OE" unicode="&#x152;" horiz-adv-x="1081" 
d="M346 361l-21 -1q-2 13 -2.5 23.5t-1.5 20.5v9.5v9.5q0 19 3 40.5t9 43.5q18 64 61 118t111 54q72 0 110 -54.5t52 -119.5q4 -21 6 -41t2 -39v-9.5v-8.5q-1 -13 -2 -27.5t-4 -34.5l20 1q32 -1 44.5 3.5t12.5 14.5q0 5 -3.5 12.5t-14.5 23.5q-12 19 -19.5 40t-9.5 43
q-1 6 -1.5 12.5t-0.5 12.5q0 74 52 122t133 48q62 0 105 -29.5t43 -72.5q0 -56 -39 -91.5t-85 -59.5q-12 -7 -24.5 -12.5t-23.5 -10.5l-8 15q10 7 21 16.5t22 20.5q28 27 53 60t32 67q2 6 2.5 11.5t0.5 11.5q0 20 -11 32.5t-28 12.5q-29 0 -54 -37.5t-44 -83.5
q-12 -28 -21 -55t-15 -44q-12 -31 -19 -48.5t-13 -26.5q-3 -6 -7 -10t-9 -8q-2 -2 -5 -4.5t-7 -4.5q-9 -7 -19 -13.5t-20 -13.5q-47 -35 -86.5 -79t-39.5 -106q0 -52 31.5 -84t82.5 -32q26 0 54 6.5t57 19.5q39 18 76.5 45.5t69.5 62.5q25 27 36.5 48t11.5 38q0 8 -2 14
t-6 12q-2 4 -5.5 7.5l-7.5 7.5l9 14q10 -8 18 -14.5t15 -13.5q14 -15 20 -30t6 -34q0 -6 -1 -12.5t-2 -13.5q-10 -37 -43 -72t-81 -57q-42 -19 -90 -30.5t-97 -14.5q-11 -1 -21.5 -1.5t-20.5 -0.5q-68 0 -124.5 15t-97.5 46q-33 -19 -63 -31t-60 -19q-19 -5 -39 -7t-41 -2
q-108 0 -174.5 69t-66.5 181q0 132 91 247t240 170l9 -13q-64 -61 -106.5 -147.5t-62.5 -179.5q-8 -39 -12.5 -77.5t-4.5 -75.5q0 -72 25.5 -113t70.5 -41q18 0 35.5 6.5t34.5 20.5q16 13 33.5 34.5t35.5 51.5q30 49 57.5 115.5t47.5 135.5q15 54 23.5 106.5t8.5 97.5
q0 46 -11.5 67.5t-35.5 21.5q-8 0 -15.5 -2.5t-15.5 -7.5q-43 -26 -80.5 -108.5t-48.5 -180.5v1z" />
    <glyph glyph-name="oe" unicode="&#x153;" horiz-adv-x="656" 
d="M657 79l8 -15q-49 -29 -89.5 -44.5t-79.5 -21.5q-14 -2 -28.5 -3t-28.5 -1q-48 0 -84.5 14.5t-59.5 43.5q-18 -13 -35.5 -23t-34.5 -17q-23 -9 -46 -13t-49 -4q-61 0 -97 27.5t-36 74.5q0 22 5 46.5t15 50.5q14 38 37 75t50 62q32 29 75.5 45.5t89.5 16.5q40 0 66 -14
t39 -43q47 29 85 42.5t75 13.5q38 0 60 -18.5t22 -50.5q0 -62 -46.5 -104t-102.5 -68q-18 -8 -35.5 -15t-33.5 -12q-1 -7 -1.5 -11.5t-1.5 -8.5v-4v-4q0 -37 22.5 -58t61.5 -21q38 0 81.5 15t96.5 46v1zM169 17q8 -1 16.5 4t16.5 14q21 21 41 61.5t36 84.5q17 47 27.5 89.5
t10.5 62.5t-9 31.5t-24 11.5h-2.5h-3.5q-30 -6 -59 -56.5t-50 -111.5q-15 -44 -24 -85t-9 -63q0 -19 9 -31.5t24 -12.5v1zM400 138q14 8 31 23t35 34q14 15 27.5 31t25.5 32q19 26 31 51t12 44q0 11 -5.5 17t-15.5 6q-29 0 -56 -40t-47 -88q-14 -33 -23.5 -63t-14.5 -48v1z
" />
    <glyph glyph-name="emdash" unicode="&#x2014;" horiz-adv-x="703" 
d="M673 232l-46 -64h-679l47 64h678v0z" />
    <glyph glyph-name="quotedblleft" unicode="&#x201c;" horiz-adv-x="499" 
d="M295 464l-149 -85q-15 12 -25.5 24t-15.5 24q-3 7 -4.5 14t-1.5 14q0 15 6.5 31t16.5 32q17 25 42 49t52 45q25 20 48.5 35.5t40.5 25.5l10 -12q-21 -18 -37 -37t-26 -39q-8 -15 -12.5 -30.5t-4.5 -29.5q0 -21 11 -34t27 -13l13 2l9 -16v0zM510 464l-149 -85
q-15 12 -25.5 24t-15.5 24q-3 7 -4.5 14t-1.5 14q0 15 6.5 31t17.5 32q16 24 41 48t51 45q26 20 49.5 36t40.5 26l10 -12q-21 -18 -36.5 -37t-26.5 -39q-8 -15 -12 -30.5t-4 -29.5q0 -21 10.5 -34t26.5 -13l13 2l9 -16v0z" />
    <glyph glyph-name="quotedblright" unicode="&#x201d;" horiz-adv-x="499" 
d="M134 590l149 84q15 -13 25 -24.5t15 -22.5q4 -8 5.5 -15.5t1.5 -15.5q0 -15 -6.5 -31.5t-18.5 -32.5q-17 -25 -42 -49t-52 -45q-25 -19 -48 -34.5t-40 -25.5l-9 14q22 17 38 37.5t27 40.5q7 15 10.5 29t3.5 28q0 20 -10 33.5t-27 13.5l-13 -1l-9 17v0zM349 590l149 84
q15 -13 25 -24.5t15 -22.5q4 -8 5.5 -15.5t1.5 -15.5q0 -15 -6.5 -31t-17.5 -32q-17 -25 -42.5 -49.5t-52.5 -45.5q-24 -19 -47 -34.5t-40 -25.5l-10 14q22 17 38.5 37.5t26.5 40.5q8 15 11.5 29t3.5 28q0 20 -10.5 33.5t-27.5 13.5l-13 -1l-9 17v0z" />
    <glyph glyph-name="quoteleft" unicode="&#x2018;" 
d="M217 173q26 -1 44.5 -19.5t18.5 -44.5t-18.5 -44.5t-44.5 -18.5t-44.5 18.5t-18.5 44.5t18.5 44.5t44.5 18.5v1zM21 245l23 66h484l-23 -66h-484v0zM333 509q26 -1 44.5 -19.5t18.5 -44.5q0 -25 -18.5 -44t-44.5 -19t-44.5 19t-18.5 44q0 26 18.5 44.5t44.5 18.5v1z" />
    <glyph glyph-name="quoteright" unicode="&#x2019;" horiz-adv-x="283" 
d="M133 590l149 84q15 -13 25 -24.5t15 -22.5q4 -8 5.5 -15.5t1.5 -15.5q0 -15 -6.5 -31.5t-18.5 -32.5q-17 -25 -42 -49t-52 -45q-25 -19 -48 -34.5t-40 -25.5l-9 14q22 17 38 37.5t27 40.5q7 15 10.5 29t3.5 28q0 20 -10 33.5t-27 13.5l-13 -1l-9 17v0z" />
    <glyph glyph-name="divide" unicode="&#xf7;" horiz-adv-x="667" 
d="M351 693l259 -360l-259 -359l-260 359l260 360v0zM351 604l-197 -271l197 -270l197 270l-197 271v0z" />
    <glyph glyph-name="ydieresis" unicode="&#xff;" horiz-adv-x="560" 
d="M85 364l155 29l-101 -283l-7 -24.5t-3 -17.5q0 -13 9.5 -22.5t22.5 -9.5q11 0 25 5t29 15q10 6 19 13t18 16l99 278l155 28l-139 -389q56 14 106 37t90 52l6 -17q-29 -20 -57 -34.5t-55 -26.5q-24 -10 -47.5 -17t-48.5 -13q-10 -33 -22.5 -53.5t-33.5 -37.5
q-25 -21 -57.5 -35.5t-66.5 -19.5q-8 -2 -17 -2.5t-18 -0.5q-34 0 -56.5 14.5t-22.5 36.5q0 36 35 58t112 36l25 70q-31 -17 -57.5 -26t-51.5 -12q-9 -1 -17 -1.5t-17 -0.5q-46 0 -73.5 20.5t-27.5 54.5q0 12 4 30t11 40l75 210v0zM209 -40q-10 -2 -22 -4.5t-24 -6.5
q-26 -8 -48 -23t-22 -42q0 -13 9 -21t22 -8q27 0 42.5 20.5t26.5 44.5q4 10 7.5 19.5t7.5 17.5q0 1 0.5 1.5t0.5 1.5v0zM264 606q26 -1 44 -19t18 -44t-18 -44.5t-44 -18.5t-44.5 18.5t-18.5 44.5t18.5 44t44.5 18v1zM429 606q26 -1 44.5 -19t18.5 -44t-18.5 -44.5
t-44.5 -18.5q-25 0 -44 18.5t-19 44.5t19 44t44 18v1z" />
    <glyph glyph-name="Ydieresis" unicode="&#x178;" horiz-adv-x="993" 
d="M165 149l-15 -13q-55 58 -83 116.5t-28 118.5q0 115 91.5 189t200.5 102q34 9 67 13.5t63 4.5q71 0 106 -25t35 -75q0 -11 -2 -24t-6 -26q-2 -6 -4.5 -12.5t-5.5 -12.5l-204 -447l-2 -6t-2 -5q-1 -4 -1.5 -8t-0.5 -7q0 -6 4.5 -11t11.5 -5q11 0 28 11t40 33
q74 69 145 165t133 197q35 58 65.5 114.5t56.5 108.5l177 28l-196 -531q-1 -3 -2 -5.5t-2 -4.5v-0.5v-0.5q-1 -4 -3 -8.5t-5 -10.5q16 3 31 6t30 5q26 4 53.5 6.5t64.5 4.5l-20 -32q-28 -1 -56 -2.5t-56 -4.5q-14 -1 -28 -3l-28 -4q-26 -58 -56 -99t-67 -70
q-26 -21 -55.5 -39.5t-59.5 -32.5q-41 -21 -81 -32.5t-70 -11.5t-50 16t-20 42q0 52 51 91.5t112 66.5q36 16 70.5 28.5t57.5 20.5l4 14l49 134l60 160q6 18 18.5 49.5t26.5 65.5q1 2 2 4.5t2 4.5q13 29 24 55t19 44l-4 2q-22 -48 -59 -122t-84 -153q-66 -111 -146.5 -207.5
t-164.5 -117.5q-10 -2 -19.5 -3t-18.5 -1q-45 0 -74.5 29t-29.5 73q0 23 8 54t24 66l172 379l2.5 5t2.5 6l2 10t1 9q0 16 -9.5 24t-28.5 8q-33 0 -78.5 -20.5t-95.5 -57.5q-80 -61 -122 -128.5t-42 -138.5q0 -15 2 -28.5t6 -27.5q8 -26 24 -53t42 -58v1zM644 48
q-54 -21 -101 -48t-84 -61q-31 -28 -46.5 -51.5t-15.5 -40.5q0 -12 9 -20t22 -8q18 0 39 9.5t42 25.5q40 31 77 83t58 110v1zM647 860q26 -1 44 -19t18 -44t-18 -44.5t-44 -18.5t-44.5 18.5t-18.5 44.5t18.5 44t44.5 18v1zM812 860q26 -1 44.5 -19t18.5 -44t-18.5 -44.5
t-44.5 -18.5q-25 0 -44 18.5t-19 44.5t19 44t44 18v1z" />
    <glyph glyph-name="currency" unicode="&#xa4;" 
d="M19 124l82 81q-12 22 -19.5 40t-11.5 36q-3 11 -4 23t-1 25t1 24.5t4 23.5q4 19 11.5 38.5t19.5 42.5l-82 83l46 47l83 -83q26 16 58.5 25.5t66.5 9.5q11 0 21 -1t21 -3q20 -4 41 -12.5t43 -21.5l86 87l47 -46l-87 -87q10 -20 17 -36t11 -32q3 -14 4.5 -27.5t1.5 -28.5
q0 -19 -2 -35.5t-7 -32.5q-4 -14 -10.5 -27.5t-15.5 -28.5l86 -84l-47 -47l-83 84q-20 -13 -38 -20.5t-35 -12.5q-13 -3 -26 -4.5t-27 -1.5q-19 0 -36 2.5t-33 7.5q-14 5 -27.5 11.5t-28.5 15.5l-83 -82l-47 47v0zM393 332q0 48 -34.5 82.5t-84.5 34.5q-49 0 -83.5 -34.5
t-34.5 -83.5t35 -83.5t84 -34.5q48 0 83 34.5t35 83.5v1z" />
    <glyph glyph-name="guilsinglleft" unicode="&#x2039;" horiz-adv-x="336" 
d="M159 330h147q-29 -35 -60 -64t-69 -56l97 -122h-156l-85 123q8 4 15.5 9.5t15.5 11.5q18 14 36.5 31.5t33.5 34.5q7 8 13.5 15.5t11.5 15.5v1z" />
    <glyph glyph-name="guilsinglright" unicode="&#x203a;" horiz-adv-x="336" 
d="M177 88h-147q10 11 21 22.5t23 22.5q17 16 37.5 33t47.5 36l-97 128h156l85 -123q-6 -5 -12.5 -9.5t-13.5 -9.5q-20 -15 -39.5 -33t-36.5 -37q-7 -8 -13 -15.5t-11 -15.5v1z" />
    <glyph glyph-name="daggerdbl" unicode="&#x2021;" 
d="M344 247q-51 -30 -86 -79.5t-62 -131.5q11 3 26 9l30 12q2 1 4 1.5t3 1.5q21 8 40 14.5t31 6.5q21 0 34.5 -15.5t13.5 -38.5t-14.5 -39t-34.5 -16q-14 0 -33.5 7.5t-39.5 16.5q-2 0 -3 0.5l-3 1.5q-15 5 -30.5 11t-28.5 8q-2 -6 -2.5 -10.5t-1.5 -7.5q-1 -7 -1 -14v-19
q1 -12 1.5 -24.5t1.5 -24.5t1.5 -24.5t1.5 -24.5q0 -24 -17 -39.5t-43 -15.5q-28 0 -48.5 18t-20.5 42q0 14 16 35t35 43l2 2l2 2q15 17 29 32.5t21 28.5q-10 -2 -26.5 -8t-34.5 -12q-1 0 -2 -0.5l-1 -0.5q-23 -9 -42.5 -16t-25.5 -7q-19 0 -33.5 17t-14.5 39t14.5 38
t34.5 16q9 0 29 -7t42 -15q2 -1 4 -1.5t4 -1.5q17 -7 33 -13.5t25 -9.5q12 28 19 52.5t10 47.5q1 9 1.5 17.5t0.5 17.5q0 19 -2.5 33.5t-7.5 28.5l-6 12t-7 12q46 27 77 72t52 94q2 6 5 12.5t5 13.5q-15 -2 -30 -8t-30 -13q-18 -8 -36 -15t-36 -7q-22 0 -36.5 16.5
t-14.5 39.5q0 22 14 38.5t33 16.5q12 0 33 -8t45 -17q1 -1 2.5 -1.5t2.5 -0.5q16 -7 31.5 -12.5t28.5 -8.5q2 12 3.5 20.5t2.5 15.5v8v9l-2 20t-2 19v3.5v3.5q-2 11 -3 22.5t-1 23.5q0 29 17 46t45 17q29 0 49.5 -17.5t20.5 -42.5q0 -20 -19 -41.5t-42 -45.5
q-13 -14 -25.5 -29t-21.5 -31q10 2 20.5 5.5t20.5 8.5q5 1 9.5 3t8.5 4q22 9 41 16.5t31 7.5q20 0 33.5 -14.5t13.5 -37.5q0 -24 -13.5 -41t-33.5 -17q-18 0 -36 7t-37 15q-17 8 -34 14t-34 8q-6 -20 -10 -38t-6 -35q-1 -9 -1.5 -17.5t-0.5 -17.5q0 -17 2 -31t6 -28
q2 -8 5.5 -16.5t8.5 -17.5v1z" />
    <glyph glyph-name="quotesinglbase" unicode="&#x201a;" horiz-adv-x="283" 
d="M15 48l149 84q15 -13 25 -24.5t15 -22.5q4 -8 5.5 -15.5t1.5 -15.5q0 -15 -7 -31.5t-18 -32.5q-17 -24 -42 -48t-52 -45q-24 -19 -47.5 -34.5t-40.5 -25.5l-9 13q22 18 38 38.5t27 40.5q7 15 10.5 29t3.5 28q0 19 -10 32.5t-27 13.5l-13 -1l-9 17v0z" />
    <glyph glyph-name="quotedblbase" unicode="&#x201e;" horiz-adv-x="525" 
d="M27 48l149 84q15 -13 25 -24.5t15 -22.5q4 -8 5.5 -15.5t1.5 -15.5q0 -15 -7 -31.5t-18 -32.5q-17 -24 -42 -48t-52 -45q-24 -19 -47.5 -34.5t-40.5 -25.5l-9 13q22 18 38 38.5t27 40.5q7 15 10.5 29t3.5 28q0 19 -10 32.5t-27 13.5l-13 -1l-9 17v0zM242 48l149 84
q15 -13 25 -24.5t15 -22.5q4 -8 5.5 -15.5t1.5 -15.5q0 -15 -6.5 -31.5t-18.5 -31.5q-17 -25 -42 -49t-51 -45q-25 -19 -48 -34.5t-40 -25.5l-10 13q22 18 38.5 38.5t26.5 40.5q8 15 11.5 29t3.5 28q0 19 -10.5 32.5t-27.5 13.5l-13 -1l-9 17v0z" />
    <glyph glyph-name="perthousand" unicode="&#x2030;" horiz-adv-x="1144" 
d="M641 604h56l-508 -604l-54 1l506 603v0zM762 231q0 -9 -0.5 -17t-1.5 -16q-10 -74 -62.5 -136t-132.5 -62q-58 0 -89.5 33t-31.5 95q0 94 57.5 163t134.5 69q58 0 92 -35.5t34 -94.5v1zM557 19q26 -1 50.5 44.5t42.5 99.5q14 44 22.5 82.5t8.5 54.5q0 20 -8 30.5
t-22 10.5q-12 0 -22.5 -7.5t-20.5 -23.5q-2 -4 -4.5 -8.5t-5.5 -9.5q-10 -20 -19.5 -42t-17.5 -45q-17 -44 -27 -85.5t-10 -65.5q0 -16 9.5 -26t23.5 -10v1zM1112 231q0 -8 -0.5 -15t-1.5 -14q-8 -76 -60.5 -139t-134.5 -63q-58 0 -89.5 33t-31.5 95q0 94 57.5 163t135.5 69
q57 0 91 -35.5t34 -94.5v1zM907 19q26 -1 50.5 44t41.5 99q15 45 23.5 84t8.5 54q0 20 -7.5 30.5t-22.5 10.5q-6 0 -12.5 -3.5t-13.5 -9.5q-19 -19 -37.5 -58t-32.5 -81q-14 -41 -22 -78t-8 -57q0 -16 9.5 -26t22.5 -10v1zM386 471q0 -8 -0.5 -15t-1.5 -14
q-8 -76 -60.5 -139.5t-134.5 -63.5q-58 0 -89.5 33.5t-31.5 94.5q0 94 57.5 163.5t135.5 69.5q57 0 91 -35.5t34 -94.5v1zM181 258q26 -1 50 44t41 99q15 46 24 86t9 53q0 20 -7.5 30.5t-22.5 10.5q-7 0 -14 -4.5t-15 -12.5q-18 -20 -35.5 -57t-31.5 -78q-13 -41 -21.5 -78
t-8.5 -57q0 -16 9 -26.5t23 -10.5v1z" />
    <glyph glyph-name="Acircumflex" unicode="&#xc2;" horiz-adv-x="948" 
d="M955 335l-26 -39q-21 -1 -42 -1t-42 1l-83 -219q-2 -7 -3 -13.5t-1 -13.5q0 -17 10.5 -26t31.5 -9t51.5 10.5t62.5 27.5q12 7 23.5 14t22.5 15v-22q-16 -12 -32 -21.5t-32 -17.5q-37 -18 -76 -26t-81 -8q-61 0 -95 23.5t-34 66.5q0 14 4 32t11 37l57 152q-14 0 -24.5 0.5
t-19.5 0.5q-9 1 -19.5 1.5t-24.5 0.5q-83 -160 -185 -235t-235 -75q-90 0 -143 37t-53 99q0 56 38.5 101.5t106.5 70.5q52 20 108.5 28t133.5 8q23 0 46 -1l46 -2q2 -1 4.5 -1h4.5q25 -1 50.5 -2t50.5 -1q13 29 30 67.5t39 78.5q40 75 95 137.5t123 62.5q40 0 66 -20.5
t26 -51.5q0 -18 -6 -44t-17 -55l-65 -174q5 -1 10 -1h9q10 1 17.5 1t15.5 1q10 0 20.5 1t24.5 3v1zM554 304q-20 2 -43.5 4t-47.5 3q-26 2 -50.5 3t-45.5 1q-14 0 -28 -1t-28 -3q-76 -12 -138.5 -56.5t-62.5 -130.5q0 -48 31 -77.5t82 -29.5q17 0 34.5 3t35.5 9
q75 25 145 98t116 176v1zM693 327l114 304q2 3 3 7l2 8q0 2 -1 3t-3 1l-6 -1q-54 -44 -90 -105t-65 -125q-7 -15 -13.5 -29.5t-12.5 -28.5q-4 -9 -8 -17.5t-8 -17.5h53l35 1v0zM847 879h103q6 -35 18 -69.5t30 -66.5l-40 1q-15 9 -29 20l-28 22q-2 1 -3.5 2t-2.5 3l-16 12
l-16 12q-9 -7 -17 -15l-16 -16l-2.5 -2.5t-3.5 -2.5q-9 -9 -18.5 -18t-19.5 -17l-36 1q24 22 42 43t31 42q7 12 13 24t11 24v1z" />
    <glyph glyph-name="Ecircumflex" unicode="&#xca;" horiz-adv-x="648" 
d="M416 402l-11 14q30 18 56 46t45 57q15 24 23.5 47t8.5 41q0 17 -10.5 28.5t-27.5 11.5q-30 0 -55 -38t-44 -83q-12 -29 -21.5 -56t-16.5 -44l-4 -10t-3 -10q-1 -1 -1 -2t-1 -2q-8 -23 -19 -45t-34 -34q-12 -7 -23 -14t-21 -14q-60 -42 -87.5 -86t-27.5 -96
q0 -50 33.5 -82t84.5 -32q25 0 51.5 5.5t54.5 16.5q42 17 83.5 45t74.5 65q25 27 36.5 49t11.5 41q0 13 -5 21.5t-16 15.5l9 16q29 -23 43.5 -46.5t14.5 -49.5q0 -4 -0.5 -7.5t-0.5 -7.5q-6 -39 -41 -76t-90 -63q-46 -22 -104 -33t-120 -11q-132 0 -205 43t-73 122
q0 52 30 96t84 72q39 21 81 26.5t85 6.5q14 0 22.5 4.5t8.5 11.5q0 5 -7.5 19t-16.5 35q-9 19 -16 43t-8 48v2v2q0 76 51 122t134 46q67 0 110.5 -30.5t43.5 -77.5q0 -52 -43.5 -95.5t-126.5 -74.5v1zM443 878h103q6 -35 18 -69.5t30 -66.5l-40 1q-15 9 -29 20l-28 22
q-2 1 -3.5 2t-2.5 3l-16 12l-16 12q-9 -7 -17 -15l-16 -16l-2.5 -2.5l-2.5 -2.5q-10 -9 -19.5 -18t-19.5 -17l-36 1q24 22 42 43t31 42q7 12 13 24t11 24v1z" />
    <glyph glyph-name="Aacute" unicode="&#xc1;" horiz-adv-x="948" 
d="M955 335l-26 -39q-21 -1 -42 -1t-42 1l-83 -219q-2 -7 -3 -13.5t-1 -13.5q0 -17 10.5 -26t31.5 -9t51.5 10.5t62.5 27.5q12 7 23.5 14t22.5 15v-22q-16 -12 -32 -21.5t-32 -17.5q-37 -18 -76 -26t-81 -8q-61 0 -95 23.5t-34 66.5q0 14 4 32t11 37l57 152q-14 0 -24.5 0.5
t-19.5 0.5q-9 1 -19.5 1.5t-24.5 0.5q-83 -160 -185 -235t-235 -75q-90 0 -143 37t-53 99q0 56 38.5 101.5t106.5 70.5q52 20 108.5 28t133.5 8q23 0 46 -1l46 -2q2 -1 4.5 -1h4.5q25 -1 50.5 -2t50.5 -1q13 29 30 67.5t39 78.5q40 75 95 137.5t123 62.5q40 0 66 -20.5
t26 -51.5q0 -18 -6 -44t-17 -55l-65 -174q5 -1 10 -1h9q10 1 17.5 1t15.5 1q10 0 20.5 1t24.5 3v1zM554 304q-20 2 -43.5 4t-47.5 3q-26 2 -50.5 3t-45.5 1q-14 0 -28 -1t-28 -3q-76 -12 -138.5 -56.5t-62.5 -130.5q0 -48 31 -77.5t82 -29.5q17 0 34.5 3t35.5 9
q75 25 145 98t116 176v1zM693 327l114 304q2 3 3 7l2 8q0 2 -1 3t-3 1l-6 -1q-54 -44 -90 -105t-65 -125q-7 -15 -13.5 -29.5t-12.5 -28.5q-4 -9 -8 -17.5t-8 -17.5h53l35 1v0zM896 874h153q-25 -28 -52 -51t-55 -44q-6 -5 -11.5 -9.5t-11.5 -8.5q-7 -6 -14.5 -12t-15.5 -12
l-56 2q16 21 27 38.5t18 34.5q6 14 10.5 28.5t7.5 32.5v1z" />
    <glyph glyph-name="Edieresis" unicode="&#xcb;" horiz-adv-x="648" 
d="M416 402l-11 14q30 18 56 46t45 57q15 24 23.5 47t8.5 41q0 17 -10.5 28.5t-27.5 11.5q-30 0 -55 -38t-44 -83q-12 -29 -21.5 -56t-16.5 -44l-4 -10t-3 -10q-1 -1 -1 -2t-1 -2q-8 -23 -19 -45t-34 -34q-12 -7 -23 -14t-21 -14q-60 -42 -87.5 -86t-27.5 -96
q0 -50 33.5 -82t84.5 -32q25 0 51.5 5.5t54.5 16.5q42 17 83.5 45t74.5 65q25 27 36.5 49t11.5 41q0 13 -5 21.5t-16 15.5l9 16q29 -23 43.5 -46.5t14.5 -49.5q0 -4 -0.5 -7.5t-0.5 -7.5q-6 -39 -41 -76t-90 -63q-46 -22 -104 -33t-120 -11q-132 0 -205 43t-73 122
q0 52 30 96t84 72q39 21 81 26.5t85 6.5q14 0 22.5 4.5t8.5 11.5q0 5 -7.5 19t-16.5 35q-9 19 -16 43t-8 48v2v2q0 76 51 122t134 46q67 0 110.5 -30.5t43.5 -77.5q0 -52 -43.5 -95.5t-126.5 -74.5v1zM381 859q26 -1 44 -19t18 -44t-18 -44.5t-44 -18.5t-44.5 18.5
t-18.5 44.5t18.5 44t44.5 18v1zM546 859q26 -1 44.5 -19t18.5 -44t-18.5 -44.5t-44.5 -18.5q-25 0 -44 18.5t-19 44.5t19 44t44 18v1z" />
    <glyph glyph-name="Egrave" unicode="&#xc8;" horiz-adv-x="648" 
d="M416 402l-11 14q30 18 56 46t45 57q15 24 23.5 47t8.5 41q0 17 -10.5 28.5t-27.5 11.5q-30 0 -55 -38t-44 -83q-12 -29 -21.5 -56t-16.5 -44l-4 -10t-3 -10q-1 -1 -1 -2t-1 -2q-8 -23 -19 -45t-34 -34q-12 -7 -23 -14t-21 -14q-60 -42 -87.5 -86t-27.5 -96
q0 -50 33.5 -82t84.5 -32q25 0 51.5 5.5t54.5 16.5q42 17 83.5 45t74.5 65q25 27 36.5 49t11.5 41q0 13 -5 21.5t-16 15.5l9 16q29 -23 43.5 -46.5t14.5 -49.5q0 -4 -0.5 -7.5t-0.5 -7.5q-6 -39 -41 -76t-90 -63q-46 -22 -104 -33t-120 -11q-132 0 -205 43t-73 122
q0 52 30 96t84 72q39 21 81 26.5t85 6.5q14 0 22.5 4.5t8.5 11.5q0 5 -7.5 19t-16.5 35q-9 19 -16 43t-8 48v2v2q0 76 51 122t134 46q67 0 110.5 -30.5t43.5 -77.5q0 -52 -43.5 -95.5t-126.5 -74.5v1zM409 873q4 -20 8 -35t11 -28q7 -16 17.5 -33t26.5 -40h-56
q-42 31 -83 63.5t-77 71.5l153 1v0z" />
    <glyph glyph-name="Iacute" unicode="&#xcd;" horiz-adv-x="664" 
d="M84 472l-23 5q38 98 111.5 147t179.5 49q45 0 89.5 -8t88.5 -17q44 -10 88.5 -18t89.5 -8q-18 -35 -30 -77t-23 -89q-7 -34 -15.5 -70t-19.5 -72q-8 -29 -19 -57t-25 -56q15 -4 32 -11t34 -15q11 -5 22.5 -11t22.5 -12l-12 -36q-23 20 -50 36t-61 27q-13 -21 -24.5 -37.5
t-22.5 -29.5q-13 -16 -26.5 -28t-29.5 -24q-38 -27 -95 -45.5t-118 -23.5q-12 -2 -25 -2.5t-25 -0.5q-85 0 -135 35.5t-50 96.5q0 65 58.5 106t152.5 41q41 0 83.5 -6.5t85.5 -19.5q9 -2 17.5 -5t17.5 -6q7 18 13 35.5t12 34.5q34 94 79 170.5t144 132.5q-21 -8 -43 -14.5
t-44 -12.5q-45 -11 -88 -17t-80 -6q-25 0 -49.5 3.5t-48.5 7.5q-25 3 -49.5 6.5t-49.5 3.5q-49 0 -85.5 -26.5t-54.5 -76.5v1zM419 211q-29 10 -70.5 15.5t-86.5 5.5q-100 0 -162 -35t-62 -91q0 -39 40.5 -66.5t98.5 -27.5q71 0 133.5 51.5t108.5 146.5v1zM453 874h153
q-25 -28 -52 -51t-55 -44q-6 -5 -11.5 -9.5t-11.5 -8.5q-7 -6 -14.5 -12t-15.5 -12l-56 2q16 21 27 38.5t18 34.5q6 14 10.5 28.5t7.5 32.5v1z" />
    <glyph glyph-name="Icircumflex" unicode="&#xce;" horiz-adv-x="664" 
d="M84 472l-23 5q38 98 111.5 147t179.5 49q45 0 89.5 -8t88.5 -17q44 -10 88.5 -18t89.5 -8q-18 -35 -30 -77t-23 -89q-7 -34 -15.5 -70t-19.5 -72q-8 -29 -19 -57t-25 -56q15 -4 32 -11t34 -15q11 -5 22.5 -11t22.5 -12l-12 -36q-23 20 -50 36t-61 27q-13 -21 -24.5 -37.5
t-22.5 -29.5q-13 -16 -26.5 -28t-29.5 -24q-38 -27 -95 -45.5t-118 -23.5q-12 -2 -25 -2.5t-25 -0.5q-85 0 -135 35.5t-50 96.5q0 65 58.5 106t152.5 41q41 0 83.5 -6.5t85.5 -19.5q9 -2 17.5 -5t17.5 -6q7 18 13 35.5t12 34.5q34 94 79 170.5t144 132.5q-21 -8 -43 -14.5
t-44 -12.5q-45 -11 -88 -17t-80 -6q-25 0 -49.5 3.5t-48.5 7.5q-25 3 -49.5 6.5t-49.5 3.5q-49 0 -85.5 -26.5t-54.5 -76.5v1zM419 211q-29 10 -70.5 15.5t-86.5 5.5q-100 0 -162 -35t-62 -91q0 -39 40.5 -66.5t98.5 -27.5q71 0 133.5 51.5t108.5 146.5v1zM438 879h103
q6 -35 18 -69.5t30 -66.5l-40 1q-15 9 -29 20l-28 22q-2 1 -3.5 2t-2.5 3l-16 12l-16 12q-9 -7 -17 -15l-16 -16l-2.5 -2.5l-2.5 -2.5q-10 -9 -19.5 -18t-19.5 -17l-36 1q24 22 42 43t31 42q7 12 13 24t11 24v1z" />
    <glyph glyph-name="Idieresis" unicode="&#xcf;" horiz-adv-x="664" 
d="M84 472l-23 5q38 98 111.5 147t179.5 49q45 0 89.5 -8t88.5 -17q44 -10 88.5 -18t89.5 -8q-18 -35 -30 -77t-23 -89q-7 -34 -15.5 -70t-19.5 -72q-8 -29 -19 -57t-25 -56q15 -4 32 -11t34 -15q11 -5 22.5 -11t22.5 -12l-12 -36q-23 20 -50 36t-61 27q-13 -21 -24.5 -37.5
t-22.5 -29.5q-13 -16 -26.5 -28t-29.5 -24q-38 -27 -95 -45.5t-118 -23.5q-12 -2 -25 -2.5t-25 -0.5q-85 0 -135 35.5t-50 96.5q0 65 58.5 106t152.5 41q41 0 83.5 -6.5t85.5 -19.5q9 -2 17.5 -5t17.5 -6q7 18 13 35.5t12 34.5q34 94 79 170.5t144 132.5q-21 -8 -43 -14.5
t-44 -12.5q-45 -11 -88 -17t-80 -6q-25 0 -49.5 3.5t-48.5 7.5q-25 3 -49.5 6.5t-49.5 3.5q-49 0 -85.5 -26.5t-54.5 -76.5v1zM419 211q-29 10 -70.5 15.5t-86.5 5.5q-100 0 -162 -35t-62 -91q0 -39 40.5 -66.5t98.5 -27.5q71 0 133.5 51.5t108.5 146.5v1zM350 860
q26 -1 44 -19t18 -44t-18 -44.5t-44 -18.5t-44.5 18.5t-18.5 44.5t18.5 44t44.5 18v1zM515 860q26 -1 44.5 -19t18.5 -44t-18.5 -44.5t-44.5 -18.5q-25 0 -44 18.5t-19 44.5t19 44t44 18v1z" />
    <glyph glyph-name="Igrave" unicode="&#xcc;" horiz-adv-x="664" 
d="M84 472l-23 5q38 98 111.5 147t179.5 49q45 0 89.5 -8t88.5 -17q44 -10 88.5 -18t89.5 -8q-18 -35 -30 -77t-23 -89q-7 -34 -15.5 -70t-19.5 -72q-8 -29 -19 -57t-25 -56q15 -4 32 -11t34 -15q11 -5 22.5 -11t22.5 -12l-12 -36q-23 20 -50 36t-61 27q-13 -21 -24.5 -37.5
t-22.5 -29.5q-13 -16 -26.5 -28t-29.5 -24q-38 -27 -95 -45.5t-118 -23.5q-12 -2 -25 -2.5t-25 -0.5q-85 0 -135 35.5t-50 96.5q0 65 58.5 106t152.5 41q41 0 83.5 -6.5t85.5 -19.5q9 -2 17.5 -5t17.5 -6q7 18 13 35.5t12 34.5q34 94 79 170.5t144 132.5q-21 -8 -43 -14.5
t-44 -12.5q-45 -11 -88 -17t-80 -6q-25 0 -49.5 3.5t-48.5 7.5q-25 3 -49.5 6.5t-49.5 3.5q-49 0 -85.5 -26.5t-54.5 -76.5v1zM419 211q-29 10 -70.5 15.5t-86.5 5.5q-100 0 -162 -35t-62 -91q0 -39 40.5 -66.5t98.5 -27.5q71 0 133.5 51.5t108.5 146.5v1zM477 874
q4 -20 8 -35t11 -28q7 -16 17.5 -33t26.5 -40h-56q-42 31 -83 63.5t-77 71.5l153 1v0z" />
    <glyph glyph-name="Oacute" unicode="&#xd3;" horiz-adv-x="728" 
d="M346 362l-20 -2q-2 10 -3.5 18t-1.5 16q-1 6 -1 12v12q0 110 59 185.5t144 75.5q87 0 146.5 -76t59.5 -189q0 -168 -127 -301t-296 -133q-130 0 -205 67t-75 185q0 132 88.5 243t243.5 174l8 -12q-52 -43 -92.5 -119.5t-64.5 -159.5q-15 -54 -23.5 -105.5t-8.5 -94.5
q0 -74 34 -116.5t92 -42.5q47 0 86.5 29t77.5 95q7 12 13.5 24.5t13.5 26.5q17 36 32.5 76t27.5 81q17 59 27.5 115.5t10.5 99.5q0 51 -18 81.5t-49 30.5q-53 0 -92.5 -53t-61.5 -117q-12 -36 -18.5 -69t-6.5 -58v1zM552 874h153q-25 -28 -52 -51t-55 -44q-6 -5 -11.5 -9.5
t-11.5 -8.5q-7 -6 -14.5 -12t-15.5 -12l-56 2q16 21 27 38.5t18 34.5q6 14 10.5 28.5t7.5 32.5v1z" />
    <glyph glyph-name="Ocircumflex" unicode="&#xd4;" horiz-adv-x="728" 
d="M346 362l-20 -2q-2 10 -3.5 18t-1.5 16q-1 6 -1 12v12q0 110 59 185.5t144 75.5q87 0 146.5 -76t59.5 -189q0 -168 -127 -301t-296 -133q-130 0 -205 67t-75 185q0 132 88.5 243t243.5 174l8 -12q-52 -43 -92.5 -119.5t-64.5 -159.5q-15 -54 -23.5 -105.5t-8.5 -94.5
q0 -74 34 -116.5t92 -42.5q47 0 86.5 29t77.5 95q7 12 13.5 24.5t13.5 26.5q17 36 32.5 76t27.5 81q17 59 27.5 115.5t10.5 99.5q0 51 -18 81.5t-49 30.5q-53 0 -92.5 -53t-61.5 -117q-12 -36 -18.5 -69t-6.5 -58v1zM503 879h103q6 -35 18 -69.5t30 -66.5l-40 1
q-15 9 -29 20l-28 22q-2 1 -3.5 2t-2.5 3l-16 12l-16 12q-9 -7 -17 -15l-16 -16l-2.5 -2.5l-2.5 -2.5q-10 -9 -19.5 -18t-19.5 -17l-36 1q24 22 42 43t31 42q7 12 13 24t11 24v1z" />
    <glyph glyph-name="Ograve" unicode="&#xd2;" horiz-adv-x="728" 
d="M346 362l-20 -2q-2 10 -3.5 18t-1.5 16q-1 6 -1 12v12q0 110 59 185.5t144 75.5q87 0 146.5 -76t59.5 -189q0 -168 -127 -301t-296 -133q-130 0 -205 67t-75 185q0 132 88.5 243t243.5 174l8 -12q-52 -43 -92.5 -119.5t-64.5 -159.5q-15 -54 -23.5 -105.5t-8.5 -94.5
q0 -74 34 -116.5t92 -42.5q47 0 86.5 29t77.5 95q7 12 13.5 24.5t13.5 26.5q17 36 32.5 76t27.5 81q17 59 27.5 115.5t10.5 99.5q0 51 -18 81.5t-49 30.5q-53 0 -92.5 -53t-61.5 -117q-12 -36 -18.5 -69t-6.5 -58v1zM509 874q4 -20 8 -35t11 -28q7 -16 17.5 -33t26.5 -40
h-56q-42 31 -83 63.5t-77 71.5l153 1v0z" />
    <glyph glyph-name="Uacute" unicode="&#xda;" horiz-adv-x="984" 
d="M119 99l-15 -11q-49 55 -73.5 105t-24.5 95q0 24 6 49t18 50q20 46 57.5 90.5t87.5 80.5q68 50 138.5 78.5t142.5 34.5q10 1 20.5 1.5t20.5 0.5q71 0 108 -22t37 -66q0 -10 -2.5 -22.5t-6.5 -25.5l-6 -14l-6 -14l-224 -449q-6 -13 -9.5 -23.5t-3.5 -16.5q0 -7 4.5 -11.5
t11.5 -4.5q34 0 89 63.5t114 152.5q17 26 34 53t34 55q60 99 107 187t62 121l186 25l-242 -555q-8 -20 -12 -33.5t-4 -24.5q0 -19 13 -29.5t37 -10.5q35 0 68.5 11t65.5 24q11 5 22 9.5t22 8.5v-18q-40 -21 -85.5 -37t-91.5 -19q-5 -1 -9.5 -1h-9.5q-72 0 -117 32t-45 84
q0 14 4 35.5t11 43.5q5 16 10.5 31t11.5 28l171 368l-4 2q-48 -97 -99.5 -192t-107.5 -187q-13 -20 -28.5 -46t-33.5 -52q-37 -56 -85.5 -101.5t-106.5 -45.5q-50 0 -81 33t-31 87q0 21 6.5 44t18.5 48l202 391q6 10 9 18.5t3 15.5q0 14 -11 21t-31 7q-31 0 -66 -12t-71 -34
q-66 -38 -126.5 -100t-97.5 -129q-20 -35 -31.5 -70t-11.5 -66q0 -15 1.5 -28t5.5 -26q6 -20 18 -40.5t32 -47.5v1zM780 873h153q-25 -28 -52 -51t-55 -44q-6 -5 -11.5 -9.5t-11.5 -8.5q-7 -6 -14.5 -12t-15.5 -12l-56 2q16 21 27 38.5t18 34.5q6 14 10.5 28.5t7.5 32.5v1z
" />
    <glyph glyph-name="Ucircumflex" unicode="&#xdb;" horiz-adv-x="984" 
d="M119 99l-15 -11q-49 55 -73.5 105t-24.5 95q0 24 6 49t18 50q20 46 57.5 90.5t87.5 80.5q68 50 138.5 78.5t142.5 34.5q10 1 20.5 1.5t20.5 0.5q71 0 108 -22t37 -66q0 -10 -2.5 -22.5t-6.5 -25.5l-6 -14l-6 -14l-224 -449q-6 -13 -9.5 -23.5t-3.5 -16.5q0 -7 4.5 -11.5
t11.5 -4.5q34 0 89 63.5t114 152.5q17 26 34 53t34 55q60 99 107 187t62 121l186 25l-242 -555q-8 -20 -12 -33.5t-4 -24.5q0 -19 13 -29.5t37 -10.5q35 0 68.5 11t65.5 24q11 5 22 9.5t22 8.5v-18q-40 -21 -85.5 -37t-91.5 -19q-5 -1 -9.5 -1h-9.5q-72 0 -117 32t-45 84
q0 14 4 35.5t11 43.5q5 16 10.5 31t11.5 28l171 368l-4 2q-48 -97 -99.5 -192t-107.5 -187q-13 -20 -28.5 -46t-33.5 -52q-37 -56 -85.5 -101.5t-106.5 -45.5q-50 0 -81 33t-31 87q0 21 6.5 44t18.5 48l202 391q6 10 9 18.5t3 15.5q0 14 -11 21t-31 7q-31 0 -66 -12t-71 -34
q-66 -38 -126.5 -100t-97.5 -129q-20 -35 -31.5 -70t-11.5 -66q0 -15 1.5 -28t5.5 -26q6 -20 18 -40.5t32 -47.5v1zM732 878h103q6 -35 18 -69.5t30 -66.5l-40 1q-15 9 -29 20l-28 22q-2 1 -3.5 2t-2.5 3l-16 12l-16 12q-9 -7 -17 -15l-16 -16l-2.5 -2.5t-3.5 -2.5
q-9 -9 -18.5 -18t-19.5 -17l-36 1q24 22 42 43t31 42q7 12 13 24t11 24v1z" />
    <glyph glyph-name="Ugrave" unicode="&#xd9;" horiz-adv-x="984" 
d="M119 99l-15 -11q-49 55 -73.5 105t-24.5 95q0 24 6 49t18 50q20 46 57.5 90.5t87.5 80.5q68 50 138.5 78.5t142.5 34.5q10 1 20.5 1.5t20.5 0.5q71 0 108 -22t37 -66q0 -10 -2.5 -22.5t-6.5 -25.5l-6 -14l-6 -14l-224 -449q-6 -13 -9.5 -23.5t-3.5 -16.5q0 -7 4.5 -11.5
t11.5 -4.5q34 0 89 63.5t114 152.5q17 26 34 53t34 55q60 99 107 187t62 121l186 25l-242 -555q-8 -20 -12 -33.5t-4 -24.5q0 -19 13 -29.5t37 -10.5q35 0 68.5 11t65.5 24q11 5 22 9.5t22 8.5v-18q-40 -21 -85.5 -37t-91.5 -19q-5 -1 -9.5 -1h-9.5q-72 0 -117 32t-45 84
q0 14 4 35.5t11 43.5q5 16 10.5 31t11.5 28l171 368l-4 2q-48 -97 -99.5 -192t-107.5 -187q-13 -20 -28.5 -46t-33.5 -52q-37 -56 -85.5 -101.5t-106.5 -45.5q-50 0 -81 33t-31 87q0 21 6.5 44t18.5 48l202 391q6 10 9 18.5t3 15.5q0 14 -11 21t-31 7q-31 0 -66 -12t-71 -34
q-66 -38 -126.5 -100t-97.5 -129q-20 -35 -31.5 -70t-11.5 -66q0 -15 1.5 -28t5.5 -26q6 -20 18 -40.5t32 -47.5v1zM770 873q4 -20 8 -35t11 -28q7 -16 17.5 -33t26.5 -40h-56q-42 31 -83 63.5t-77 71.5l153 1v0z" />
    <glyph glyph-name="circumflex" unicode="&#x2dc;" horiz-adv-x="500" 
d="M290 618h103q6 -35 18 -69.5t30 -66.5l-40 1q-15 9 -29 20l-28 22q-2 1 -3.5 2t-2.5 3l-16 12l-16 12q-9 -7 -17 -15l-16 -16l-2.5 -2.5l-2.5 -2.5q-10 -9 -19.5 -18t-19.5 -17l-36 1q24 22 42 43t31 42q7 12 13 24t11 24v1z" />
    <glyph glyph-name="tilde" unicode="&#x2c6;" horiz-adv-x="500" 
d="M451 606l17 -11q-25 -46 -52.5 -69.5t-56.5 -23.5q-9 0 -18.5 2t-19.5 5q-8 2 -16.5 5.5t-17.5 7.5q-18 7 -34.5 13t-30.5 6q-11 0 -19 -4.5t-15 -15.5q-1 -2 -2 -3.5t-2 -3.5l-18 11q19 38 45.5 61t54.5 27h4h4q18 0 35 -6t33 -14q5 -2 9.5 -4t8.5 -4q12 -5 24 -8.5
t24 -3.5q14 0 24.5 8t18.5 24v1z" />
    <glyph glyph-name="cedilla" unicode="&#xb8;" horiz-adv-x="500" 
d="M131 -214q13 7 24.5 14t19.5 14q15 12 23 23.5t8 21.5t-8 17t-19 7l-7 -1l-3 18l50 100h30l-42 -83q5 2 9.5 3.5t8.5 3.5q16 6 33 11.5t34 5.5q23 0 37 -12.5t14 -31.5q0 -35 -34.5 -59t-76.5 -40q-25 -9 -48.5 -16t-39.5 -13l-13 17v0z" />
    <glyph glyph-name="Scaron" unicode="&#x160;" horiz-adv-x="0" 
 />
    <glyph glyph-name="scaron" unicode="&#x161;" horiz-adv-x="0" 
 />
    <glyph glyph-name="Zcaron" unicode="&#x17d;" horiz-adv-x="0" 
 />
    <glyph glyph-name="zcaron" unicode="&#x17e;" horiz-adv-x="0" 
 />
    <glyph glyph-name="brokenbar" unicode="&#xa6;" horiz-adv-x="0" 
 />
    <glyph glyph-name="Eth" unicode="&#xd0;" horiz-adv-x="0" 
 />
    <glyph glyph-name="eth" unicode="&#xf0;" horiz-adv-x="0" 
 />
    <glyph glyph-name="Yacute" unicode="&#xdd;" horiz-adv-x="993" 
d="M165 149l-15 -13q-55 58 -83 116.5t-28 118.5q0 115 91.5 189t200.5 102q34 9 67 13.5t63 4.5q71 0 106 -25t35 -75q0 -11 -2 -24t-6 -26q-2 -6 -4.5 -12.5t-5.5 -12.5l-204 -447l-2 -6t-2 -5q-1 -4 -1.5 -8t-0.5 -7q0 -6 4.5 -11t11.5 -5q11 0 28 11t40 33
q74 69 145 165t133 197q35 58 65.5 114.5t56.5 108.5l177 28l-196 -531q-1 -3 -2 -5.5t-2 -4.5v-0.5v-0.5q-1 -4 -3 -8.5t-5 -10.5q16 3 31 6t30 5q26 4 53.5 6.5t64.5 4.5l-20 -32q-28 -1 -56 -2.5t-56 -4.5q-14 -1 -28 -3l-28 -4q-26 -58 -56 -99t-67 -70
q-26 -21 -55.5 -39.5t-59.5 -32.5q-41 -21 -81 -32.5t-70 -11.5t-50 16t-20 42q0 52 51 91.5t112 66.5q36 16 70.5 28.5t57.5 20.5l4 14l49 134l60 160q6 18 18.5 49.5t26.5 65.5q1 2 2 4.5t2 4.5q13 29 24 55t19 44l-4 2q-22 -48 -59 -122t-84 -153q-66 -111 -146.5 -207.5
t-164.5 -117.5q-10 -2 -19.5 -3t-18.5 -1q-45 0 -74.5 29t-29.5 73q0 23 8 54t24 66l172 379l2.5 5t2.5 6l2 10t1 9q0 16 -9.5 24t-28.5 8q-33 0 -78.5 -20.5t-95.5 -57.5q-80 -61 -122 -128.5t-42 -138.5q0 -15 2 -28.5t6 -27.5q8 -26 24 -53t42 -58v1zM644 48
q-54 -21 -101 -48t-84 -61q-31 -28 -46.5 -51.5t-15.5 -40.5q0 -12 9 -20t22 -8q18 0 39 9.5t42 25.5q40 31 77 83t58 110v1zM751 874h153q-25 -28 -52 -51t-55 -44q-6 -5 -11.5 -9.5t-11.5 -8.5q-7 -6 -14.5 -12t-15.5 -12l-56 2q16 21 27 38.5t18 34.5q6 14 10.5 28.5
t7.5 32.5v1z" />
    <glyph glyph-name="yacute" unicode="&#xfd;" horiz-adv-x="560" 
d="M85 364l155 29l-101 -283l-7 -24.5t-3 -17.5q0 -13 9.5 -22.5t22.5 -9.5q11 0 25 5t29 15q10 6 19 13t18 16l99 278l155 28l-139 -389q56 14 106 37t90 52l6 -17q-29 -20 -57 -34.5t-55 -26.5q-24 -10 -47.5 -17t-48.5 -13q-10 -33 -22.5 -53.5t-33.5 -37.5
q-25 -21 -57.5 -35.5t-66.5 -19.5q-8 -2 -17 -2.5t-18 -0.5q-34 0 -56.5 14.5t-22.5 36.5q0 36 35 58t112 36l25 70q-31 -17 -57.5 -26t-51.5 -12q-9 -1 -17 -1.5t-17 -0.5q-46 0 -73.5 20.5t-27.5 54.5q0 12 4 30t11 40l75 210v0zM209 -40q-10 -2 -22 -4.5t-24 -6.5
q-26 -8 -48 -23t-22 -42q0 -13 9 -21t22 -8q27 0 42.5 20.5t26.5 44.5q4 10 7.5 19.5t7.5 17.5q0 1 0.5 1.5t0.5 1.5v0zM348 614h153q-25 -28 -52 -51t-55 -44q-6 -5 -11.5 -9.5t-11.5 -8.5q-7 -6 -14.5 -12t-15.5 -12l-56 2q16 21 27 38.5t18 34.5q6 14 10.5 28.5t7.5 32.5
v1z" />
    <glyph glyph-name="Thorn" unicode="&#xde;" horiz-adv-x="0" 
 />
    <glyph glyph-name="thorn" unicode="&#xfe;" horiz-adv-x="0" 
 />
    <glyph glyph-name="multiply" unicode="&#xd7;" horiz-adv-x="0" 
 />
    <glyph glyph-name="onesuperior" unicode="&#xb9;" horiz-adv-x="0" 
 />
    <glyph glyph-name="twosuperior" unicode="&#xb2;" horiz-adv-x="0" 
 />
    <glyph glyph-name="threesuperior" unicode="&#xb3;" horiz-adv-x="0" 
 />
    <glyph glyph-name="onehalf" unicode="&#xbd;" horiz-adv-x="0" 
 />
    <glyph glyph-name="onequarter" unicode="&#xbc;" horiz-adv-x="0" 
 />
    <glyph glyph-name="threequarters" unicode="&#xbe;" horiz-adv-x="0" 
 />
    <glyph glyph-name="endash" unicode="&#x2013;" 
d="M91 232h409l-46 -64h-410l47 64v0z" />
    <glyph glyph-name="sfthyphen" unicode="&#xad;" horiz-adv-x="0" 
 />
    <glyph glyph-name="filledbox" unicode="&#x25a0;" horiz-adv-x="0" 
 />
    <glyph glyph-name="bullet" unicode="&#x2022;" horiz-adv-x="600" 
d="M198 286q0 39 28 67t68 28q41 0 69.5 -28t28.5 -68t-28.5 -68t-69.5 -28q-40 0 -68 28t-28 68v1z" />
    <glyph glyph-name="overstore" unicode="&#xaf;" horiz-adv-x="0" 
 />
    <glyph glyph-name="degree" unicode="&#xb0;" horiz-adv-x="0" 
 />
    <glyph glyph-name="middot" unicode="&#xb7;" horiz-adv-x="0" 
 />
    <glyph glyph-name="invcircle" unicode="&#x25d9;" horiz-adv-x="0" 
 />
    <glyph glyph-name="Rcaron" unicode="&#x158;" horiz-adv-x="0" 
 />
    <glyph glyph-name="Ncaron" unicode="&#x147;" horiz-adv-x="0" 
 />
    <glyph glyph-name="2510" unicode="&#x2510;" horiz-adv-x="0" 
 />
  </font>
</defs>
</svg>
